%TF.GenerationSoftware,KiCad,Pcbnew,7.0.2*%
%TF.CreationDate,2023-07-16T22:25:04-04:00*%
%TF.ProjectId,hellerune,68656c6c-6572-4756-9e65-2e6b69636164,rev?*%
%TF.SameCoordinates,Original*%
%TF.FileFunction,Drillmap*%
%TF.FilePolarity,Positive*%
%FSLAX45Y45*%
G04 Gerber Fmt 4.5, Leading zero omitted, Abs format (unit mm)*
G04 Created by KiCad (PCBNEW 7.0.2) date 2023-07-16 22:25:04*
%MOMM*%
%LPD*%
G01*
G04 APERTURE LIST*
%ADD10C,0.100000*%
%ADD11C,0.200000*%
%ADD12C,0.040000*%
%ADD13C,0.074000*%
%ADD14C,0.080000*%
%ADD15C,0.140000*%
G04 APERTURE END LIST*
D10*
X18853680Y-5350000D02*
X18853680Y-8050000D01*
X12000000Y-8050000D02*
X12000000Y-11050000D01*
X9000000Y-5350000D02*
X9000000Y-8050000D01*
X9000000Y-8050000D02*
X12000000Y-8050000D01*
X15853680Y-8050000D02*
X15853680Y-11050000D01*
X12000000Y-11050000D02*
X15853680Y-11050000D01*
X9000000Y-5350000D02*
X18853680Y-5350000D01*
X15853680Y-8050000D02*
X18853680Y-8050000D01*
D11*
D12*
X10555000Y-6580000D02*
X10595000Y-6620000D01*
X10595000Y-6580000D02*
X10555000Y-6620000D01*
X10680000Y-5905000D02*
X10720000Y-5945000D01*
X10720000Y-5905000D02*
X10680000Y-5945000D01*
X10680000Y-6255000D02*
X10720000Y-6295000D01*
X10720000Y-6255000D02*
X10680000Y-6295000D01*
X10905000Y-5505000D02*
X10945000Y-5545000D01*
X10945000Y-5505000D02*
X10905000Y-5545000D01*
X11130000Y-6530000D02*
X11170000Y-6570000D01*
X11170000Y-6530000D02*
X11130000Y-6570000D01*
X11680000Y-7680000D02*
X11720000Y-7720000D01*
X11720000Y-7680000D02*
X11680000Y-7720000D01*
X11755000Y-6355000D02*
X11795000Y-6395000D01*
X11795000Y-6355000D02*
X11755000Y-6395000D01*
X11855000Y-5655000D02*
X11895000Y-5695000D01*
X11895000Y-5655000D02*
X11855000Y-5695000D01*
X11880000Y-7855000D02*
X11920000Y-7895000D01*
X11920000Y-7855000D02*
X11880000Y-7895000D01*
X11905000Y-6855000D02*
X11945000Y-6895000D01*
X11945000Y-6855000D02*
X11905000Y-6895000D01*
X12380000Y-5455000D02*
X12420000Y-5495000D01*
X12420000Y-5455000D02*
X12380000Y-5495000D01*
X12455000Y-6330000D02*
X12495000Y-6370000D01*
X12495000Y-6330000D02*
X12455000Y-6370000D01*
X12730000Y-9705000D02*
X12770000Y-9745000D01*
X12770000Y-9705000D02*
X12730000Y-9745000D01*
X12820000Y-9000000D02*
X12860000Y-9040000D01*
X12860000Y-9000000D02*
X12820000Y-9040000D01*
X13220000Y-8960000D02*
X13260000Y-9000000D01*
X13260000Y-8960000D02*
X13220000Y-9000000D01*
X13740000Y-8300000D02*
X13780000Y-8340000D01*
X13780000Y-8300000D02*
X13740000Y-8340000D01*
X13980000Y-8500000D02*
X14020000Y-8540000D01*
X14020000Y-8500000D02*
X13980000Y-8540000D01*
X14020000Y-8200000D02*
X14060000Y-8240000D01*
X14060000Y-8200000D02*
X14020000Y-8240000D01*
X14140000Y-5680000D02*
X14180000Y-5720000D01*
X14180000Y-5680000D02*
X14140000Y-5720000D01*
X14220000Y-9300000D02*
X14260000Y-9340000D01*
X14260000Y-9300000D02*
X14220000Y-9340000D01*
X14440000Y-9000000D02*
X14480000Y-9040000D01*
X14480000Y-9000000D02*
X14440000Y-9040000D01*
X14500000Y-7920000D02*
X14540000Y-7960000D01*
X14540000Y-7920000D02*
X14500000Y-7960000D01*
X14555000Y-6230000D02*
X14595000Y-6270000D01*
X14595000Y-6230000D02*
X14555000Y-6270000D01*
X14655000Y-5855000D02*
X14695000Y-5895000D01*
X14695000Y-5855000D02*
X14655000Y-5895000D01*
X14700000Y-9020000D02*
X14740000Y-9060000D01*
X14740000Y-9020000D02*
X14700000Y-9060000D01*
X14820000Y-7720000D02*
X14860000Y-7760000D01*
X14860000Y-7720000D02*
X14820000Y-7760000D01*
X14960000Y-8340000D02*
X15000000Y-8380000D01*
X15000000Y-8340000D02*
X14960000Y-8380000D01*
X15000000Y-9000000D02*
X15040000Y-9040000D01*
X15040000Y-9000000D02*
X15000000Y-9040000D01*
X15100000Y-8520000D02*
X15140000Y-8560000D01*
X15140000Y-8520000D02*
X15100000Y-8560000D01*
X15200000Y-9900000D02*
X15240000Y-9940000D01*
X15240000Y-9900000D02*
X15200000Y-9940000D01*
D13*
X12236929Y-9325071D02*
G75*
G03*
X12236929Y-9325071I-37000J0D01*
G01*
X12236929Y-10119071D02*
G75*
G03*
X12236929Y-10119071I-37000J0D01*
G01*
X12490929Y-9325071D02*
G75*
G03*
X12490929Y-9325071I-37000J0D01*
G01*
X12490929Y-10119071D02*
G75*
G03*
X12490929Y-10119071I-37000J0D01*
G01*
X12744929Y-9325071D02*
G75*
G03*
X12744929Y-9325071I-37000J0D01*
G01*
X12744929Y-10119071D02*
G75*
G03*
X12744929Y-10119071I-37000J0D01*
G01*
X12998929Y-9325071D02*
G75*
G03*
X12998929Y-9325071I-37000J0D01*
G01*
X12998929Y-10119071D02*
G75*
G03*
X12998929Y-10119071I-37000J0D01*
G01*
X13252929Y-9325071D02*
G75*
G03*
X13252929Y-9325071I-37000J0D01*
G01*
X13252929Y-10119071D02*
G75*
G03*
X13252929Y-10119071I-37000J0D01*
G01*
X13506929Y-9325071D02*
G75*
G03*
X13506929Y-9325071I-37000J0D01*
G01*
X13506929Y-10119071D02*
G75*
G03*
X13506929Y-10119071I-37000J0D01*
G01*
X13760929Y-9325071D02*
G75*
G03*
X13760929Y-9325071I-37000J0D01*
G01*
X13760929Y-10119071D02*
G75*
G03*
X13760929Y-10119071I-37000J0D01*
G01*
X14014929Y-9325071D02*
G75*
G03*
X14014929Y-9325071I-37000J0D01*
G01*
X14014929Y-10119071D02*
G75*
G03*
X14014929Y-10119071I-37000J0D01*
G01*
D14*
X11600000Y-7060000D02*
X11600000Y-7140000D01*
X11560000Y-7100000D02*
X11640000Y-7100000D01*
X11600000Y-7260000D02*
X11600000Y-7340000D01*
X11560000Y-7300000D02*
X11640000Y-7300000D01*
X12375511Y-7740000D02*
X12375511Y-7820000D01*
X12335511Y-7780000D02*
X12415511Y-7780000D01*
X12575511Y-7740000D02*
X12575511Y-7820000D01*
X12535511Y-7780000D02*
X12615511Y-7780000D01*
X12750000Y-5585000D02*
X12750000Y-5665000D01*
X12710000Y-5625000D02*
X12790000Y-5625000D01*
X12750000Y-5785000D02*
X12750000Y-5865000D01*
X12710000Y-5825000D02*
X12790000Y-5825000D01*
X12925000Y-8185000D02*
X12925000Y-8265000D01*
X12885000Y-8225000D02*
X12965000Y-8225000D01*
X13125000Y-8185000D02*
X13125000Y-8265000D01*
X13085000Y-8225000D02*
X13165000Y-8225000D01*
X14531762Y-10460000D02*
X14531762Y-10540000D01*
X14491762Y-10500000D02*
X14571762Y-10500000D01*
X14781762Y-10460000D02*
X14781762Y-10540000D01*
X14741762Y-10500000D02*
X14821762Y-10500000D01*
X14950000Y-6960000D02*
X14950000Y-7040000D01*
X14910000Y-7000000D02*
X14990000Y-7000000D01*
X15150000Y-6960000D02*
X15150000Y-7040000D01*
X15110000Y-7000000D02*
X15190000Y-7000000D01*
X15280000Y-9355511D02*
X15280000Y-9435511D01*
X15240000Y-9395511D02*
X15320000Y-9395511D01*
X15280000Y-9555511D02*
X15280000Y-9635511D01*
X15240000Y-9595511D02*
X15320000Y-9595511D01*
X15330000Y-10500000D02*
X15330000Y-10580000D01*
X15290000Y-10540000D02*
X15370000Y-10540000D01*
X15450000Y-7335000D02*
X15450000Y-7415000D01*
X15410000Y-7375000D02*
X15490000Y-7375000D01*
X15450000Y-7535000D02*
X15450000Y-7615000D01*
X15410000Y-7575000D02*
X15490000Y-7575000D01*
X15580000Y-10500000D02*
X15580000Y-10580000D01*
X15540000Y-10540000D02*
X15620000Y-10540000D01*
X16092000Y-7085000D02*
X16092000Y-7165000D01*
X16052000Y-7125000D02*
X16132000Y-7125000D01*
X16092000Y-7847000D02*
X16092000Y-7927000D01*
X16052000Y-7887000D02*
X16132000Y-7887000D01*
X16346000Y-7085000D02*
X16346000Y-7165000D01*
X16306000Y-7125000D02*
X16386000Y-7125000D01*
X16346000Y-7847000D02*
X16346000Y-7927000D01*
X16306000Y-7887000D02*
X16386000Y-7887000D01*
X16600000Y-7085000D02*
X16600000Y-7165000D01*
X16560000Y-7125000D02*
X16640000Y-7125000D01*
X16600000Y-7847000D02*
X16600000Y-7927000D01*
X16560000Y-7887000D02*
X16640000Y-7887000D01*
X16854000Y-7085000D02*
X16854000Y-7165000D01*
X16814000Y-7125000D02*
X16894000Y-7125000D01*
X16854000Y-7847000D02*
X16854000Y-7927000D01*
X16814000Y-7887000D02*
X16894000Y-7887000D01*
D10*
X12310356Y-7335356D02*
X12310356Y-7264644D01*
X12239644Y-7264644D01*
X12239644Y-7335356D01*
X12310356Y-7335356D01*
X13160356Y-10910356D02*
X13160356Y-10839644D01*
X13089644Y-10839644D01*
X13089644Y-10910356D01*
X13160356Y-10910356D01*
X13585356Y-10535356D02*
X13585356Y-10464644D01*
X13514644Y-10464644D01*
X13514644Y-10535356D01*
X13585356Y-10535356D01*
X13585356Y-10910356D02*
X13585356Y-10839644D01*
X13514644Y-10839644D01*
X13514644Y-10910356D01*
X13585356Y-10910356D01*
X15710356Y-6735356D02*
X15710356Y-6664644D01*
X15639644Y-6664644D01*
X15639644Y-6735356D01*
X15710356Y-6735356D01*
X15885356Y-6210356D02*
X15885356Y-6139644D01*
X15814644Y-6139644D01*
X15814644Y-6210356D01*
X15885356Y-6210356D01*
X16010356Y-5710356D02*
X16010356Y-5639644D01*
X15939644Y-5639644D01*
X15939644Y-5710356D01*
X16010356Y-5710356D01*
X16085356Y-6735356D02*
X16085356Y-6664644D01*
X16014644Y-6664644D01*
X16014644Y-6735356D01*
X16085356Y-6735356D01*
X16260356Y-6210356D02*
X16260356Y-6139644D01*
X16189644Y-6139644D01*
X16189644Y-6210356D01*
X16260356Y-6210356D01*
X16264356Y-5710356D02*
X16264356Y-5639644D01*
X16193644Y-5639644D01*
X16193644Y-5710356D01*
X16264356Y-5710356D01*
X16460356Y-6735356D02*
X16460356Y-6664644D01*
X16389644Y-6664644D01*
X16389644Y-6735356D01*
X16460356Y-6735356D01*
X16635356Y-6210356D02*
X16635356Y-6139644D01*
X16564644Y-6139644D01*
X16564644Y-6210356D01*
X16635356Y-6210356D01*
X16835356Y-6735356D02*
X16835356Y-6664644D01*
X16764644Y-6664644D01*
X16764644Y-6735356D01*
X16835356Y-6735356D01*
D15*
X9492000Y-7568550D02*
X9562000Y-7498550D01*
X9492000Y-7428550D01*
X9422000Y-7498550D01*
X9492000Y-7568550D01*
X10000000Y-7568550D02*
X10070000Y-7498550D01*
X10000000Y-7428550D01*
X9930000Y-7498550D01*
X10000000Y-7568550D01*
X10508000Y-7568550D02*
X10578000Y-7498550D01*
X10508000Y-7428550D01*
X10438000Y-7498550D01*
X10508000Y-7568550D01*
X13417000Y-7568550D02*
X13487000Y-7498550D01*
X13417000Y-7428550D01*
X13347000Y-7498550D01*
X13417000Y-7568550D01*
X13925000Y-7568550D02*
X13995000Y-7498550D01*
X13925000Y-7428550D01*
X13855000Y-7498550D01*
X13925000Y-7568550D01*
X14433000Y-7568550D02*
X14503000Y-7498550D01*
X14433000Y-7428550D01*
X14363000Y-7498550D01*
X14433000Y-7568550D01*
X17345680Y-7570000D02*
X17415680Y-7500000D01*
X17345680Y-7430000D01*
X17275680Y-7500000D01*
X17345680Y-7570000D01*
X17853680Y-7570000D02*
X17923680Y-7500000D01*
X17853680Y-7430000D01*
X17783680Y-7500000D01*
X17853680Y-7570000D01*
X18361680Y-7570000D02*
X18431680Y-7500000D01*
X18361680Y-7430000D01*
X18291680Y-7500000D01*
X18361680Y-7570000D01*
D11*
X9242619Y-11367524D02*
X9242619Y-11167524D01*
X9242619Y-11167524D02*
X9290238Y-11167524D01*
X9290238Y-11167524D02*
X9318810Y-11177048D01*
X9318810Y-11177048D02*
X9337857Y-11196095D01*
X9337857Y-11196095D02*
X9347381Y-11215143D01*
X9347381Y-11215143D02*
X9356905Y-11253238D01*
X9356905Y-11253238D02*
X9356905Y-11281809D01*
X9356905Y-11281809D02*
X9347381Y-11319905D01*
X9347381Y-11319905D02*
X9337857Y-11338952D01*
X9337857Y-11338952D02*
X9318810Y-11358000D01*
X9318810Y-11358000D02*
X9290238Y-11367524D01*
X9290238Y-11367524D02*
X9242619Y-11367524D01*
X9442619Y-11367524D02*
X9442619Y-11234190D01*
X9442619Y-11272286D02*
X9452143Y-11253238D01*
X9452143Y-11253238D02*
X9461667Y-11243714D01*
X9461667Y-11243714D02*
X9480714Y-11234190D01*
X9480714Y-11234190D02*
X9499762Y-11234190D01*
X9566429Y-11367524D02*
X9566429Y-11234190D01*
X9566429Y-11167524D02*
X9556905Y-11177048D01*
X9556905Y-11177048D02*
X9566429Y-11186571D01*
X9566429Y-11186571D02*
X9575952Y-11177048D01*
X9575952Y-11177048D02*
X9566429Y-11167524D01*
X9566429Y-11167524D02*
X9566429Y-11186571D01*
X9690238Y-11367524D02*
X9671190Y-11358000D01*
X9671190Y-11358000D02*
X9661667Y-11338952D01*
X9661667Y-11338952D02*
X9661667Y-11167524D01*
X9795000Y-11367524D02*
X9775952Y-11358000D01*
X9775952Y-11358000D02*
X9766429Y-11338952D01*
X9766429Y-11338952D02*
X9766429Y-11167524D01*
X10023571Y-11367524D02*
X10023571Y-11167524D01*
X10023571Y-11167524D02*
X10090238Y-11310381D01*
X10090238Y-11310381D02*
X10156905Y-11167524D01*
X10156905Y-11167524D02*
X10156905Y-11367524D01*
X10337857Y-11367524D02*
X10337857Y-11262762D01*
X10337857Y-11262762D02*
X10328333Y-11243714D01*
X10328333Y-11243714D02*
X10309286Y-11234190D01*
X10309286Y-11234190D02*
X10271190Y-11234190D01*
X10271190Y-11234190D02*
X10252143Y-11243714D01*
X10337857Y-11358000D02*
X10318810Y-11367524D01*
X10318810Y-11367524D02*
X10271190Y-11367524D01*
X10271190Y-11367524D02*
X10252143Y-11358000D01*
X10252143Y-11358000D02*
X10242619Y-11338952D01*
X10242619Y-11338952D02*
X10242619Y-11319905D01*
X10242619Y-11319905D02*
X10252143Y-11300857D01*
X10252143Y-11300857D02*
X10271190Y-11291333D01*
X10271190Y-11291333D02*
X10318810Y-11291333D01*
X10318810Y-11291333D02*
X10337857Y-11281809D01*
X10433095Y-11234190D02*
X10433095Y-11434190D01*
X10433095Y-11243714D02*
X10452143Y-11234190D01*
X10452143Y-11234190D02*
X10490238Y-11234190D01*
X10490238Y-11234190D02*
X10509286Y-11243714D01*
X10509286Y-11243714D02*
X10518810Y-11253238D01*
X10518810Y-11253238D02*
X10528333Y-11272286D01*
X10528333Y-11272286D02*
X10528333Y-11329428D01*
X10528333Y-11329428D02*
X10518810Y-11348476D01*
X10518810Y-11348476D02*
X10509286Y-11358000D01*
X10509286Y-11358000D02*
X10490238Y-11367524D01*
X10490238Y-11367524D02*
X10452143Y-11367524D01*
X10452143Y-11367524D02*
X10433095Y-11358000D01*
X10614048Y-11348476D02*
X10623571Y-11358000D01*
X10623571Y-11358000D02*
X10614048Y-11367524D01*
X10614048Y-11367524D02*
X10604524Y-11358000D01*
X10604524Y-11358000D02*
X10614048Y-11348476D01*
X10614048Y-11348476D02*
X10614048Y-11367524D01*
X10614048Y-11243714D02*
X10623571Y-11253238D01*
X10623571Y-11253238D02*
X10614048Y-11262762D01*
X10614048Y-11262762D02*
X10604524Y-11253238D01*
X10604524Y-11253238D02*
X10614048Y-11243714D01*
X10614048Y-11243714D02*
X10614048Y-11262762D01*
D12*
X8955000Y-11675000D02*
X8995000Y-11715000D01*
X8995000Y-11675000D02*
X8955000Y-11715000D01*
D11*
X9280714Y-11587524D02*
X9299762Y-11587524D01*
X9299762Y-11587524D02*
X9318810Y-11597048D01*
X9318810Y-11597048D02*
X9328333Y-11606571D01*
X9328333Y-11606571D02*
X9337857Y-11625619D01*
X9337857Y-11625619D02*
X9347381Y-11663714D01*
X9347381Y-11663714D02*
X9347381Y-11711333D01*
X9347381Y-11711333D02*
X9337857Y-11749428D01*
X9337857Y-11749428D02*
X9328333Y-11768476D01*
X9328333Y-11768476D02*
X9318810Y-11778000D01*
X9318810Y-11778000D02*
X9299762Y-11787524D01*
X9299762Y-11787524D02*
X9280714Y-11787524D01*
X9280714Y-11787524D02*
X9261667Y-11778000D01*
X9261667Y-11778000D02*
X9252143Y-11768476D01*
X9252143Y-11768476D02*
X9242619Y-11749428D01*
X9242619Y-11749428D02*
X9233095Y-11711333D01*
X9233095Y-11711333D02*
X9233095Y-11663714D01*
X9233095Y-11663714D02*
X9242619Y-11625619D01*
X9242619Y-11625619D02*
X9252143Y-11606571D01*
X9252143Y-11606571D02*
X9261667Y-11597048D01*
X9261667Y-11597048D02*
X9280714Y-11587524D01*
X9433095Y-11768476D02*
X9442619Y-11778000D01*
X9442619Y-11778000D02*
X9433095Y-11787524D01*
X9433095Y-11787524D02*
X9423571Y-11778000D01*
X9423571Y-11778000D02*
X9433095Y-11768476D01*
X9433095Y-11768476D02*
X9433095Y-11787524D01*
X9614048Y-11654190D02*
X9614048Y-11787524D01*
X9566429Y-11578000D02*
X9518810Y-11720857D01*
X9518810Y-11720857D02*
X9642619Y-11720857D01*
X9756905Y-11587524D02*
X9775952Y-11587524D01*
X9775952Y-11587524D02*
X9795000Y-11597048D01*
X9795000Y-11597048D02*
X9804524Y-11606571D01*
X9804524Y-11606571D02*
X9814048Y-11625619D01*
X9814048Y-11625619D02*
X9823571Y-11663714D01*
X9823571Y-11663714D02*
X9823571Y-11711333D01*
X9823571Y-11711333D02*
X9814048Y-11749428D01*
X9814048Y-11749428D02*
X9804524Y-11768476D01*
X9804524Y-11768476D02*
X9795000Y-11778000D01*
X9795000Y-11778000D02*
X9775952Y-11787524D01*
X9775952Y-11787524D02*
X9756905Y-11787524D01*
X9756905Y-11787524D02*
X9737857Y-11778000D01*
X9737857Y-11778000D02*
X9728333Y-11768476D01*
X9728333Y-11768476D02*
X9718810Y-11749428D01*
X9718810Y-11749428D02*
X9709286Y-11711333D01*
X9709286Y-11711333D02*
X9709286Y-11663714D01*
X9709286Y-11663714D02*
X9718810Y-11625619D01*
X9718810Y-11625619D02*
X9728333Y-11606571D01*
X9728333Y-11606571D02*
X9737857Y-11597048D01*
X9737857Y-11597048D02*
X9756905Y-11587524D01*
X9947381Y-11587524D02*
X9966429Y-11587524D01*
X9966429Y-11587524D02*
X9985476Y-11597048D01*
X9985476Y-11597048D02*
X9995000Y-11606571D01*
X9995000Y-11606571D02*
X10004524Y-11625619D01*
X10004524Y-11625619D02*
X10014048Y-11663714D01*
X10014048Y-11663714D02*
X10014048Y-11711333D01*
X10014048Y-11711333D02*
X10004524Y-11749428D01*
X10004524Y-11749428D02*
X9995000Y-11768476D01*
X9995000Y-11768476D02*
X9985476Y-11778000D01*
X9985476Y-11778000D02*
X9966429Y-11787524D01*
X9966429Y-11787524D02*
X9947381Y-11787524D01*
X9947381Y-11787524D02*
X9928333Y-11778000D01*
X9928333Y-11778000D02*
X9918810Y-11768476D01*
X9918810Y-11768476D02*
X9909286Y-11749428D01*
X9909286Y-11749428D02*
X9899762Y-11711333D01*
X9899762Y-11711333D02*
X9899762Y-11663714D01*
X9899762Y-11663714D02*
X9909286Y-11625619D01*
X9909286Y-11625619D02*
X9918810Y-11606571D01*
X9918810Y-11606571D02*
X9928333Y-11597048D01*
X9928333Y-11597048D02*
X9947381Y-11587524D01*
X10099762Y-11787524D02*
X10099762Y-11654190D01*
X10099762Y-11673238D02*
X10109286Y-11663714D01*
X10109286Y-11663714D02*
X10128333Y-11654190D01*
X10128333Y-11654190D02*
X10156905Y-11654190D01*
X10156905Y-11654190D02*
X10175952Y-11663714D01*
X10175952Y-11663714D02*
X10185476Y-11682762D01*
X10185476Y-11682762D02*
X10185476Y-11787524D01*
X10185476Y-11682762D02*
X10195000Y-11663714D01*
X10195000Y-11663714D02*
X10214048Y-11654190D01*
X10214048Y-11654190D02*
X10242619Y-11654190D01*
X10242619Y-11654190D02*
X10261667Y-11663714D01*
X10261667Y-11663714D02*
X10271191Y-11682762D01*
X10271191Y-11682762D02*
X10271191Y-11787524D01*
X10366429Y-11787524D02*
X10366429Y-11654190D01*
X10366429Y-11673238D02*
X10375952Y-11663714D01*
X10375952Y-11663714D02*
X10395000Y-11654190D01*
X10395000Y-11654190D02*
X10423572Y-11654190D01*
X10423572Y-11654190D02*
X10442619Y-11663714D01*
X10442619Y-11663714D02*
X10452143Y-11682762D01*
X10452143Y-11682762D02*
X10452143Y-11787524D01*
X10452143Y-11682762D02*
X10461667Y-11663714D01*
X10461667Y-11663714D02*
X10480714Y-11654190D01*
X10480714Y-11654190D02*
X10509286Y-11654190D01*
X10509286Y-11654190D02*
X10528333Y-11663714D01*
X10528333Y-11663714D02*
X10537857Y-11682762D01*
X10537857Y-11682762D02*
X10537857Y-11787524D01*
X10928333Y-11578000D02*
X10756905Y-11835143D01*
X11185476Y-11587524D02*
X11204524Y-11587524D01*
X11204524Y-11587524D02*
X11223572Y-11597048D01*
X11223572Y-11597048D02*
X11233095Y-11606571D01*
X11233095Y-11606571D02*
X11242619Y-11625619D01*
X11242619Y-11625619D02*
X11252143Y-11663714D01*
X11252143Y-11663714D02*
X11252143Y-11711333D01*
X11252143Y-11711333D02*
X11242619Y-11749428D01*
X11242619Y-11749428D02*
X11233095Y-11768476D01*
X11233095Y-11768476D02*
X11223572Y-11778000D01*
X11223572Y-11778000D02*
X11204524Y-11787524D01*
X11204524Y-11787524D02*
X11185476Y-11787524D01*
X11185476Y-11787524D02*
X11166429Y-11778000D01*
X11166429Y-11778000D02*
X11156905Y-11768476D01*
X11156905Y-11768476D02*
X11147381Y-11749428D01*
X11147381Y-11749428D02*
X11137857Y-11711333D01*
X11137857Y-11711333D02*
X11137857Y-11663714D01*
X11137857Y-11663714D02*
X11147381Y-11625619D01*
X11147381Y-11625619D02*
X11156905Y-11606571D01*
X11156905Y-11606571D02*
X11166429Y-11597048D01*
X11166429Y-11597048D02*
X11185476Y-11587524D01*
X11337857Y-11768476D02*
X11347381Y-11778000D01*
X11347381Y-11778000D02*
X11337857Y-11787524D01*
X11337857Y-11787524D02*
X11328333Y-11778000D01*
X11328333Y-11778000D02*
X11337857Y-11768476D01*
X11337857Y-11768476D02*
X11337857Y-11787524D01*
X11471191Y-11587524D02*
X11490238Y-11587524D01*
X11490238Y-11587524D02*
X11509286Y-11597048D01*
X11509286Y-11597048D02*
X11518810Y-11606571D01*
X11518810Y-11606571D02*
X11528333Y-11625619D01*
X11528333Y-11625619D02*
X11537857Y-11663714D01*
X11537857Y-11663714D02*
X11537857Y-11711333D01*
X11537857Y-11711333D02*
X11528333Y-11749428D01*
X11528333Y-11749428D02*
X11518810Y-11768476D01*
X11518810Y-11768476D02*
X11509286Y-11778000D01*
X11509286Y-11778000D02*
X11490238Y-11787524D01*
X11490238Y-11787524D02*
X11471191Y-11787524D01*
X11471191Y-11787524D02*
X11452143Y-11778000D01*
X11452143Y-11778000D02*
X11442619Y-11768476D01*
X11442619Y-11768476D02*
X11433095Y-11749428D01*
X11433095Y-11749428D02*
X11423572Y-11711333D01*
X11423572Y-11711333D02*
X11423572Y-11663714D01*
X11423572Y-11663714D02*
X11433095Y-11625619D01*
X11433095Y-11625619D02*
X11442619Y-11606571D01*
X11442619Y-11606571D02*
X11452143Y-11597048D01*
X11452143Y-11597048D02*
X11471191Y-11587524D01*
X11728333Y-11787524D02*
X11614048Y-11787524D01*
X11671191Y-11787524D02*
X11671191Y-11587524D01*
X11671191Y-11587524D02*
X11652143Y-11616095D01*
X11652143Y-11616095D02*
X11633095Y-11635143D01*
X11633095Y-11635143D02*
X11614048Y-11644667D01*
X11909286Y-11587524D02*
X11814048Y-11587524D01*
X11814048Y-11587524D02*
X11804524Y-11682762D01*
X11804524Y-11682762D02*
X11814048Y-11673238D01*
X11814048Y-11673238D02*
X11833095Y-11663714D01*
X11833095Y-11663714D02*
X11880714Y-11663714D01*
X11880714Y-11663714D02*
X11899762Y-11673238D01*
X11899762Y-11673238D02*
X11909286Y-11682762D01*
X11909286Y-11682762D02*
X11918810Y-11701809D01*
X11918810Y-11701809D02*
X11918810Y-11749428D01*
X11918810Y-11749428D02*
X11909286Y-11768476D01*
X11909286Y-11768476D02*
X11899762Y-11778000D01*
X11899762Y-11778000D02*
X11880714Y-11787524D01*
X11880714Y-11787524D02*
X11833095Y-11787524D01*
X11833095Y-11787524D02*
X11814048Y-11778000D01*
X11814048Y-11778000D02*
X11804524Y-11768476D01*
X11985476Y-11587524D02*
X12118810Y-11587524D01*
X12118810Y-11587524D02*
X12033095Y-11787524D01*
X12185476Y-11587524D02*
X12185476Y-11625619D01*
X12261667Y-11587524D02*
X12261667Y-11625619D01*
X12556905Y-11863714D02*
X12547381Y-11854190D01*
X12547381Y-11854190D02*
X12528334Y-11825619D01*
X12528334Y-11825619D02*
X12518810Y-11806571D01*
X12518810Y-11806571D02*
X12509286Y-11778000D01*
X12509286Y-11778000D02*
X12499762Y-11730381D01*
X12499762Y-11730381D02*
X12499762Y-11692286D01*
X12499762Y-11692286D02*
X12509286Y-11644667D01*
X12509286Y-11644667D02*
X12518810Y-11616095D01*
X12518810Y-11616095D02*
X12528334Y-11597048D01*
X12528334Y-11597048D02*
X12547381Y-11568476D01*
X12547381Y-11568476D02*
X12556905Y-11558952D01*
X12614048Y-11587524D02*
X12737857Y-11587524D01*
X12737857Y-11587524D02*
X12671191Y-11663714D01*
X12671191Y-11663714D02*
X12699762Y-11663714D01*
X12699762Y-11663714D02*
X12718810Y-11673238D01*
X12718810Y-11673238D02*
X12728334Y-11682762D01*
X12728334Y-11682762D02*
X12737857Y-11701809D01*
X12737857Y-11701809D02*
X12737857Y-11749428D01*
X12737857Y-11749428D02*
X12728334Y-11768476D01*
X12728334Y-11768476D02*
X12718810Y-11778000D01*
X12718810Y-11778000D02*
X12699762Y-11787524D01*
X12699762Y-11787524D02*
X12642619Y-11787524D01*
X12642619Y-11787524D02*
X12623572Y-11778000D01*
X12623572Y-11778000D02*
X12614048Y-11768476D01*
X12861667Y-11587524D02*
X12880715Y-11587524D01*
X12880715Y-11587524D02*
X12899762Y-11597048D01*
X12899762Y-11597048D02*
X12909286Y-11606571D01*
X12909286Y-11606571D02*
X12918810Y-11625619D01*
X12918810Y-11625619D02*
X12928334Y-11663714D01*
X12928334Y-11663714D02*
X12928334Y-11711333D01*
X12928334Y-11711333D02*
X12918810Y-11749428D01*
X12918810Y-11749428D02*
X12909286Y-11768476D01*
X12909286Y-11768476D02*
X12899762Y-11778000D01*
X12899762Y-11778000D02*
X12880715Y-11787524D01*
X12880715Y-11787524D02*
X12861667Y-11787524D01*
X12861667Y-11787524D02*
X12842619Y-11778000D01*
X12842619Y-11778000D02*
X12833095Y-11768476D01*
X12833095Y-11768476D02*
X12823572Y-11749428D01*
X12823572Y-11749428D02*
X12814048Y-11711333D01*
X12814048Y-11711333D02*
X12814048Y-11663714D01*
X12814048Y-11663714D02*
X12823572Y-11625619D01*
X12823572Y-11625619D02*
X12833095Y-11606571D01*
X12833095Y-11606571D02*
X12842619Y-11597048D01*
X12842619Y-11597048D02*
X12861667Y-11587524D01*
X13166429Y-11787524D02*
X13166429Y-11587524D01*
X13252143Y-11787524D02*
X13252143Y-11682762D01*
X13252143Y-11682762D02*
X13242619Y-11663714D01*
X13242619Y-11663714D02*
X13223572Y-11654190D01*
X13223572Y-11654190D02*
X13195000Y-11654190D01*
X13195000Y-11654190D02*
X13175953Y-11663714D01*
X13175953Y-11663714D02*
X13166429Y-11673238D01*
X13375953Y-11787524D02*
X13356905Y-11778000D01*
X13356905Y-11778000D02*
X13347381Y-11768476D01*
X13347381Y-11768476D02*
X13337857Y-11749428D01*
X13337857Y-11749428D02*
X13337857Y-11692286D01*
X13337857Y-11692286D02*
X13347381Y-11673238D01*
X13347381Y-11673238D02*
X13356905Y-11663714D01*
X13356905Y-11663714D02*
X13375953Y-11654190D01*
X13375953Y-11654190D02*
X13404524Y-11654190D01*
X13404524Y-11654190D02*
X13423572Y-11663714D01*
X13423572Y-11663714D02*
X13433096Y-11673238D01*
X13433096Y-11673238D02*
X13442619Y-11692286D01*
X13442619Y-11692286D02*
X13442619Y-11749428D01*
X13442619Y-11749428D02*
X13433096Y-11768476D01*
X13433096Y-11768476D02*
X13423572Y-11778000D01*
X13423572Y-11778000D02*
X13404524Y-11787524D01*
X13404524Y-11787524D02*
X13375953Y-11787524D01*
X13556905Y-11787524D02*
X13537857Y-11778000D01*
X13537857Y-11778000D02*
X13528334Y-11758952D01*
X13528334Y-11758952D02*
X13528334Y-11587524D01*
X13709286Y-11778000D02*
X13690238Y-11787524D01*
X13690238Y-11787524D02*
X13652143Y-11787524D01*
X13652143Y-11787524D02*
X13633096Y-11778000D01*
X13633096Y-11778000D02*
X13623572Y-11758952D01*
X13623572Y-11758952D02*
X13623572Y-11682762D01*
X13623572Y-11682762D02*
X13633096Y-11663714D01*
X13633096Y-11663714D02*
X13652143Y-11654190D01*
X13652143Y-11654190D02*
X13690238Y-11654190D01*
X13690238Y-11654190D02*
X13709286Y-11663714D01*
X13709286Y-11663714D02*
X13718810Y-11682762D01*
X13718810Y-11682762D02*
X13718810Y-11701809D01*
X13718810Y-11701809D02*
X13623572Y-11720857D01*
X13795000Y-11778000D02*
X13814048Y-11787524D01*
X13814048Y-11787524D02*
X13852143Y-11787524D01*
X13852143Y-11787524D02*
X13871191Y-11778000D01*
X13871191Y-11778000D02*
X13880715Y-11758952D01*
X13880715Y-11758952D02*
X13880715Y-11749428D01*
X13880715Y-11749428D02*
X13871191Y-11730381D01*
X13871191Y-11730381D02*
X13852143Y-11720857D01*
X13852143Y-11720857D02*
X13823572Y-11720857D01*
X13823572Y-11720857D02*
X13804524Y-11711333D01*
X13804524Y-11711333D02*
X13795000Y-11692286D01*
X13795000Y-11692286D02*
X13795000Y-11682762D01*
X13795000Y-11682762D02*
X13804524Y-11663714D01*
X13804524Y-11663714D02*
X13823572Y-11654190D01*
X13823572Y-11654190D02*
X13852143Y-11654190D01*
X13852143Y-11654190D02*
X13871191Y-11663714D01*
X13947381Y-11863714D02*
X13956905Y-11854190D01*
X13956905Y-11854190D02*
X13975953Y-11825619D01*
X13975953Y-11825619D02*
X13985477Y-11806571D01*
X13985477Y-11806571D02*
X13995000Y-11778000D01*
X13995000Y-11778000D02*
X14004524Y-11730381D01*
X14004524Y-11730381D02*
X14004524Y-11692286D01*
X14004524Y-11692286D02*
X13995000Y-11644667D01*
X13995000Y-11644667D02*
X13985477Y-11616095D01*
X13985477Y-11616095D02*
X13975953Y-11597048D01*
X13975953Y-11597048D02*
X13956905Y-11568476D01*
X13956905Y-11568476D02*
X13947381Y-11558952D01*
D13*
X8995000Y-11959000D02*
G75*
G03*
X8995000Y-11959000I-37000J0D01*
G01*
D11*
X9280714Y-11851524D02*
X9299762Y-11851524D01*
X9299762Y-11851524D02*
X9318810Y-11861048D01*
X9318810Y-11861048D02*
X9328333Y-11870571D01*
X9328333Y-11870571D02*
X9337857Y-11889619D01*
X9337857Y-11889619D02*
X9347381Y-11927714D01*
X9347381Y-11927714D02*
X9347381Y-11975333D01*
X9347381Y-11975333D02*
X9337857Y-12013428D01*
X9337857Y-12013428D02*
X9328333Y-12032476D01*
X9328333Y-12032476D02*
X9318810Y-12042000D01*
X9318810Y-12042000D02*
X9299762Y-12051524D01*
X9299762Y-12051524D02*
X9280714Y-12051524D01*
X9280714Y-12051524D02*
X9261667Y-12042000D01*
X9261667Y-12042000D02*
X9252143Y-12032476D01*
X9252143Y-12032476D02*
X9242619Y-12013428D01*
X9242619Y-12013428D02*
X9233095Y-11975333D01*
X9233095Y-11975333D02*
X9233095Y-11927714D01*
X9233095Y-11927714D02*
X9242619Y-11889619D01*
X9242619Y-11889619D02*
X9252143Y-11870571D01*
X9252143Y-11870571D02*
X9261667Y-11861048D01*
X9261667Y-11861048D02*
X9280714Y-11851524D01*
X9433095Y-12032476D02*
X9442619Y-12042000D01*
X9442619Y-12042000D02*
X9433095Y-12051524D01*
X9433095Y-12051524D02*
X9423571Y-12042000D01*
X9423571Y-12042000D02*
X9433095Y-12032476D01*
X9433095Y-12032476D02*
X9433095Y-12051524D01*
X9509286Y-11851524D02*
X9642619Y-11851524D01*
X9642619Y-11851524D02*
X9556905Y-12051524D01*
X9804524Y-11918190D02*
X9804524Y-12051524D01*
X9756905Y-11842000D02*
X9709286Y-11984857D01*
X9709286Y-11984857D02*
X9833095Y-11984857D01*
X9947381Y-11851524D02*
X9966429Y-11851524D01*
X9966429Y-11851524D02*
X9985476Y-11861048D01*
X9985476Y-11861048D02*
X9995000Y-11870571D01*
X9995000Y-11870571D02*
X10004524Y-11889619D01*
X10004524Y-11889619D02*
X10014048Y-11927714D01*
X10014048Y-11927714D02*
X10014048Y-11975333D01*
X10014048Y-11975333D02*
X10004524Y-12013428D01*
X10004524Y-12013428D02*
X9995000Y-12032476D01*
X9995000Y-12032476D02*
X9985476Y-12042000D01*
X9985476Y-12042000D02*
X9966429Y-12051524D01*
X9966429Y-12051524D02*
X9947381Y-12051524D01*
X9947381Y-12051524D02*
X9928333Y-12042000D01*
X9928333Y-12042000D02*
X9918810Y-12032476D01*
X9918810Y-12032476D02*
X9909286Y-12013428D01*
X9909286Y-12013428D02*
X9899762Y-11975333D01*
X9899762Y-11975333D02*
X9899762Y-11927714D01*
X9899762Y-11927714D02*
X9909286Y-11889619D01*
X9909286Y-11889619D02*
X9918810Y-11870571D01*
X9918810Y-11870571D02*
X9928333Y-11861048D01*
X9928333Y-11861048D02*
X9947381Y-11851524D01*
X10099762Y-12051524D02*
X10099762Y-11918190D01*
X10099762Y-11937238D02*
X10109286Y-11927714D01*
X10109286Y-11927714D02*
X10128333Y-11918190D01*
X10128333Y-11918190D02*
X10156905Y-11918190D01*
X10156905Y-11918190D02*
X10175952Y-11927714D01*
X10175952Y-11927714D02*
X10185476Y-11946762D01*
X10185476Y-11946762D02*
X10185476Y-12051524D01*
X10185476Y-11946762D02*
X10195000Y-11927714D01*
X10195000Y-11927714D02*
X10214048Y-11918190D01*
X10214048Y-11918190D02*
X10242619Y-11918190D01*
X10242619Y-11918190D02*
X10261667Y-11927714D01*
X10261667Y-11927714D02*
X10271191Y-11946762D01*
X10271191Y-11946762D02*
X10271191Y-12051524D01*
X10366429Y-12051524D02*
X10366429Y-11918190D01*
X10366429Y-11937238D02*
X10375952Y-11927714D01*
X10375952Y-11927714D02*
X10395000Y-11918190D01*
X10395000Y-11918190D02*
X10423572Y-11918190D01*
X10423572Y-11918190D02*
X10442619Y-11927714D01*
X10442619Y-11927714D02*
X10452143Y-11946762D01*
X10452143Y-11946762D02*
X10452143Y-12051524D01*
X10452143Y-11946762D02*
X10461667Y-11927714D01*
X10461667Y-11927714D02*
X10480714Y-11918190D01*
X10480714Y-11918190D02*
X10509286Y-11918190D01*
X10509286Y-11918190D02*
X10528333Y-11927714D01*
X10528333Y-11927714D02*
X10537857Y-11946762D01*
X10537857Y-11946762D02*
X10537857Y-12051524D01*
X10928333Y-11842000D02*
X10756905Y-12099143D01*
X11185476Y-11851524D02*
X11204524Y-11851524D01*
X11204524Y-11851524D02*
X11223572Y-11861048D01*
X11223572Y-11861048D02*
X11233095Y-11870571D01*
X11233095Y-11870571D02*
X11242619Y-11889619D01*
X11242619Y-11889619D02*
X11252143Y-11927714D01*
X11252143Y-11927714D02*
X11252143Y-11975333D01*
X11252143Y-11975333D02*
X11242619Y-12013428D01*
X11242619Y-12013428D02*
X11233095Y-12032476D01*
X11233095Y-12032476D02*
X11223572Y-12042000D01*
X11223572Y-12042000D02*
X11204524Y-12051524D01*
X11204524Y-12051524D02*
X11185476Y-12051524D01*
X11185476Y-12051524D02*
X11166429Y-12042000D01*
X11166429Y-12042000D02*
X11156905Y-12032476D01*
X11156905Y-12032476D02*
X11147381Y-12013428D01*
X11147381Y-12013428D02*
X11137857Y-11975333D01*
X11137857Y-11975333D02*
X11137857Y-11927714D01*
X11137857Y-11927714D02*
X11147381Y-11889619D01*
X11147381Y-11889619D02*
X11156905Y-11870571D01*
X11156905Y-11870571D02*
X11166429Y-11861048D01*
X11166429Y-11861048D02*
X11185476Y-11851524D01*
X11337857Y-12032476D02*
X11347381Y-12042000D01*
X11347381Y-12042000D02*
X11337857Y-12051524D01*
X11337857Y-12051524D02*
X11328333Y-12042000D01*
X11328333Y-12042000D02*
X11337857Y-12032476D01*
X11337857Y-12032476D02*
X11337857Y-12051524D01*
X11471191Y-11851524D02*
X11490238Y-11851524D01*
X11490238Y-11851524D02*
X11509286Y-11861048D01*
X11509286Y-11861048D02*
X11518810Y-11870571D01*
X11518810Y-11870571D02*
X11528333Y-11889619D01*
X11528333Y-11889619D02*
X11537857Y-11927714D01*
X11537857Y-11927714D02*
X11537857Y-11975333D01*
X11537857Y-11975333D02*
X11528333Y-12013428D01*
X11528333Y-12013428D02*
X11518810Y-12032476D01*
X11518810Y-12032476D02*
X11509286Y-12042000D01*
X11509286Y-12042000D02*
X11490238Y-12051524D01*
X11490238Y-12051524D02*
X11471191Y-12051524D01*
X11471191Y-12051524D02*
X11452143Y-12042000D01*
X11452143Y-12042000D02*
X11442619Y-12032476D01*
X11442619Y-12032476D02*
X11433095Y-12013428D01*
X11433095Y-12013428D02*
X11423572Y-11975333D01*
X11423572Y-11975333D02*
X11423572Y-11927714D01*
X11423572Y-11927714D02*
X11433095Y-11889619D01*
X11433095Y-11889619D02*
X11442619Y-11870571D01*
X11442619Y-11870571D02*
X11452143Y-11861048D01*
X11452143Y-11861048D02*
X11471191Y-11851524D01*
X11614048Y-11870571D02*
X11623572Y-11861048D01*
X11623572Y-11861048D02*
X11642619Y-11851524D01*
X11642619Y-11851524D02*
X11690238Y-11851524D01*
X11690238Y-11851524D02*
X11709286Y-11861048D01*
X11709286Y-11861048D02*
X11718810Y-11870571D01*
X11718810Y-11870571D02*
X11728333Y-11889619D01*
X11728333Y-11889619D02*
X11728333Y-11908667D01*
X11728333Y-11908667D02*
X11718810Y-11937238D01*
X11718810Y-11937238D02*
X11604524Y-12051524D01*
X11604524Y-12051524D02*
X11728333Y-12051524D01*
X11823572Y-12051524D02*
X11861667Y-12051524D01*
X11861667Y-12051524D02*
X11880714Y-12042000D01*
X11880714Y-12042000D02*
X11890238Y-12032476D01*
X11890238Y-12032476D02*
X11909286Y-12003905D01*
X11909286Y-12003905D02*
X11918810Y-11965809D01*
X11918810Y-11965809D02*
X11918810Y-11889619D01*
X11918810Y-11889619D02*
X11909286Y-11870571D01*
X11909286Y-11870571D02*
X11899762Y-11861048D01*
X11899762Y-11861048D02*
X11880714Y-11851524D01*
X11880714Y-11851524D02*
X11842619Y-11851524D01*
X11842619Y-11851524D02*
X11823572Y-11861048D01*
X11823572Y-11861048D02*
X11814048Y-11870571D01*
X11814048Y-11870571D02*
X11804524Y-11889619D01*
X11804524Y-11889619D02*
X11804524Y-11937238D01*
X11804524Y-11937238D02*
X11814048Y-11956286D01*
X11814048Y-11956286D02*
X11823572Y-11965809D01*
X11823572Y-11965809D02*
X11842619Y-11975333D01*
X11842619Y-11975333D02*
X11880714Y-11975333D01*
X11880714Y-11975333D02*
X11899762Y-11965809D01*
X11899762Y-11965809D02*
X11909286Y-11956286D01*
X11909286Y-11956286D02*
X11918810Y-11937238D01*
X12109286Y-12051524D02*
X11995000Y-12051524D01*
X12052143Y-12051524D02*
X12052143Y-11851524D01*
X12052143Y-11851524D02*
X12033095Y-11880095D01*
X12033095Y-11880095D02*
X12014048Y-11899143D01*
X12014048Y-11899143D02*
X11995000Y-11908667D01*
X12185476Y-11851524D02*
X12185476Y-11889619D01*
X12261667Y-11851524D02*
X12261667Y-11889619D01*
X12556905Y-12127714D02*
X12547381Y-12118190D01*
X12547381Y-12118190D02*
X12528334Y-12089619D01*
X12528334Y-12089619D02*
X12518810Y-12070571D01*
X12518810Y-12070571D02*
X12509286Y-12042000D01*
X12509286Y-12042000D02*
X12499762Y-11994381D01*
X12499762Y-11994381D02*
X12499762Y-11956286D01*
X12499762Y-11956286D02*
X12509286Y-11908667D01*
X12509286Y-11908667D02*
X12518810Y-11880095D01*
X12518810Y-11880095D02*
X12528334Y-11861048D01*
X12528334Y-11861048D02*
X12547381Y-11832476D01*
X12547381Y-11832476D02*
X12556905Y-11822952D01*
X12737857Y-12051524D02*
X12623572Y-12051524D01*
X12680714Y-12051524D02*
X12680714Y-11851524D01*
X12680714Y-11851524D02*
X12661667Y-11880095D01*
X12661667Y-11880095D02*
X12642619Y-11899143D01*
X12642619Y-11899143D02*
X12623572Y-11908667D01*
X12909286Y-11851524D02*
X12871191Y-11851524D01*
X12871191Y-11851524D02*
X12852143Y-11861048D01*
X12852143Y-11861048D02*
X12842619Y-11870571D01*
X12842619Y-11870571D02*
X12823572Y-11899143D01*
X12823572Y-11899143D02*
X12814048Y-11937238D01*
X12814048Y-11937238D02*
X12814048Y-12013428D01*
X12814048Y-12013428D02*
X12823572Y-12032476D01*
X12823572Y-12032476D02*
X12833095Y-12042000D01*
X12833095Y-12042000D02*
X12852143Y-12051524D01*
X12852143Y-12051524D02*
X12890238Y-12051524D01*
X12890238Y-12051524D02*
X12909286Y-12042000D01*
X12909286Y-12042000D02*
X12918810Y-12032476D01*
X12918810Y-12032476D02*
X12928334Y-12013428D01*
X12928334Y-12013428D02*
X12928334Y-11965809D01*
X12928334Y-11965809D02*
X12918810Y-11946762D01*
X12918810Y-11946762D02*
X12909286Y-11937238D01*
X12909286Y-11937238D02*
X12890238Y-11927714D01*
X12890238Y-11927714D02*
X12852143Y-11927714D01*
X12852143Y-11927714D02*
X12833095Y-11937238D01*
X12833095Y-11937238D02*
X12823572Y-11946762D01*
X12823572Y-11946762D02*
X12814048Y-11965809D01*
X13166429Y-12051524D02*
X13166429Y-11851524D01*
X13252143Y-12051524D02*
X13252143Y-11946762D01*
X13252143Y-11946762D02*
X13242619Y-11927714D01*
X13242619Y-11927714D02*
X13223572Y-11918190D01*
X13223572Y-11918190D02*
X13195000Y-11918190D01*
X13195000Y-11918190D02*
X13175953Y-11927714D01*
X13175953Y-11927714D02*
X13166429Y-11937238D01*
X13375953Y-12051524D02*
X13356905Y-12042000D01*
X13356905Y-12042000D02*
X13347381Y-12032476D01*
X13347381Y-12032476D02*
X13337857Y-12013428D01*
X13337857Y-12013428D02*
X13337857Y-11956286D01*
X13337857Y-11956286D02*
X13347381Y-11937238D01*
X13347381Y-11937238D02*
X13356905Y-11927714D01*
X13356905Y-11927714D02*
X13375953Y-11918190D01*
X13375953Y-11918190D02*
X13404524Y-11918190D01*
X13404524Y-11918190D02*
X13423572Y-11927714D01*
X13423572Y-11927714D02*
X13433096Y-11937238D01*
X13433096Y-11937238D02*
X13442619Y-11956286D01*
X13442619Y-11956286D02*
X13442619Y-12013428D01*
X13442619Y-12013428D02*
X13433096Y-12032476D01*
X13433096Y-12032476D02*
X13423572Y-12042000D01*
X13423572Y-12042000D02*
X13404524Y-12051524D01*
X13404524Y-12051524D02*
X13375953Y-12051524D01*
X13556905Y-12051524D02*
X13537857Y-12042000D01*
X13537857Y-12042000D02*
X13528334Y-12022952D01*
X13528334Y-12022952D02*
X13528334Y-11851524D01*
X13709286Y-12042000D02*
X13690238Y-12051524D01*
X13690238Y-12051524D02*
X13652143Y-12051524D01*
X13652143Y-12051524D02*
X13633096Y-12042000D01*
X13633096Y-12042000D02*
X13623572Y-12022952D01*
X13623572Y-12022952D02*
X13623572Y-11946762D01*
X13623572Y-11946762D02*
X13633096Y-11927714D01*
X13633096Y-11927714D02*
X13652143Y-11918190D01*
X13652143Y-11918190D02*
X13690238Y-11918190D01*
X13690238Y-11918190D02*
X13709286Y-11927714D01*
X13709286Y-11927714D02*
X13718810Y-11946762D01*
X13718810Y-11946762D02*
X13718810Y-11965809D01*
X13718810Y-11965809D02*
X13623572Y-11984857D01*
X13795000Y-12042000D02*
X13814048Y-12051524D01*
X13814048Y-12051524D02*
X13852143Y-12051524D01*
X13852143Y-12051524D02*
X13871191Y-12042000D01*
X13871191Y-12042000D02*
X13880715Y-12022952D01*
X13880715Y-12022952D02*
X13880715Y-12013428D01*
X13880715Y-12013428D02*
X13871191Y-11994381D01*
X13871191Y-11994381D02*
X13852143Y-11984857D01*
X13852143Y-11984857D02*
X13823572Y-11984857D01*
X13823572Y-11984857D02*
X13804524Y-11975333D01*
X13804524Y-11975333D02*
X13795000Y-11956286D01*
X13795000Y-11956286D02*
X13795000Y-11946762D01*
X13795000Y-11946762D02*
X13804524Y-11927714D01*
X13804524Y-11927714D02*
X13823572Y-11918190D01*
X13823572Y-11918190D02*
X13852143Y-11918190D01*
X13852143Y-11918190D02*
X13871191Y-11927714D01*
X13947381Y-12127714D02*
X13956905Y-12118190D01*
X13956905Y-12118190D02*
X13975953Y-12089619D01*
X13975953Y-12089619D02*
X13985477Y-12070571D01*
X13985477Y-12070571D02*
X13995000Y-12042000D01*
X13995000Y-12042000D02*
X14004524Y-11994381D01*
X14004524Y-11994381D02*
X14004524Y-11956286D01*
X14004524Y-11956286D02*
X13995000Y-11908667D01*
X13995000Y-11908667D02*
X13985477Y-11880095D01*
X13985477Y-11880095D02*
X13975953Y-11861048D01*
X13975953Y-11861048D02*
X13956905Y-11832476D01*
X13956905Y-11832476D02*
X13947381Y-11822952D01*
D14*
X8955000Y-12183000D02*
X8955000Y-12263000D01*
X8915000Y-12223000D02*
X8995000Y-12223000D01*
D11*
X9280714Y-12115524D02*
X9299762Y-12115524D01*
X9299762Y-12115524D02*
X9318810Y-12125048D01*
X9318810Y-12125048D02*
X9328333Y-12134571D01*
X9328333Y-12134571D02*
X9337857Y-12153619D01*
X9337857Y-12153619D02*
X9347381Y-12191714D01*
X9347381Y-12191714D02*
X9347381Y-12239333D01*
X9347381Y-12239333D02*
X9337857Y-12277428D01*
X9337857Y-12277428D02*
X9328333Y-12296476D01*
X9328333Y-12296476D02*
X9318810Y-12306000D01*
X9318810Y-12306000D02*
X9299762Y-12315524D01*
X9299762Y-12315524D02*
X9280714Y-12315524D01*
X9280714Y-12315524D02*
X9261667Y-12306000D01*
X9261667Y-12306000D02*
X9252143Y-12296476D01*
X9252143Y-12296476D02*
X9242619Y-12277428D01*
X9242619Y-12277428D02*
X9233095Y-12239333D01*
X9233095Y-12239333D02*
X9233095Y-12191714D01*
X9233095Y-12191714D02*
X9242619Y-12153619D01*
X9242619Y-12153619D02*
X9252143Y-12134571D01*
X9252143Y-12134571D02*
X9261667Y-12125048D01*
X9261667Y-12125048D02*
X9280714Y-12115524D01*
X9433095Y-12296476D02*
X9442619Y-12306000D01*
X9442619Y-12306000D02*
X9433095Y-12315524D01*
X9433095Y-12315524D02*
X9423571Y-12306000D01*
X9423571Y-12306000D02*
X9433095Y-12296476D01*
X9433095Y-12296476D02*
X9433095Y-12315524D01*
X9556905Y-12201238D02*
X9537857Y-12191714D01*
X9537857Y-12191714D02*
X9528333Y-12182190D01*
X9528333Y-12182190D02*
X9518810Y-12163143D01*
X9518810Y-12163143D02*
X9518810Y-12153619D01*
X9518810Y-12153619D02*
X9528333Y-12134571D01*
X9528333Y-12134571D02*
X9537857Y-12125048D01*
X9537857Y-12125048D02*
X9556905Y-12115524D01*
X9556905Y-12115524D02*
X9595000Y-12115524D01*
X9595000Y-12115524D02*
X9614048Y-12125048D01*
X9614048Y-12125048D02*
X9623571Y-12134571D01*
X9623571Y-12134571D02*
X9633095Y-12153619D01*
X9633095Y-12153619D02*
X9633095Y-12163143D01*
X9633095Y-12163143D02*
X9623571Y-12182190D01*
X9623571Y-12182190D02*
X9614048Y-12191714D01*
X9614048Y-12191714D02*
X9595000Y-12201238D01*
X9595000Y-12201238D02*
X9556905Y-12201238D01*
X9556905Y-12201238D02*
X9537857Y-12210762D01*
X9537857Y-12210762D02*
X9528333Y-12220286D01*
X9528333Y-12220286D02*
X9518810Y-12239333D01*
X9518810Y-12239333D02*
X9518810Y-12277428D01*
X9518810Y-12277428D02*
X9528333Y-12296476D01*
X9528333Y-12296476D02*
X9537857Y-12306000D01*
X9537857Y-12306000D02*
X9556905Y-12315524D01*
X9556905Y-12315524D02*
X9595000Y-12315524D01*
X9595000Y-12315524D02*
X9614048Y-12306000D01*
X9614048Y-12306000D02*
X9623571Y-12296476D01*
X9623571Y-12296476D02*
X9633095Y-12277428D01*
X9633095Y-12277428D02*
X9633095Y-12239333D01*
X9633095Y-12239333D02*
X9623571Y-12220286D01*
X9623571Y-12220286D02*
X9614048Y-12210762D01*
X9614048Y-12210762D02*
X9595000Y-12201238D01*
X9756905Y-12115524D02*
X9775952Y-12115524D01*
X9775952Y-12115524D02*
X9795000Y-12125048D01*
X9795000Y-12125048D02*
X9804524Y-12134571D01*
X9804524Y-12134571D02*
X9814048Y-12153619D01*
X9814048Y-12153619D02*
X9823571Y-12191714D01*
X9823571Y-12191714D02*
X9823571Y-12239333D01*
X9823571Y-12239333D02*
X9814048Y-12277428D01*
X9814048Y-12277428D02*
X9804524Y-12296476D01*
X9804524Y-12296476D02*
X9795000Y-12306000D01*
X9795000Y-12306000D02*
X9775952Y-12315524D01*
X9775952Y-12315524D02*
X9756905Y-12315524D01*
X9756905Y-12315524D02*
X9737857Y-12306000D01*
X9737857Y-12306000D02*
X9728333Y-12296476D01*
X9728333Y-12296476D02*
X9718810Y-12277428D01*
X9718810Y-12277428D02*
X9709286Y-12239333D01*
X9709286Y-12239333D02*
X9709286Y-12191714D01*
X9709286Y-12191714D02*
X9718810Y-12153619D01*
X9718810Y-12153619D02*
X9728333Y-12134571D01*
X9728333Y-12134571D02*
X9737857Y-12125048D01*
X9737857Y-12125048D02*
X9756905Y-12115524D01*
X9947381Y-12115524D02*
X9966429Y-12115524D01*
X9966429Y-12115524D02*
X9985476Y-12125048D01*
X9985476Y-12125048D02*
X9995000Y-12134571D01*
X9995000Y-12134571D02*
X10004524Y-12153619D01*
X10004524Y-12153619D02*
X10014048Y-12191714D01*
X10014048Y-12191714D02*
X10014048Y-12239333D01*
X10014048Y-12239333D02*
X10004524Y-12277428D01*
X10004524Y-12277428D02*
X9995000Y-12296476D01*
X9995000Y-12296476D02*
X9985476Y-12306000D01*
X9985476Y-12306000D02*
X9966429Y-12315524D01*
X9966429Y-12315524D02*
X9947381Y-12315524D01*
X9947381Y-12315524D02*
X9928333Y-12306000D01*
X9928333Y-12306000D02*
X9918810Y-12296476D01*
X9918810Y-12296476D02*
X9909286Y-12277428D01*
X9909286Y-12277428D02*
X9899762Y-12239333D01*
X9899762Y-12239333D02*
X9899762Y-12191714D01*
X9899762Y-12191714D02*
X9909286Y-12153619D01*
X9909286Y-12153619D02*
X9918810Y-12134571D01*
X9918810Y-12134571D02*
X9928333Y-12125048D01*
X9928333Y-12125048D02*
X9947381Y-12115524D01*
X10099762Y-12315524D02*
X10099762Y-12182190D01*
X10099762Y-12201238D02*
X10109286Y-12191714D01*
X10109286Y-12191714D02*
X10128333Y-12182190D01*
X10128333Y-12182190D02*
X10156905Y-12182190D01*
X10156905Y-12182190D02*
X10175952Y-12191714D01*
X10175952Y-12191714D02*
X10185476Y-12210762D01*
X10185476Y-12210762D02*
X10185476Y-12315524D01*
X10185476Y-12210762D02*
X10195000Y-12191714D01*
X10195000Y-12191714D02*
X10214048Y-12182190D01*
X10214048Y-12182190D02*
X10242619Y-12182190D01*
X10242619Y-12182190D02*
X10261667Y-12191714D01*
X10261667Y-12191714D02*
X10271191Y-12210762D01*
X10271191Y-12210762D02*
X10271191Y-12315524D01*
X10366429Y-12315524D02*
X10366429Y-12182190D01*
X10366429Y-12201238D02*
X10375952Y-12191714D01*
X10375952Y-12191714D02*
X10395000Y-12182190D01*
X10395000Y-12182190D02*
X10423572Y-12182190D01*
X10423572Y-12182190D02*
X10442619Y-12191714D01*
X10442619Y-12191714D02*
X10452143Y-12210762D01*
X10452143Y-12210762D02*
X10452143Y-12315524D01*
X10452143Y-12210762D02*
X10461667Y-12191714D01*
X10461667Y-12191714D02*
X10480714Y-12182190D01*
X10480714Y-12182190D02*
X10509286Y-12182190D01*
X10509286Y-12182190D02*
X10528333Y-12191714D01*
X10528333Y-12191714D02*
X10537857Y-12210762D01*
X10537857Y-12210762D02*
X10537857Y-12315524D01*
X10928333Y-12106000D02*
X10756905Y-12363143D01*
X11185476Y-12115524D02*
X11204524Y-12115524D01*
X11204524Y-12115524D02*
X11223572Y-12125048D01*
X11223572Y-12125048D02*
X11233095Y-12134571D01*
X11233095Y-12134571D02*
X11242619Y-12153619D01*
X11242619Y-12153619D02*
X11252143Y-12191714D01*
X11252143Y-12191714D02*
X11252143Y-12239333D01*
X11252143Y-12239333D02*
X11242619Y-12277428D01*
X11242619Y-12277428D02*
X11233095Y-12296476D01*
X11233095Y-12296476D02*
X11223572Y-12306000D01*
X11223572Y-12306000D02*
X11204524Y-12315524D01*
X11204524Y-12315524D02*
X11185476Y-12315524D01*
X11185476Y-12315524D02*
X11166429Y-12306000D01*
X11166429Y-12306000D02*
X11156905Y-12296476D01*
X11156905Y-12296476D02*
X11147381Y-12277428D01*
X11147381Y-12277428D02*
X11137857Y-12239333D01*
X11137857Y-12239333D02*
X11137857Y-12191714D01*
X11137857Y-12191714D02*
X11147381Y-12153619D01*
X11147381Y-12153619D02*
X11156905Y-12134571D01*
X11156905Y-12134571D02*
X11166429Y-12125048D01*
X11166429Y-12125048D02*
X11185476Y-12115524D01*
X11337857Y-12296476D02*
X11347381Y-12306000D01*
X11347381Y-12306000D02*
X11337857Y-12315524D01*
X11337857Y-12315524D02*
X11328333Y-12306000D01*
X11328333Y-12306000D02*
X11337857Y-12296476D01*
X11337857Y-12296476D02*
X11337857Y-12315524D01*
X11471191Y-12115524D02*
X11490238Y-12115524D01*
X11490238Y-12115524D02*
X11509286Y-12125048D01*
X11509286Y-12125048D02*
X11518810Y-12134571D01*
X11518810Y-12134571D02*
X11528333Y-12153619D01*
X11528333Y-12153619D02*
X11537857Y-12191714D01*
X11537857Y-12191714D02*
X11537857Y-12239333D01*
X11537857Y-12239333D02*
X11528333Y-12277428D01*
X11528333Y-12277428D02*
X11518810Y-12296476D01*
X11518810Y-12296476D02*
X11509286Y-12306000D01*
X11509286Y-12306000D02*
X11490238Y-12315524D01*
X11490238Y-12315524D02*
X11471191Y-12315524D01*
X11471191Y-12315524D02*
X11452143Y-12306000D01*
X11452143Y-12306000D02*
X11442619Y-12296476D01*
X11442619Y-12296476D02*
X11433095Y-12277428D01*
X11433095Y-12277428D02*
X11423572Y-12239333D01*
X11423572Y-12239333D02*
X11423572Y-12191714D01*
X11423572Y-12191714D02*
X11433095Y-12153619D01*
X11433095Y-12153619D02*
X11442619Y-12134571D01*
X11442619Y-12134571D02*
X11452143Y-12125048D01*
X11452143Y-12125048D02*
X11471191Y-12115524D01*
X11604524Y-12115524D02*
X11728333Y-12115524D01*
X11728333Y-12115524D02*
X11661667Y-12191714D01*
X11661667Y-12191714D02*
X11690238Y-12191714D01*
X11690238Y-12191714D02*
X11709286Y-12201238D01*
X11709286Y-12201238D02*
X11718810Y-12210762D01*
X11718810Y-12210762D02*
X11728333Y-12229809D01*
X11728333Y-12229809D02*
X11728333Y-12277428D01*
X11728333Y-12277428D02*
X11718810Y-12296476D01*
X11718810Y-12296476D02*
X11709286Y-12306000D01*
X11709286Y-12306000D02*
X11690238Y-12315524D01*
X11690238Y-12315524D02*
X11633095Y-12315524D01*
X11633095Y-12315524D02*
X11614048Y-12306000D01*
X11614048Y-12306000D02*
X11604524Y-12296476D01*
X11918810Y-12315524D02*
X11804524Y-12315524D01*
X11861667Y-12315524D02*
X11861667Y-12115524D01*
X11861667Y-12115524D02*
X11842619Y-12144095D01*
X11842619Y-12144095D02*
X11823572Y-12163143D01*
X11823572Y-12163143D02*
X11804524Y-12172667D01*
X12099762Y-12115524D02*
X12004524Y-12115524D01*
X12004524Y-12115524D02*
X11995000Y-12210762D01*
X11995000Y-12210762D02*
X12004524Y-12201238D01*
X12004524Y-12201238D02*
X12023572Y-12191714D01*
X12023572Y-12191714D02*
X12071191Y-12191714D01*
X12071191Y-12191714D02*
X12090238Y-12201238D01*
X12090238Y-12201238D02*
X12099762Y-12210762D01*
X12099762Y-12210762D02*
X12109286Y-12229809D01*
X12109286Y-12229809D02*
X12109286Y-12277428D01*
X12109286Y-12277428D02*
X12099762Y-12296476D01*
X12099762Y-12296476D02*
X12090238Y-12306000D01*
X12090238Y-12306000D02*
X12071191Y-12315524D01*
X12071191Y-12315524D02*
X12023572Y-12315524D01*
X12023572Y-12315524D02*
X12004524Y-12306000D01*
X12004524Y-12306000D02*
X11995000Y-12296476D01*
X12185476Y-12115524D02*
X12185476Y-12153619D01*
X12261667Y-12115524D02*
X12261667Y-12153619D01*
X12556905Y-12391714D02*
X12547381Y-12382190D01*
X12547381Y-12382190D02*
X12528334Y-12353619D01*
X12528334Y-12353619D02*
X12518810Y-12334571D01*
X12518810Y-12334571D02*
X12509286Y-12306000D01*
X12509286Y-12306000D02*
X12499762Y-12258381D01*
X12499762Y-12258381D02*
X12499762Y-12220286D01*
X12499762Y-12220286D02*
X12509286Y-12172667D01*
X12509286Y-12172667D02*
X12518810Y-12144095D01*
X12518810Y-12144095D02*
X12528334Y-12125048D01*
X12528334Y-12125048D02*
X12547381Y-12096476D01*
X12547381Y-12096476D02*
X12556905Y-12086952D01*
X12623572Y-12134571D02*
X12633095Y-12125048D01*
X12633095Y-12125048D02*
X12652143Y-12115524D01*
X12652143Y-12115524D02*
X12699762Y-12115524D01*
X12699762Y-12115524D02*
X12718810Y-12125048D01*
X12718810Y-12125048D02*
X12728334Y-12134571D01*
X12728334Y-12134571D02*
X12737857Y-12153619D01*
X12737857Y-12153619D02*
X12737857Y-12172667D01*
X12737857Y-12172667D02*
X12728334Y-12201238D01*
X12728334Y-12201238D02*
X12614048Y-12315524D01*
X12614048Y-12315524D02*
X12737857Y-12315524D01*
X12909286Y-12115524D02*
X12871191Y-12115524D01*
X12871191Y-12115524D02*
X12852143Y-12125048D01*
X12852143Y-12125048D02*
X12842619Y-12134571D01*
X12842619Y-12134571D02*
X12823572Y-12163143D01*
X12823572Y-12163143D02*
X12814048Y-12201238D01*
X12814048Y-12201238D02*
X12814048Y-12277428D01*
X12814048Y-12277428D02*
X12823572Y-12296476D01*
X12823572Y-12296476D02*
X12833095Y-12306000D01*
X12833095Y-12306000D02*
X12852143Y-12315524D01*
X12852143Y-12315524D02*
X12890238Y-12315524D01*
X12890238Y-12315524D02*
X12909286Y-12306000D01*
X12909286Y-12306000D02*
X12918810Y-12296476D01*
X12918810Y-12296476D02*
X12928334Y-12277428D01*
X12928334Y-12277428D02*
X12928334Y-12229809D01*
X12928334Y-12229809D02*
X12918810Y-12210762D01*
X12918810Y-12210762D02*
X12909286Y-12201238D01*
X12909286Y-12201238D02*
X12890238Y-12191714D01*
X12890238Y-12191714D02*
X12852143Y-12191714D01*
X12852143Y-12191714D02*
X12833095Y-12201238D01*
X12833095Y-12201238D02*
X12823572Y-12210762D01*
X12823572Y-12210762D02*
X12814048Y-12229809D01*
X13166429Y-12315524D02*
X13166429Y-12115524D01*
X13252143Y-12315524D02*
X13252143Y-12210762D01*
X13252143Y-12210762D02*
X13242619Y-12191714D01*
X13242619Y-12191714D02*
X13223572Y-12182190D01*
X13223572Y-12182190D02*
X13195000Y-12182190D01*
X13195000Y-12182190D02*
X13175953Y-12191714D01*
X13175953Y-12191714D02*
X13166429Y-12201238D01*
X13375953Y-12315524D02*
X13356905Y-12306000D01*
X13356905Y-12306000D02*
X13347381Y-12296476D01*
X13347381Y-12296476D02*
X13337857Y-12277428D01*
X13337857Y-12277428D02*
X13337857Y-12220286D01*
X13337857Y-12220286D02*
X13347381Y-12201238D01*
X13347381Y-12201238D02*
X13356905Y-12191714D01*
X13356905Y-12191714D02*
X13375953Y-12182190D01*
X13375953Y-12182190D02*
X13404524Y-12182190D01*
X13404524Y-12182190D02*
X13423572Y-12191714D01*
X13423572Y-12191714D02*
X13433096Y-12201238D01*
X13433096Y-12201238D02*
X13442619Y-12220286D01*
X13442619Y-12220286D02*
X13442619Y-12277428D01*
X13442619Y-12277428D02*
X13433096Y-12296476D01*
X13433096Y-12296476D02*
X13423572Y-12306000D01*
X13423572Y-12306000D02*
X13404524Y-12315524D01*
X13404524Y-12315524D02*
X13375953Y-12315524D01*
X13556905Y-12315524D02*
X13537857Y-12306000D01*
X13537857Y-12306000D02*
X13528334Y-12286952D01*
X13528334Y-12286952D02*
X13528334Y-12115524D01*
X13709286Y-12306000D02*
X13690238Y-12315524D01*
X13690238Y-12315524D02*
X13652143Y-12315524D01*
X13652143Y-12315524D02*
X13633096Y-12306000D01*
X13633096Y-12306000D02*
X13623572Y-12286952D01*
X13623572Y-12286952D02*
X13623572Y-12210762D01*
X13623572Y-12210762D02*
X13633096Y-12191714D01*
X13633096Y-12191714D02*
X13652143Y-12182190D01*
X13652143Y-12182190D02*
X13690238Y-12182190D01*
X13690238Y-12182190D02*
X13709286Y-12191714D01*
X13709286Y-12191714D02*
X13718810Y-12210762D01*
X13718810Y-12210762D02*
X13718810Y-12229809D01*
X13718810Y-12229809D02*
X13623572Y-12248857D01*
X13795000Y-12306000D02*
X13814048Y-12315524D01*
X13814048Y-12315524D02*
X13852143Y-12315524D01*
X13852143Y-12315524D02*
X13871191Y-12306000D01*
X13871191Y-12306000D02*
X13880715Y-12286952D01*
X13880715Y-12286952D02*
X13880715Y-12277428D01*
X13880715Y-12277428D02*
X13871191Y-12258381D01*
X13871191Y-12258381D02*
X13852143Y-12248857D01*
X13852143Y-12248857D02*
X13823572Y-12248857D01*
X13823572Y-12248857D02*
X13804524Y-12239333D01*
X13804524Y-12239333D02*
X13795000Y-12220286D01*
X13795000Y-12220286D02*
X13795000Y-12210762D01*
X13795000Y-12210762D02*
X13804524Y-12191714D01*
X13804524Y-12191714D02*
X13823572Y-12182190D01*
X13823572Y-12182190D02*
X13852143Y-12182190D01*
X13852143Y-12182190D02*
X13871191Y-12191714D01*
X13947381Y-12391714D02*
X13956905Y-12382190D01*
X13956905Y-12382190D02*
X13975953Y-12353619D01*
X13975953Y-12353619D02*
X13985477Y-12334571D01*
X13985477Y-12334571D02*
X13995000Y-12306000D01*
X13995000Y-12306000D02*
X14004524Y-12258381D01*
X14004524Y-12258381D02*
X14004524Y-12220286D01*
X14004524Y-12220286D02*
X13995000Y-12172667D01*
X13995000Y-12172667D02*
X13985477Y-12144095D01*
X13985477Y-12144095D02*
X13975953Y-12125048D01*
X13975953Y-12125048D02*
X13956905Y-12096476D01*
X13956905Y-12096476D02*
X13947381Y-12086952D01*
D10*
X8980356Y-12522356D02*
X8980356Y-12451644D01*
X8909644Y-12451644D01*
X8909644Y-12522356D01*
X8980356Y-12522356D01*
D11*
X9347381Y-12579524D02*
X9233095Y-12579524D01*
X9290238Y-12579524D02*
X9290238Y-12379524D01*
X9290238Y-12379524D02*
X9271190Y-12408095D01*
X9271190Y-12408095D02*
X9252143Y-12427143D01*
X9252143Y-12427143D02*
X9233095Y-12436667D01*
X9433095Y-12560476D02*
X9442619Y-12570000D01*
X9442619Y-12570000D02*
X9433095Y-12579524D01*
X9433095Y-12579524D02*
X9423571Y-12570000D01*
X9423571Y-12570000D02*
X9433095Y-12560476D01*
X9433095Y-12560476D02*
X9433095Y-12579524D01*
X9566429Y-12379524D02*
X9585476Y-12379524D01*
X9585476Y-12379524D02*
X9604524Y-12389048D01*
X9604524Y-12389048D02*
X9614048Y-12398571D01*
X9614048Y-12398571D02*
X9623571Y-12417619D01*
X9623571Y-12417619D02*
X9633095Y-12455714D01*
X9633095Y-12455714D02*
X9633095Y-12503333D01*
X9633095Y-12503333D02*
X9623571Y-12541428D01*
X9623571Y-12541428D02*
X9614048Y-12560476D01*
X9614048Y-12560476D02*
X9604524Y-12570000D01*
X9604524Y-12570000D02*
X9585476Y-12579524D01*
X9585476Y-12579524D02*
X9566429Y-12579524D01*
X9566429Y-12579524D02*
X9547381Y-12570000D01*
X9547381Y-12570000D02*
X9537857Y-12560476D01*
X9537857Y-12560476D02*
X9528333Y-12541428D01*
X9528333Y-12541428D02*
X9518810Y-12503333D01*
X9518810Y-12503333D02*
X9518810Y-12455714D01*
X9518810Y-12455714D02*
X9528333Y-12417619D01*
X9528333Y-12417619D02*
X9537857Y-12398571D01*
X9537857Y-12398571D02*
X9547381Y-12389048D01*
X9547381Y-12389048D02*
X9566429Y-12379524D01*
X9756905Y-12379524D02*
X9775952Y-12379524D01*
X9775952Y-12379524D02*
X9795000Y-12389048D01*
X9795000Y-12389048D02*
X9804524Y-12398571D01*
X9804524Y-12398571D02*
X9814048Y-12417619D01*
X9814048Y-12417619D02*
X9823571Y-12455714D01*
X9823571Y-12455714D02*
X9823571Y-12503333D01*
X9823571Y-12503333D02*
X9814048Y-12541428D01*
X9814048Y-12541428D02*
X9804524Y-12560476D01*
X9804524Y-12560476D02*
X9795000Y-12570000D01*
X9795000Y-12570000D02*
X9775952Y-12579524D01*
X9775952Y-12579524D02*
X9756905Y-12579524D01*
X9756905Y-12579524D02*
X9737857Y-12570000D01*
X9737857Y-12570000D02*
X9728333Y-12560476D01*
X9728333Y-12560476D02*
X9718810Y-12541428D01*
X9718810Y-12541428D02*
X9709286Y-12503333D01*
X9709286Y-12503333D02*
X9709286Y-12455714D01*
X9709286Y-12455714D02*
X9718810Y-12417619D01*
X9718810Y-12417619D02*
X9728333Y-12398571D01*
X9728333Y-12398571D02*
X9737857Y-12389048D01*
X9737857Y-12389048D02*
X9756905Y-12379524D01*
X9947381Y-12379524D02*
X9966429Y-12379524D01*
X9966429Y-12379524D02*
X9985476Y-12389048D01*
X9985476Y-12389048D02*
X9995000Y-12398571D01*
X9995000Y-12398571D02*
X10004524Y-12417619D01*
X10004524Y-12417619D02*
X10014048Y-12455714D01*
X10014048Y-12455714D02*
X10014048Y-12503333D01*
X10014048Y-12503333D02*
X10004524Y-12541428D01*
X10004524Y-12541428D02*
X9995000Y-12560476D01*
X9995000Y-12560476D02*
X9985476Y-12570000D01*
X9985476Y-12570000D02*
X9966429Y-12579524D01*
X9966429Y-12579524D02*
X9947381Y-12579524D01*
X9947381Y-12579524D02*
X9928333Y-12570000D01*
X9928333Y-12570000D02*
X9918810Y-12560476D01*
X9918810Y-12560476D02*
X9909286Y-12541428D01*
X9909286Y-12541428D02*
X9899762Y-12503333D01*
X9899762Y-12503333D02*
X9899762Y-12455714D01*
X9899762Y-12455714D02*
X9909286Y-12417619D01*
X9909286Y-12417619D02*
X9918810Y-12398571D01*
X9918810Y-12398571D02*
X9928333Y-12389048D01*
X9928333Y-12389048D02*
X9947381Y-12379524D01*
X10099762Y-12579524D02*
X10099762Y-12446190D01*
X10099762Y-12465238D02*
X10109286Y-12455714D01*
X10109286Y-12455714D02*
X10128333Y-12446190D01*
X10128333Y-12446190D02*
X10156905Y-12446190D01*
X10156905Y-12446190D02*
X10175952Y-12455714D01*
X10175952Y-12455714D02*
X10185476Y-12474762D01*
X10185476Y-12474762D02*
X10185476Y-12579524D01*
X10185476Y-12474762D02*
X10195000Y-12455714D01*
X10195000Y-12455714D02*
X10214048Y-12446190D01*
X10214048Y-12446190D02*
X10242619Y-12446190D01*
X10242619Y-12446190D02*
X10261667Y-12455714D01*
X10261667Y-12455714D02*
X10271191Y-12474762D01*
X10271191Y-12474762D02*
X10271191Y-12579524D01*
X10366429Y-12579524D02*
X10366429Y-12446190D01*
X10366429Y-12465238D02*
X10375952Y-12455714D01*
X10375952Y-12455714D02*
X10395000Y-12446190D01*
X10395000Y-12446190D02*
X10423572Y-12446190D01*
X10423572Y-12446190D02*
X10442619Y-12455714D01*
X10442619Y-12455714D02*
X10452143Y-12474762D01*
X10452143Y-12474762D02*
X10452143Y-12579524D01*
X10452143Y-12474762D02*
X10461667Y-12455714D01*
X10461667Y-12455714D02*
X10480714Y-12446190D01*
X10480714Y-12446190D02*
X10509286Y-12446190D01*
X10509286Y-12446190D02*
X10528333Y-12455714D01*
X10528333Y-12455714D02*
X10537857Y-12474762D01*
X10537857Y-12474762D02*
X10537857Y-12579524D01*
X10928333Y-12370000D02*
X10756905Y-12627143D01*
X11185476Y-12379524D02*
X11204524Y-12379524D01*
X11204524Y-12379524D02*
X11223572Y-12389048D01*
X11223572Y-12389048D02*
X11233095Y-12398571D01*
X11233095Y-12398571D02*
X11242619Y-12417619D01*
X11242619Y-12417619D02*
X11252143Y-12455714D01*
X11252143Y-12455714D02*
X11252143Y-12503333D01*
X11252143Y-12503333D02*
X11242619Y-12541428D01*
X11242619Y-12541428D02*
X11233095Y-12560476D01*
X11233095Y-12560476D02*
X11223572Y-12570000D01*
X11223572Y-12570000D02*
X11204524Y-12579524D01*
X11204524Y-12579524D02*
X11185476Y-12579524D01*
X11185476Y-12579524D02*
X11166429Y-12570000D01*
X11166429Y-12570000D02*
X11156905Y-12560476D01*
X11156905Y-12560476D02*
X11147381Y-12541428D01*
X11147381Y-12541428D02*
X11137857Y-12503333D01*
X11137857Y-12503333D02*
X11137857Y-12455714D01*
X11137857Y-12455714D02*
X11147381Y-12417619D01*
X11147381Y-12417619D02*
X11156905Y-12398571D01*
X11156905Y-12398571D02*
X11166429Y-12389048D01*
X11166429Y-12389048D02*
X11185476Y-12379524D01*
X11337857Y-12560476D02*
X11347381Y-12570000D01*
X11347381Y-12570000D02*
X11337857Y-12579524D01*
X11337857Y-12579524D02*
X11328333Y-12570000D01*
X11328333Y-12570000D02*
X11337857Y-12560476D01*
X11337857Y-12560476D02*
X11337857Y-12579524D01*
X11471191Y-12379524D02*
X11490238Y-12379524D01*
X11490238Y-12379524D02*
X11509286Y-12389048D01*
X11509286Y-12389048D02*
X11518810Y-12398571D01*
X11518810Y-12398571D02*
X11528333Y-12417619D01*
X11528333Y-12417619D02*
X11537857Y-12455714D01*
X11537857Y-12455714D02*
X11537857Y-12503333D01*
X11537857Y-12503333D02*
X11528333Y-12541428D01*
X11528333Y-12541428D02*
X11518810Y-12560476D01*
X11518810Y-12560476D02*
X11509286Y-12570000D01*
X11509286Y-12570000D02*
X11490238Y-12579524D01*
X11490238Y-12579524D02*
X11471191Y-12579524D01*
X11471191Y-12579524D02*
X11452143Y-12570000D01*
X11452143Y-12570000D02*
X11442619Y-12560476D01*
X11442619Y-12560476D02*
X11433095Y-12541428D01*
X11433095Y-12541428D02*
X11423572Y-12503333D01*
X11423572Y-12503333D02*
X11423572Y-12455714D01*
X11423572Y-12455714D02*
X11433095Y-12417619D01*
X11433095Y-12417619D02*
X11442619Y-12398571D01*
X11442619Y-12398571D02*
X11452143Y-12389048D01*
X11452143Y-12389048D02*
X11471191Y-12379524D01*
X11604524Y-12379524D02*
X11728333Y-12379524D01*
X11728333Y-12379524D02*
X11661667Y-12455714D01*
X11661667Y-12455714D02*
X11690238Y-12455714D01*
X11690238Y-12455714D02*
X11709286Y-12465238D01*
X11709286Y-12465238D02*
X11718810Y-12474762D01*
X11718810Y-12474762D02*
X11728333Y-12493809D01*
X11728333Y-12493809D02*
X11728333Y-12541428D01*
X11728333Y-12541428D02*
X11718810Y-12560476D01*
X11718810Y-12560476D02*
X11709286Y-12570000D01*
X11709286Y-12570000D02*
X11690238Y-12579524D01*
X11690238Y-12579524D02*
X11633095Y-12579524D01*
X11633095Y-12579524D02*
X11614048Y-12570000D01*
X11614048Y-12570000D02*
X11604524Y-12560476D01*
X11823572Y-12579524D02*
X11861667Y-12579524D01*
X11861667Y-12579524D02*
X11880714Y-12570000D01*
X11880714Y-12570000D02*
X11890238Y-12560476D01*
X11890238Y-12560476D02*
X11909286Y-12531905D01*
X11909286Y-12531905D02*
X11918810Y-12493809D01*
X11918810Y-12493809D02*
X11918810Y-12417619D01*
X11918810Y-12417619D02*
X11909286Y-12398571D01*
X11909286Y-12398571D02*
X11899762Y-12389048D01*
X11899762Y-12389048D02*
X11880714Y-12379524D01*
X11880714Y-12379524D02*
X11842619Y-12379524D01*
X11842619Y-12379524D02*
X11823572Y-12389048D01*
X11823572Y-12389048D02*
X11814048Y-12398571D01*
X11814048Y-12398571D02*
X11804524Y-12417619D01*
X11804524Y-12417619D02*
X11804524Y-12465238D01*
X11804524Y-12465238D02*
X11814048Y-12484286D01*
X11814048Y-12484286D02*
X11823572Y-12493809D01*
X11823572Y-12493809D02*
X11842619Y-12503333D01*
X11842619Y-12503333D02*
X11880714Y-12503333D01*
X11880714Y-12503333D02*
X11899762Y-12493809D01*
X11899762Y-12493809D02*
X11909286Y-12484286D01*
X11909286Y-12484286D02*
X11918810Y-12465238D01*
X12090238Y-12446190D02*
X12090238Y-12579524D01*
X12042619Y-12370000D02*
X11995000Y-12512857D01*
X11995000Y-12512857D02*
X12118810Y-12512857D01*
X12185476Y-12379524D02*
X12185476Y-12417619D01*
X12261667Y-12379524D02*
X12261667Y-12417619D01*
X12556905Y-12655714D02*
X12547381Y-12646190D01*
X12547381Y-12646190D02*
X12528334Y-12617619D01*
X12528334Y-12617619D02*
X12518810Y-12598571D01*
X12518810Y-12598571D02*
X12509286Y-12570000D01*
X12509286Y-12570000D02*
X12499762Y-12522381D01*
X12499762Y-12522381D02*
X12499762Y-12484286D01*
X12499762Y-12484286D02*
X12509286Y-12436667D01*
X12509286Y-12436667D02*
X12518810Y-12408095D01*
X12518810Y-12408095D02*
X12528334Y-12389048D01*
X12528334Y-12389048D02*
X12547381Y-12360476D01*
X12547381Y-12360476D02*
X12556905Y-12350952D01*
X12737857Y-12579524D02*
X12623572Y-12579524D01*
X12680714Y-12579524D02*
X12680714Y-12379524D01*
X12680714Y-12379524D02*
X12661667Y-12408095D01*
X12661667Y-12408095D02*
X12642619Y-12427143D01*
X12642619Y-12427143D02*
X12623572Y-12436667D01*
X12804524Y-12379524D02*
X12928334Y-12379524D01*
X12928334Y-12379524D02*
X12861667Y-12455714D01*
X12861667Y-12455714D02*
X12890238Y-12455714D01*
X12890238Y-12455714D02*
X12909286Y-12465238D01*
X12909286Y-12465238D02*
X12918810Y-12474762D01*
X12918810Y-12474762D02*
X12928334Y-12493809D01*
X12928334Y-12493809D02*
X12928334Y-12541428D01*
X12928334Y-12541428D02*
X12918810Y-12560476D01*
X12918810Y-12560476D02*
X12909286Y-12570000D01*
X12909286Y-12570000D02*
X12890238Y-12579524D01*
X12890238Y-12579524D02*
X12833095Y-12579524D01*
X12833095Y-12579524D02*
X12814048Y-12570000D01*
X12814048Y-12570000D02*
X12804524Y-12560476D01*
X13166429Y-12579524D02*
X13166429Y-12379524D01*
X13252143Y-12579524D02*
X13252143Y-12474762D01*
X13252143Y-12474762D02*
X13242619Y-12455714D01*
X13242619Y-12455714D02*
X13223572Y-12446190D01*
X13223572Y-12446190D02*
X13195000Y-12446190D01*
X13195000Y-12446190D02*
X13175953Y-12455714D01*
X13175953Y-12455714D02*
X13166429Y-12465238D01*
X13375953Y-12579524D02*
X13356905Y-12570000D01*
X13356905Y-12570000D02*
X13347381Y-12560476D01*
X13347381Y-12560476D02*
X13337857Y-12541428D01*
X13337857Y-12541428D02*
X13337857Y-12484286D01*
X13337857Y-12484286D02*
X13347381Y-12465238D01*
X13347381Y-12465238D02*
X13356905Y-12455714D01*
X13356905Y-12455714D02*
X13375953Y-12446190D01*
X13375953Y-12446190D02*
X13404524Y-12446190D01*
X13404524Y-12446190D02*
X13423572Y-12455714D01*
X13423572Y-12455714D02*
X13433096Y-12465238D01*
X13433096Y-12465238D02*
X13442619Y-12484286D01*
X13442619Y-12484286D02*
X13442619Y-12541428D01*
X13442619Y-12541428D02*
X13433096Y-12560476D01*
X13433096Y-12560476D02*
X13423572Y-12570000D01*
X13423572Y-12570000D02*
X13404524Y-12579524D01*
X13404524Y-12579524D02*
X13375953Y-12579524D01*
X13556905Y-12579524D02*
X13537857Y-12570000D01*
X13537857Y-12570000D02*
X13528334Y-12550952D01*
X13528334Y-12550952D02*
X13528334Y-12379524D01*
X13709286Y-12570000D02*
X13690238Y-12579524D01*
X13690238Y-12579524D02*
X13652143Y-12579524D01*
X13652143Y-12579524D02*
X13633096Y-12570000D01*
X13633096Y-12570000D02*
X13623572Y-12550952D01*
X13623572Y-12550952D02*
X13623572Y-12474762D01*
X13623572Y-12474762D02*
X13633096Y-12455714D01*
X13633096Y-12455714D02*
X13652143Y-12446190D01*
X13652143Y-12446190D02*
X13690238Y-12446190D01*
X13690238Y-12446190D02*
X13709286Y-12455714D01*
X13709286Y-12455714D02*
X13718810Y-12474762D01*
X13718810Y-12474762D02*
X13718810Y-12493809D01*
X13718810Y-12493809D02*
X13623572Y-12512857D01*
X13795000Y-12570000D02*
X13814048Y-12579524D01*
X13814048Y-12579524D02*
X13852143Y-12579524D01*
X13852143Y-12579524D02*
X13871191Y-12570000D01*
X13871191Y-12570000D02*
X13880715Y-12550952D01*
X13880715Y-12550952D02*
X13880715Y-12541428D01*
X13880715Y-12541428D02*
X13871191Y-12522381D01*
X13871191Y-12522381D02*
X13852143Y-12512857D01*
X13852143Y-12512857D02*
X13823572Y-12512857D01*
X13823572Y-12512857D02*
X13804524Y-12503333D01*
X13804524Y-12503333D02*
X13795000Y-12484286D01*
X13795000Y-12484286D02*
X13795000Y-12474762D01*
X13795000Y-12474762D02*
X13804524Y-12455714D01*
X13804524Y-12455714D02*
X13823572Y-12446190D01*
X13823572Y-12446190D02*
X13852143Y-12446190D01*
X13852143Y-12446190D02*
X13871191Y-12455714D01*
X13947381Y-12655714D02*
X13956905Y-12646190D01*
X13956905Y-12646190D02*
X13975953Y-12617619D01*
X13975953Y-12617619D02*
X13985477Y-12598571D01*
X13985477Y-12598571D02*
X13995000Y-12570000D01*
X13995000Y-12570000D02*
X14004524Y-12522381D01*
X14004524Y-12522381D02*
X14004524Y-12484286D01*
X14004524Y-12484286D02*
X13995000Y-12436667D01*
X13995000Y-12436667D02*
X13985477Y-12408095D01*
X13985477Y-12408095D02*
X13975953Y-12389048D01*
X13975953Y-12389048D02*
X13956905Y-12360476D01*
X13956905Y-12360476D02*
X13947381Y-12350952D01*
D15*
X8925000Y-12821000D02*
X8995000Y-12751000D01*
X8925000Y-12681000D01*
X8855000Y-12751000D01*
X8925000Y-12821000D01*
D11*
X9347381Y-12843524D02*
X9233095Y-12843524D01*
X9290238Y-12843524D02*
X9290238Y-12643524D01*
X9290238Y-12643524D02*
X9271190Y-12672095D01*
X9271190Y-12672095D02*
X9252143Y-12691143D01*
X9252143Y-12691143D02*
X9233095Y-12700667D01*
X9433095Y-12824476D02*
X9442619Y-12834000D01*
X9442619Y-12834000D02*
X9433095Y-12843524D01*
X9433095Y-12843524D02*
X9423571Y-12834000D01*
X9423571Y-12834000D02*
X9433095Y-12824476D01*
X9433095Y-12824476D02*
X9433095Y-12843524D01*
X9614048Y-12710190D02*
X9614048Y-12843524D01*
X9566429Y-12634000D02*
X9518810Y-12776857D01*
X9518810Y-12776857D02*
X9642619Y-12776857D01*
X9756905Y-12643524D02*
X9775952Y-12643524D01*
X9775952Y-12643524D02*
X9795000Y-12653048D01*
X9795000Y-12653048D02*
X9804524Y-12662571D01*
X9804524Y-12662571D02*
X9814048Y-12681619D01*
X9814048Y-12681619D02*
X9823571Y-12719714D01*
X9823571Y-12719714D02*
X9823571Y-12767333D01*
X9823571Y-12767333D02*
X9814048Y-12805428D01*
X9814048Y-12805428D02*
X9804524Y-12824476D01*
X9804524Y-12824476D02*
X9795000Y-12834000D01*
X9795000Y-12834000D02*
X9775952Y-12843524D01*
X9775952Y-12843524D02*
X9756905Y-12843524D01*
X9756905Y-12843524D02*
X9737857Y-12834000D01*
X9737857Y-12834000D02*
X9728333Y-12824476D01*
X9728333Y-12824476D02*
X9718810Y-12805428D01*
X9718810Y-12805428D02*
X9709286Y-12767333D01*
X9709286Y-12767333D02*
X9709286Y-12719714D01*
X9709286Y-12719714D02*
X9718810Y-12681619D01*
X9718810Y-12681619D02*
X9728333Y-12662571D01*
X9728333Y-12662571D02*
X9737857Y-12653048D01*
X9737857Y-12653048D02*
X9756905Y-12643524D01*
X9947381Y-12643524D02*
X9966429Y-12643524D01*
X9966429Y-12643524D02*
X9985476Y-12653048D01*
X9985476Y-12653048D02*
X9995000Y-12662571D01*
X9995000Y-12662571D02*
X10004524Y-12681619D01*
X10004524Y-12681619D02*
X10014048Y-12719714D01*
X10014048Y-12719714D02*
X10014048Y-12767333D01*
X10014048Y-12767333D02*
X10004524Y-12805428D01*
X10004524Y-12805428D02*
X9995000Y-12824476D01*
X9995000Y-12824476D02*
X9985476Y-12834000D01*
X9985476Y-12834000D02*
X9966429Y-12843524D01*
X9966429Y-12843524D02*
X9947381Y-12843524D01*
X9947381Y-12843524D02*
X9928333Y-12834000D01*
X9928333Y-12834000D02*
X9918810Y-12824476D01*
X9918810Y-12824476D02*
X9909286Y-12805428D01*
X9909286Y-12805428D02*
X9899762Y-12767333D01*
X9899762Y-12767333D02*
X9899762Y-12719714D01*
X9899762Y-12719714D02*
X9909286Y-12681619D01*
X9909286Y-12681619D02*
X9918810Y-12662571D01*
X9918810Y-12662571D02*
X9928333Y-12653048D01*
X9928333Y-12653048D02*
X9947381Y-12643524D01*
X10099762Y-12843524D02*
X10099762Y-12710190D01*
X10099762Y-12729238D02*
X10109286Y-12719714D01*
X10109286Y-12719714D02*
X10128333Y-12710190D01*
X10128333Y-12710190D02*
X10156905Y-12710190D01*
X10156905Y-12710190D02*
X10175952Y-12719714D01*
X10175952Y-12719714D02*
X10185476Y-12738762D01*
X10185476Y-12738762D02*
X10185476Y-12843524D01*
X10185476Y-12738762D02*
X10195000Y-12719714D01*
X10195000Y-12719714D02*
X10214048Y-12710190D01*
X10214048Y-12710190D02*
X10242619Y-12710190D01*
X10242619Y-12710190D02*
X10261667Y-12719714D01*
X10261667Y-12719714D02*
X10271191Y-12738762D01*
X10271191Y-12738762D02*
X10271191Y-12843524D01*
X10366429Y-12843524D02*
X10366429Y-12710190D01*
X10366429Y-12729238D02*
X10375952Y-12719714D01*
X10375952Y-12719714D02*
X10395000Y-12710190D01*
X10395000Y-12710190D02*
X10423572Y-12710190D01*
X10423572Y-12710190D02*
X10442619Y-12719714D01*
X10442619Y-12719714D02*
X10452143Y-12738762D01*
X10452143Y-12738762D02*
X10452143Y-12843524D01*
X10452143Y-12738762D02*
X10461667Y-12719714D01*
X10461667Y-12719714D02*
X10480714Y-12710190D01*
X10480714Y-12710190D02*
X10509286Y-12710190D01*
X10509286Y-12710190D02*
X10528333Y-12719714D01*
X10528333Y-12719714D02*
X10537857Y-12738762D01*
X10537857Y-12738762D02*
X10537857Y-12843524D01*
X10928333Y-12634000D02*
X10756905Y-12891143D01*
X11185476Y-12643524D02*
X11204524Y-12643524D01*
X11204524Y-12643524D02*
X11223572Y-12653048D01*
X11223572Y-12653048D02*
X11233095Y-12662571D01*
X11233095Y-12662571D02*
X11242619Y-12681619D01*
X11242619Y-12681619D02*
X11252143Y-12719714D01*
X11252143Y-12719714D02*
X11252143Y-12767333D01*
X11252143Y-12767333D02*
X11242619Y-12805428D01*
X11242619Y-12805428D02*
X11233095Y-12824476D01*
X11233095Y-12824476D02*
X11223572Y-12834000D01*
X11223572Y-12834000D02*
X11204524Y-12843524D01*
X11204524Y-12843524D02*
X11185476Y-12843524D01*
X11185476Y-12843524D02*
X11166429Y-12834000D01*
X11166429Y-12834000D02*
X11156905Y-12824476D01*
X11156905Y-12824476D02*
X11147381Y-12805428D01*
X11147381Y-12805428D02*
X11137857Y-12767333D01*
X11137857Y-12767333D02*
X11137857Y-12719714D01*
X11137857Y-12719714D02*
X11147381Y-12681619D01*
X11147381Y-12681619D02*
X11156905Y-12662571D01*
X11156905Y-12662571D02*
X11166429Y-12653048D01*
X11166429Y-12653048D02*
X11185476Y-12643524D01*
X11337857Y-12824476D02*
X11347381Y-12834000D01*
X11347381Y-12834000D02*
X11337857Y-12843524D01*
X11337857Y-12843524D02*
X11328333Y-12834000D01*
X11328333Y-12834000D02*
X11337857Y-12824476D01*
X11337857Y-12824476D02*
X11337857Y-12843524D01*
X11471191Y-12643524D02*
X11490238Y-12643524D01*
X11490238Y-12643524D02*
X11509286Y-12653048D01*
X11509286Y-12653048D02*
X11518810Y-12662571D01*
X11518810Y-12662571D02*
X11528333Y-12681619D01*
X11528333Y-12681619D02*
X11537857Y-12719714D01*
X11537857Y-12719714D02*
X11537857Y-12767333D01*
X11537857Y-12767333D02*
X11528333Y-12805428D01*
X11528333Y-12805428D02*
X11518810Y-12824476D01*
X11518810Y-12824476D02*
X11509286Y-12834000D01*
X11509286Y-12834000D02*
X11490238Y-12843524D01*
X11490238Y-12843524D02*
X11471191Y-12843524D01*
X11471191Y-12843524D02*
X11452143Y-12834000D01*
X11452143Y-12834000D02*
X11442619Y-12824476D01*
X11442619Y-12824476D02*
X11433095Y-12805428D01*
X11433095Y-12805428D02*
X11423572Y-12767333D01*
X11423572Y-12767333D02*
X11423572Y-12719714D01*
X11423572Y-12719714D02*
X11433095Y-12681619D01*
X11433095Y-12681619D02*
X11442619Y-12662571D01*
X11442619Y-12662571D02*
X11452143Y-12653048D01*
X11452143Y-12653048D02*
X11471191Y-12643524D01*
X11718810Y-12643524D02*
X11623572Y-12643524D01*
X11623572Y-12643524D02*
X11614048Y-12738762D01*
X11614048Y-12738762D02*
X11623572Y-12729238D01*
X11623572Y-12729238D02*
X11642619Y-12719714D01*
X11642619Y-12719714D02*
X11690238Y-12719714D01*
X11690238Y-12719714D02*
X11709286Y-12729238D01*
X11709286Y-12729238D02*
X11718810Y-12738762D01*
X11718810Y-12738762D02*
X11728333Y-12757809D01*
X11728333Y-12757809D02*
X11728333Y-12805428D01*
X11728333Y-12805428D02*
X11718810Y-12824476D01*
X11718810Y-12824476D02*
X11709286Y-12834000D01*
X11709286Y-12834000D02*
X11690238Y-12843524D01*
X11690238Y-12843524D02*
X11642619Y-12843524D01*
X11642619Y-12843524D02*
X11623572Y-12834000D01*
X11623572Y-12834000D02*
X11614048Y-12824476D01*
X11909286Y-12643524D02*
X11814048Y-12643524D01*
X11814048Y-12643524D02*
X11804524Y-12738762D01*
X11804524Y-12738762D02*
X11814048Y-12729238D01*
X11814048Y-12729238D02*
X11833095Y-12719714D01*
X11833095Y-12719714D02*
X11880714Y-12719714D01*
X11880714Y-12719714D02*
X11899762Y-12729238D01*
X11899762Y-12729238D02*
X11909286Y-12738762D01*
X11909286Y-12738762D02*
X11918810Y-12757809D01*
X11918810Y-12757809D02*
X11918810Y-12805428D01*
X11918810Y-12805428D02*
X11909286Y-12824476D01*
X11909286Y-12824476D02*
X11899762Y-12834000D01*
X11899762Y-12834000D02*
X11880714Y-12843524D01*
X11880714Y-12843524D02*
X11833095Y-12843524D01*
X11833095Y-12843524D02*
X11814048Y-12834000D01*
X11814048Y-12834000D02*
X11804524Y-12824476D01*
X12109286Y-12843524D02*
X11995000Y-12843524D01*
X12052143Y-12843524D02*
X12052143Y-12643524D01*
X12052143Y-12643524D02*
X12033095Y-12672095D01*
X12033095Y-12672095D02*
X12014048Y-12691143D01*
X12014048Y-12691143D02*
X11995000Y-12700667D01*
X12185476Y-12643524D02*
X12185476Y-12681619D01*
X12261667Y-12643524D02*
X12261667Y-12681619D01*
X12556905Y-12919714D02*
X12547381Y-12910190D01*
X12547381Y-12910190D02*
X12528334Y-12881619D01*
X12528334Y-12881619D02*
X12518810Y-12862571D01*
X12518810Y-12862571D02*
X12509286Y-12834000D01*
X12509286Y-12834000D02*
X12499762Y-12786381D01*
X12499762Y-12786381D02*
X12499762Y-12748286D01*
X12499762Y-12748286D02*
X12509286Y-12700667D01*
X12509286Y-12700667D02*
X12518810Y-12672095D01*
X12518810Y-12672095D02*
X12528334Y-12653048D01*
X12528334Y-12653048D02*
X12547381Y-12624476D01*
X12547381Y-12624476D02*
X12556905Y-12614952D01*
X12642619Y-12843524D02*
X12680714Y-12843524D01*
X12680714Y-12843524D02*
X12699762Y-12834000D01*
X12699762Y-12834000D02*
X12709286Y-12824476D01*
X12709286Y-12824476D02*
X12728334Y-12795905D01*
X12728334Y-12795905D02*
X12737857Y-12757809D01*
X12737857Y-12757809D02*
X12737857Y-12681619D01*
X12737857Y-12681619D02*
X12728334Y-12662571D01*
X12728334Y-12662571D02*
X12718810Y-12653048D01*
X12718810Y-12653048D02*
X12699762Y-12643524D01*
X12699762Y-12643524D02*
X12661667Y-12643524D01*
X12661667Y-12643524D02*
X12642619Y-12653048D01*
X12642619Y-12653048D02*
X12633095Y-12662571D01*
X12633095Y-12662571D02*
X12623572Y-12681619D01*
X12623572Y-12681619D02*
X12623572Y-12729238D01*
X12623572Y-12729238D02*
X12633095Y-12748286D01*
X12633095Y-12748286D02*
X12642619Y-12757809D01*
X12642619Y-12757809D02*
X12661667Y-12767333D01*
X12661667Y-12767333D02*
X12699762Y-12767333D01*
X12699762Y-12767333D02*
X12718810Y-12757809D01*
X12718810Y-12757809D02*
X12728334Y-12748286D01*
X12728334Y-12748286D02*
X12737857Y-12729238D01*
X12975953Y-12843524D02*
X12975953Y-12643524D01*
X13061667Y-12843524D02*
X13061667Y-12738762D01*
X13061667Y-12738762D02*
X13052143Y-12719714D01*
X13052143Y-12719714D02*
X13033096Y-12710190D01*
X13033096Y-12710190D02*
X13004524Y-12710190D01*
X13004524Y-12710190D02*
X12985476Y-12719714D01*
X12985476Y-12719714D02*
X12975953Y-12729238D01*
X13185476Y-12843524D02*
X13166429Y-12834000D01*
X13166429Y-12834000D02*
X13156905Y-12824476D01*
X13156905Y-12824476D02*
X13147381Y-12805428D01*
X13147381Y-12805428D02*
X13147381Y-12748286D01*
X13147381Y-12748286D02*
X13156905Y-12729238D01*
X13156905Y-12729238D02*
X13166429Y-12719714D01*
X13166429Y-12719714D02*
X13185476Y-12710190D01*
X13185476Y-12710190D02*
X13214048Y-12710190D01*
X13214048Y-12710190D02*
X13233096Y-12719714D01*
X13233096Y-12719714D02*
X13242619Y-12729238D01*
X13242619Y-12729238D02*
X13252143Y-12748286D01*
X13252143Y-12748286D02*
X13252143Y-12805428D01*
X13252143Y-12805428D02*
X13242619Y-12824476D01*
X13242619Y-12824476D02*
X13233096Y-12834000D01*
X13233096Y-12834000D02*
X13214048Y-12843524D01*
X13214048Y-12843524D02*
X13185476Y-12843524D01*
X13366429Y-12843524D02*
X13347381Y-12834000D01*
X13347381Y-12834000D02*
X13337857Y-12814952D01*
X13337857Y-12814952D02*
X13337857Y-12643524D01*
X13518810Y-12834000D02*
X13499762Y-12843524D01*
X13499762Y-12843524D02*
X13461667Y-12843524D01*
X13461667Y-12843524D02*
X13442619Y-12834000D01*
X13442619Y-12834000D02*
X13433096Y-12814952D01*
X13433096Y-12814952D02*
X13433096Y-12738762D01*
X13433096Y-12738762D02*
X13442619Y-12719714D01*
X13442619Y-12719714D02*
X13461667Y-12710190D01*
X13461667Y-12710190D02*
X13499762Y-12710190D01*
X13499762Y-12710190D02*
X13518810Y-12719714D01*
X13518810Y-12719714D02*
X13528334Y-12738762D01*
X13528334Y-12738762D02*
X13528334Y-12757809D01*
X13528334Y-12757809D02*
X13433096Y-12776857D01*
X13604524Y-12834000D02*
X13623572Y-12843524D01*
X13623572Y-12843524D02*
X13661667Y-12843524D01*
X13661667Y-12843524D02*
X13680715Y-12834000D01*
X13680715Y-12834000D02*
X13690238Y-12814952D01*
X13690238Y-12814952D02*
X13690238Y-12805428D01*
X13690238Y-12805428D02*
X13680715Y-12786381D01*
X13680715Y-12786381D02*
X13661667Y-12776857D01*
X13661667Y-12776857D02*
X13633096Y-12776857D01*
X13633096Y-12776857D02*
X13614048Y-12767333D01*
X13614048Y-12767333D02*
X13604524Y-12748286D01*
X13604524Y-12748286D02*
X13604524Y-12738762D01*
X13604524Y-12738762D02*
X13614048Y-12719714D01*
X13614048Y-12719714D02*
X13633096Y-12710190D01*
X13633096Y-12710190D02*
X13661667Y-12710190D01*
X13661667Y-12710190D02*
X13680715Y-12719714D01*
X13756905Y-12919714D02*
X13766429Y-12910190D01*
X13766429Y-12910190D02*
X13785477Y-12881619D01*
X13785477Y-12881619D02*
X13795000Y-12862571D01*
X13795000Y-12862571D02*
X13804524Y-12834000D01*
X13804524Y-12834000D02*
X13814048Y-12786381D01*
X13814048Y-12786381D02*
X13814048Y-12748286D01*
X13814048Y-12748286D02*
X13804524Y-12700667D01*
X13804524Y-12700667D02*
X13795000Y-12672095D01*
X13795000Y-12672095D02*
X13785477Y-12653048D01*
X13785477Y-12653048D02*
X13766429Y-12624476D01*
X13766429Y-12624476D02*
X13756905Y-12614952D01*
M02*
