%TF.GenerationSoftware,KiCad,Pcbnew,7.0.2*%
%TF.CreationDate,2023-07-16T22:24:44-04:00*%
%TF.ProjectId,hellerune,68656c6c-6572-4756-9e65-2e6b69636164,rev?*%
%TF.SameCoordinates,Original*%
%TF.FileFunction,Copper,L4,Bot*%
%TF.FilePolarity,Positive*%
%FSLAX46Y46*%
G04 Gerber Fmt 4.6, Leading zero omitted, Abs format (unit mm)*
G04 Created by KiCad (PCBNEW 7.0.2) date 2023-07-16 22:24:44*
%MOMM*%
%LPD*%
G01*
G04 APERTURE LIST*
%TA.AperFunction,ComponentPad*%
%ADD10R,1.700000X1.700000*%
%TD*%
%TA.AperFunction,ComponentPad*%
%ADD11O,1.700000X1.700000*%
%TD*%
%TA.AperFunction,ComponentPad*%
%ADD12R,2.540000X2.540000*%
%TD*%
%TA.AperFunction,ComponentPad*%
%ADD13C,2.540000*%
%TD*%
%TA.AperFunction,ComponentPad*%
%ADD14R,1.600000X1.600000*%
%TD*%
%TA.AperFunction,ComponentPad*%
%ADD15O,1.600000X1.600000*%
%TD*%
%TA.AperFunction,ComponentPad*%
%ADD16C,1.600000*%
%TD*%
%TA.AperFunction,ComponentPad*%
%ADD17R,1.248000X1.248000*%
%TD*%
%TA.AperFunction,ComponentPad*%
%ADD18C,1.248000*%
%TD*%
%TA.AperFunction,ViaPad*%
%ADD19C,0.800000*%
%TD*%
%TA.AperFunction,Conductor*%
%ADD20C,0.300000*%
%TD*%
%TA.AperFunction,Conductor*%
%ADD21C,0.250000*%
%TD*%
%TA.AperFunction,Conductor*%
%ADD22C,0.400000*%
%TD*%
G04 APERTURE END LIST*
D10*
X159750000Y-56750000D03*
D11*
X162290000Y-56750000D03*
D10*
X168000000Y-67000000D03*
X135500000Y-105000000D03*
D12*
X94920000Y-74985500D03*
D13*
X100000000Y-74985500D03*
X105080000Y-74985500D03*
D12*
X173456800Y-75000000D03*
D13*
X178536800Y-75000000D03*
X183616800Y-75000000D03*
D10*
X156750000Y-67000000D03*
X166000000Y-61750000D03*
X164250000Y-67000000D03*
X158500000Y-61750000D03*
X122750000Y-73000000D03*
X160500000Y-67000000D03*
X131250000Y-108750000D03*
X135500000Y-108750000D03*
X162250000Y-61750000D03*
D12*
X134170000Y-74985500D03*
D13*
X139250000Y-74985500D03*
X144330000Y-74985500D03*
D14*
X160920000Y-71250000D03*
D15*
X163460000Y-71250000D03*
X166000000Y-71250000D03*
X168540000Y-71250000D03*
X168540000Y-78870000D03*
X166000000Y-78870000D03*
X163460000Y-78870000D03*
X160920000Y-78870000D03*
D14*
X127500000Y-56250000D03*
D16*
X127500000Y-58250000D03*
D14*
X145317621Y-105000000D03*
D16*
X147817621Y-105000000D03*
D14*
X125755113Y-77800000D03*
D16*
X123755113Y-77800000D03*
D14*
X151500000Y-70000000D03*
D16*
X149500000Y-70000000D03*
D14*
X116000000Y-71000000D03*
D16*
X116000000Y-73000000D03*
D14*
X152800000Y-95955113D03*
D16*
X152800000Y-93955113D03*
D14*
X153300000Y-105400000D03*
D16*
X155800000Y-105400000D03*
D14*
X154500000Y-73750000D03*
D16*
X154500000Y-75750000D03*
D14*
X129250000Y-82250000D03*
D16*
X131250000Y-82250000D03*
D17*
X121999293Y-93250707D03*
D18*
X124539293Y-93250707D03*
X127079293Y-93250707D03*
X129619293Y-93250707D03*
X132159293Y-93250707D03*
X134699293Y-93250707D03*
X137239293Y-93250707D03*
X139779293Y-93250707D03*
X139779293Y-101190707D03*
X137239293Y-101190707D03*
X134699293Y-101190707D03*
X132159293Y-101190707D03*
X129619293Y-101190707D03*
X127079293Y-101190707D03*
X124539293Y-101190707D03*
X121999293Y-101190707D03*
D19*
X105750000Y-66000000D03*
X146750000Y-58750000D03*
X132400000Y-89800000D03*
X145200000Y-79400000D03*
X118750000Y-56750000D03*
X141600000Y-57000000D03*
X111500000Y-65500000D03*
X144600000Y-90200000D03*
X124750000Y-63500000D03*
X145750000Y-62500000D03*
X119250000Y-68750000D03*
X142400000Y-93200000D03*
X148400000Y-77400000D03*
X149800000Y-83600000D03*
X150200000Y-90200000D03*
X107000000Y-62750000D03*
X107000000Y-59250000D03*
X128400000Y-90200000D03*
X109250000Y-55250000D03*
X147200000Y-90400000D03*
X152200000Y-99200000D03*
X140000000Y-85200000D03*
X137600000Y-83200000D03*
X119000000Y-78750000D03*
X127500000Y-97250000D03*
X140400000Y-82200000D03*
X151200000Y-85400000D03*
X117000000Y-77000000D03*
X124000000Y-54750000D03*
X117750000Y-63750000D03*
D20*
X100000000Y-73367750D02*
X100000000Y-74985500D01*
X105750000Y-66000000D02*
X101143921Y-70606078D01*
X101143895Y-70606052D02*
G75*
G03*
X100000000Y-73367750I2761705J-2761648D01*
G01*
X159125000Y-56750000D02*
X159750000Y-56750000D01*
X153805456Y-59500000D02*
X148030330Y-59500000D01*
X158058058Y-57191941D02*
X157125000Y-58125000D01*
X146750000Y-58750000D02*
X147125000Y-59125000D01*
X153805456Y-59499981D02*
G75*
G03*
X157124999Y-58124999I44J4694481D01*
G01*
X159125000Y-56750005D02*
G75*
G03*
X158058059Y-57191942I0J-1508895D01*
G01*
X147124991Y-59125009D02*
G75*
G03*
X148030330Y-59500000I905309J905309D01*
G01*
X145750000Y-62500000D02*
X128957106Y-62500000D01*
X126542893Y-63500000D02*
X124750000Y-63500000D01*
X128957106Y-62500003D02*
G75*
G03*
X127750000Y-63000000I-6J-1707097D01*
G01*
X126542893Y-63499997D02*
G75*
G03*
X127750000Y-63000000I7J1707097D01*
G01*
X149800000Y-89517157D02*
X149800000Y-83600000D01*
D21*
X139074646Y-101895353D02*
X139779293Y-101190707D01*
X137240000Y-93250000D02*
X138974332Y-94984332D01*
X135403939Y-101895353D02*
X134699293Y-101190707D01*
D20*
X148229289Y-77500000D02*
X148025000Y-77500000D01*
D21*
X140571525Y-94998474D02*
X142320000Y-93250000D01*
X139785857Y-95200000D02*
X139814142Y-95200000D01*
D20*
X148400000Y-77400000D02*
X148350000Y-77450000D01*
X145424174Y-71424174D02*
X144343792Y-70343792D01*
D21*
X139780000Y-95234142D02*
X139780000Y-100870000D01*
X122194454Y-93994454D02*
X122700000Y-94500000D01*
X137105106Y-102600000D02*
X137373479Y-102600000D01*
X132160000Y-93250000D02*
X133692806Y-94782806D01*
X132160000Y-93250000D02*
X131185000Y-94225000D01*
D20*
X119250000Y-68750000D02*
X140496036Y-68750000D01*
D21*
X124389949Y-95200000D02*
X128831141Y-95200000D01*
D20*
X147555545Y-77305545D02*
X147250000Y-77000000D01*
X150000000Y-90000000D02*
X150200000Y-90200000D01*
D21*
X140085000Y-95200000D02*
X139814142Y-95200000D01*
X122000000Y-93525000D02*
X122000000Y-93250000D01*
D20*
X146750000Y-75792893D02*
X146750000Y-74625000D01*
D21*
X139495000Y-95200000D02*
X139785857Y-95200000D01*
X137240000Y-93250000D02*
X135707193Y-94782806D01*
D20*
X146750014Y-74625000D02*
G75*
G03*
X145424173Y-71424175I-4526614J0D01*
G01*
D21*
X139814142Y-95200018D02*
G75*
G03*
X139790000Y-95210000I-42J-34082D01*
G01*
X138974339Y-94984325D02*
G75*
G03*
X139495000Y-95200000I520661J520625D01*
G01*
X139789988Y-95209988D02*
G75*
G03*
X139780000Y-95234142I24112J-24112D01*
G01*
X128831141Y-95200017D02*
G75*
G03*
X131185000Y-94225000I-41J3328917D01*
G01*
X134700000Y-95199995D02*
G75*
G03*
X135707193Y-94782806I0J1424395D01*
G01*
X140085000Y-95199984D02*
G75*
G03*
X140571524Y-94998473I0J688084D01*
G01*
X135403939Y-101895353D02*
G75*
G03*
X137105106Y-102600000I1701161J1701153D01*
G01*
X139790072Y-95210072D02*
G75*
G03*
X139785857Y-95200000I-4172J4172D01*
G01*
X133692803Y-94782809D02*
G75*
G03*
X134700000Y-95200000I1007197J1007209D01*
G01*
D20*
X146750003Y-75792893D02*
G75*
G03*
X147250000Y-77000000I1707097J-7D01*
G01*
X144343784Y-70343800D02*
G75*
G03*
X140496036Y-68750000I-3847784J-3847800D01*
G01*
X149800018Y-89517157D02*
G75*
G03*
X150000000Y-90000000I682782J-43D01*
G01*
D21*
X137373479Y-102599988D02*
G75*
G03*
X139074646Y-101895353I21J2405788D01*
G01*
D20*
X148229289Y-77499995D02*
G75*
G03*
X148350000Y-77450000I11J170695D01*
G01*
D21*
X122700015Y-94499985D02*
G75*
G03*
X124389949Y-95200000I1689985J1689985D01*
G01*
X121999998Y-93525000D02*
G75*
G03*
X122194454Y-93994454I663902J0D01*
G01*
D20*
X147555547Y-77305543D02*
G75*
G03*
X148025000Y-77500000I469453J469443D01*
G01*
X107000000Y-62750000D02*
X107000000Y-59250000D01*
D21*
X125777556Y-92012443D02*
X124540000Y-93250000D01*
X125755113Y-91913373D02*
X125755113Y-77800000D01*
X125777556Y-92012443D02*
G75*
G03*
X125777556Y-91967556I-22456J22443D01*
G01*
X125755121Y-91913373D02*
G75*
G03*
X125777556Y-91967556I76579J-27D01*
G01*
X137229292Y-77006207D02*
X139250000Y-74985500D01*
X129589949Y-78600000D02*
X133381536Y-78600000D01*
X127200000Y-80989949D02*
X127200000Y-83951471D01*
X128400000Y-90200000D02*
X128400000Y-86848528D01*
X139250000Y-74985500D02*
X144330000Y-74985500D01*
X129589949Y-78600021D02*
G75*
G03*
X127900000Y-79300000I-49J-2389879D01*
G01*
X127200012Y-83951471D02*
G75*
G03*
X127800000Y-85400000I2048488J-29D01*
G01*
X133381536Y-78600010D02*
G75*
G03*
X137229292Y-77006207I-36J5441610D01*
G01*
X127899986Y-79299986D02*
G75*
G03*
X127200000Y-80989949I1689914J-1689914D01*
G01*
X128399988Y-86848528D02*
G75*
G03*
X127800000Y-85400000I-2048488J28D01*
G01*
D20*
X116000000Y-73000000D02*
X122750000Y-73000000D01*
D21*
X137600000Y-83200000D02*
X137800000Y-83200000D01*
X140000000Y-85200000D02*
X138141421Y-83341421D01*
X138141412Y-83341430D02*
G75*
G03*
X137800000Y-83200000I-341412J-341370D01*
G01*
X127500000Y-97250000D02*
X127289646Y-97460353D01*
D20*
X120500000Y-94262563D02*
X120500000Y-81310660D01*
X119000000Y-78750000D02*
X119750000Y-79500000D01*
D21*
X127079293Y-97968191D02*
X127079293Y-101190707D01*
D20*
X123487436Y-97250000D02*
X127500000Y-97250000D01*
D21*
X127289647Y-97460354D02*
G75*
G03*
X127079293Y-97968191I507853J-507846D01*
G01*
D20*
X121374989Y-96375011D02*
G75*
G03*
X123487436Y-97250000I2112411J2112411D01*
G01*
X120500016Y-81310660D02*
G75*
G03*
X119750000Y-79500000I-2560716J-40D01*
G01*
X120500016Y-94262563D02*
G75*
G03*
X121375001Y-96374999I2987384J-37D01*
G01*
D21*
X140400000Y-82200000D02*
X131250000Y-82250000D01*
X151077556Y-95477556D02*
X151114978Y-95514978D01*
X173456800Y-75000000D02*
X178536800Y-75000000D01*
X150600000Y-94324633D02*
X150600000Y-93907106D01*
X151600000Y-91492893D02*
X151600000Y-86082842D01*
X152177556Y-95955113D02*
X152800000Y-95955113D01*
X151400000Y-85600000D02*
X151200000Y-85400000D01*
X151100002Y-92700002D02*
G75*
G03*
X151600000Y-91492893I-1207102J1207102D01*
G01*
X150599983Y-94324633D02*
G75*
G03*
X151077556Y-95477556I1630517J33D01*
G01*
X151599982Y-86082842D02*
G75*
G03*
X151400000Y-85600000I-682782J42D01*
G01*
X151114999Y-95514957D02*
G75*
G03*
X152177556Y-95955113I1062601J1062557D01*
G01*
X151099998Y-92699998D02*
G75*
G03*
X150600000Y-93907106I1207102J-1207102D01*
G01*
X152800000Y-91789949D02*
X152800000Y-93955113D01*
X149806207Y-75606207D02*
X149593792Y-75393792D01*
X148000000Y-70653963D02*
X148000000Y-71546036D01*
X159998380Y-59041619D02*
X162290000Y-56750000D01*
X153068629Y-85068629D02*
X152800000Y-84800000D01*
X149593792Y-66806207D02*
X155491619Y-60908380D01*
X151400000Y-79453963D02*
X151400000Y-81420101D01*
X154200000Y-87800000D02*
X154200000Y-88410050D01*
X157745000Y-59974988D02*
G75*
G03*
X159998380Y-59041619I0J3186788D01*
G01*
X154200012Y-87800000D02*
G75*
G03*
X153068629Y-85068629I-3862712J0D01*
G01*
X149593821Y-66806236D02*
G75*
G03*
X148000000Y-70653963I3847679J-3847764D01*
G01*
X153499985Y-90099985D02*
G75*
G03*
X154200000Y-88410050I-1689985J1689985D01*
G01*
X157745000Y-59975011D02*
G75*
G03*
X155491619Y-60908380I0J-3186789D01*
G01*
X151400000Y-81420101D02*
G75*
G03*
X152800000Y-84800000I4779900J1D01*
G01*
X153499986Y-90099986D02*
G75*
G03*
X152800000Y-91789949I1689914J-1689914D01*
G01*
X147999990Y-71546036D02*
G75*
G03*
X149593793Y-75393791I5441610J36D01*
G01*
X151400010Y-79453963D02*
G75*
G03*
X149806206Y-75606208I-5441610J-37D01*
G01*
D22*
X162250000Y-61750000D02*
X158500000Y-61750000D01*
X162250000Y-61750000D02*
X166000000Y-61750000D01*
D20*
X122069750Y-75930250D02*
X121375000Y-76625000D01*
X124350578Y-74985500D02*
X134170000Y-74985500D01*
X121375000Y-76625000D02*
X121250000Y-76750000D01*
X121203125Y-76796875D02*
X121250000Y-76750000D01*
X121078125Y-76921875D02*
X121062500Y-76937500D01*
X121109375Y-76890625D02*
X121078125Y-76921875D01*
X121171875Y-76828125D02*
X121140625Y-76859375D01*
X121203125Y-76796875D02*
X121171875Y-76828125D01*
X121109375Y-76890625D02*
X121140625Y-76859375D01*
X120911611Y-77000000D02*
X117000000Y-77000000D01*
X124350578Y-74985491D02*
G75*
G03*
X122069750Y-75930250I22J-3225609D01*
G01*
X120911611Y-77000004D02*
G75*
G03*
X121062499Y-76937499I-11J213404D01*
G01*
X122646446Y-55103553D02*
X119075825Y-58674174D01*
X117750000Y-63750000D02*
X117750000Y-61875000D01*
X124000000Y-54750000D02*
X123500000Y-54750000D01*
X123500000Y-54749998D02*
G75*
G03*
X122646446Y-55103553I0J-1207102D01*
G01*
X119075836Y-58674185D02*
G75*
G03*
X117750000Y-61875000I3200764J-3200815D01*
G01*
D22*
X153250000Y-70000000D02*
X151500000Y-70000000D01*
X160920000Y-77395000D02*
X160920000Y-78870000D01*
X156237436Y-71237436D02*
X159877017Y-74877017D01*
X160919989Y-77395000D02*
G75*
G03*
X159877016Y-74877018I-3560989J0D01*
G01*
X156237441Y-71237431D02*
G75*
G03*
X153250000Y-70000000I-2987441J-2987469D01*
G01*
%TA.AperFunction,Conductor*%
G36*
X132909098Y-73992658D02*
G01*
X134159313Y-74976305D01*
X134163696Y-74984114D01*
X134161273Y-74992735D01*
X134159313Y-74994695D01*
X132909098Y-75978341D01*
X132900477Y-75980764D01*
X132892745Y-75976477D01*
X132700156Y-75736947D01*
X132700155Y-75736946D01*
X132700000Y-75736753D01*
X132500000Y-75527380D01*
X132299999Y-75357380D01*
X132099999Y-75226753D01*
X132099995Y-75226751D01*
X131906843Y-75138622D01*
X131900739Y-75132071D01*
X131900000Y-75127978D01*
X131900000Y-74843021D01*
X131903427Y-74834748D01*
X131906839Y-74832379D01*
X132099999Y-74744246D01*
X132299999Y-74613619D01*
X132500000Y-74443619D01*
X132700000Y-74234246D01*
X132892746Y-73994521D01*
X132900599Y-73990221D01*
X132909098Y-73992658D01*
G37*
%TD.AperFunction*%
%TA.AperFunction,Conductor*%
G36*
X117163670Y-76635431D02*
G01*
X117164122Y-76635631D01*
X117271831Y-76686160D01*
X117308392Y-76703312D01*
X117309077Y-76703661D01*
X117418746Y-76764200D01*
X117418900Y-76764273D01*
X117418907Y-76764277D01*
X117453522Y-76780774D01*
X117515605Y-76810364D01*
X117631847Y-76839715D01*
X117789014Y-76849328D01*
X117797063Y-76853253D01*
X117800000Y-76861006D01*
X117800000Y-77138993D01*
X117796573Y-77147266D01*
X117789014Y-77150671D01*
X117631847Y-77160284D01*
X117515606Y-77189634D01*
X117418907Y-77235721D01*
X117418875Y-77235737D01*
X117418746Y-77235799D01*
X117418597Y-77235881D01*
X117418582Y-77235889D01*
X117309077Y-77296337D01*
X117308392Y-77296686D01*
X117164137Y-77364361D01*
X117155192Y-77364773D01*
X117148576Y-77358738D01*
X117148381Y-77358299D01*
X117000875Y-77004499D01*
X117000855Y-76995550D01*
X117148370Y-76641726D01*
X117154716Y-76635410D01*
X117163670Y-76635431D01*
G37*
%TD.AperFunction*%
%TA.AperFunction,Conductor*%
G36*
X143583045Y-73994887D02*
G01*
X143583606Y-73995573D01*
X143759826Y-74228977D01*
X144325677Y-74978450D01*
X144327927Y-74987118D01*
X144325677Y-74992550D01*
X143583611Y-75975420D01*
X143575891Y-75979958D01*
X143567223Y-75977708D01*
X143566531Y-75977142D01*
X143300430Y-75742288D01*
X143299849Y-75741739D01*
X143067142Y-75506185D01*
X143067135Y-75506178D01*
X143066921Y-75505962D01*
X142820048Y-75304141D01*
X142820047Y-75304140D01*
X142503185Y-75163380D01*
X142070314Y-75111730D01*
X142062505Y-75107347D01*
X142060000Y-75100112D01*
X142060000Y-74870887D01*
X142063427Y-74862614D01*
X142070313Y-74859269D01*
X142503183Y-74807619D01*
X142820048Y-74666858D01*
X143066921Y-74465037D01*
X143299870Y-74229239D01*
X143300408Y-74228730D01*
X143566532Y-73993856D01*
X143575001Y-73990952D01*
X143583045Y-73994887D01*
G37*
%TD.AperFunction*%
%TA.AperFunction,Conductor*%
G36*
X165158279Y-60908304D02*
G01*
X165158831Y-60908820D01*
X165636645Y-61386073D01*
X165992712Y-61741722D01*
X165996144Y-61749993D01*
X165992722Y-61758268D01*
X165992712Y-61758278D01*
X165158841Y-62591169D01*
X165150566Y-62594591D01*
X165142295Y-62591159D01*
X165141769Y-62590597D01*
X165119883Y-62565595D01*
X164980000Y-62405797D01*
X164979806Y-62405612D01*
X164810224Y-62243909D01*
X164810218Y-62243903D01*
X164810000Y-62243696D01*
X164809757Y-62243510D01*
X164809751Y-62243505D01*
X164640299Y-62113925D01*
X164640294Y-62113922D01*
X164639999Y-62113696D01*
X164639673Y-62113508D01*
X164469997Y-62015795D01*
X164307477Y-61952893D01*
X164300998Y-61946711D01*
X164300000Y-61941982D01*
X164300000Y-61558017D01*
X164303427Y-61549744D01*
X164307477Y-61547106D01*
X164469997Y-61484203D01*
X164469999Y-61484202D01*
X164639999Y-61386303D01*
X164810000Y-61256303D01*
X164980000Y-61094202D01*
X165141770Y-60909401D01*
X165149797Y-60905434D01*
X165158279Y-60908304D01*
G37*
%TD.AperFunction*%
%TA.AperFunction,Conductor*%
G36*
X127351423Y-96891261D02*
G01*
X127351630Y-96891728D01*
X127499123Y-97245498D01*
X127499144Y-97254452D01*
X127499123Y-97254502D01*
X127351630Y-97608271D01*
X127345283Y-97614589D01*
X127336329Y-97614568D01*
X127335862Y-97614361D01*
X127191605Y-97546686D01*
X127190920Y-97546337D01*
X127081415Y-97485889D01*
X127081252Y-97485799D01*
X127081109Y-97485731D01*
X127081090Y-97485721D01*
X126984392Y-97439634D01*
X126907416Y-97420198D01*
X126868152Y-97410284D01*
X126858069Y-97409667D01*
X126710986Y-97400671D01*
X126702937Y-97396746D01*
X126700000Y-97388993D01*
X126700000Y-97111006D01*
X126703427Y-97102733D01*
X126710985Y-97099328D01*
X126868152Y-97089715D01*
X126984394Y-97060364D01*
X127081252Y-97014200D01*
X127190928Y-96953656D01*
X127191596Y-96953316D01*
X127335863Y-96885637D01*
X127344807Y-96885226D01*
X127351423Y-96891261D01*
G37*
%TD.AperFunction*%
%TA.AperFunction,Conductor*%
G36*
X149949130Y-89529024D02*
G01*
X149952373Y-89534685D01*
X149985328Y-89670778D01*
X149985328Y-89670779D01*
X150072828Y-89738876D01*
X150080208Y-89740952D01*
X150195853Y-89773485D01*
X150196161Y-89773576D01*
X150336590Y-89817885D01*
X150339667Y-89819381D01*
X150471211Y-89909213D01*
X150476111Y-89916709D01*
X150474275Y-89925473D01*
X150472901Y-89927133D01*
X150201678Y-90199331D01*
X150197842Y-90201893D01*
X149841273Y-90348618D01*
X149832318Y-90348597D01*
X149826001Y-90342250D01*
X149825999Y-90342245D01*
X149767961Y-90200999D01*
X149750648Y-90158864D01*
X149750465Y-90158390D01*
X149699760Y-90017493D01*
X149699366Y-90016148D01*
X149676645Y-89917157D01*
X149670591Y-89890778D01*
X149670350Y-89889288D01*
X149656332Y-89740924D01*
X149656288Y-89740218D01*
X149650557Y-89542613D01*
X149653742Y-89534245D01*
X149661912Y-89530580D01*
X149940800Y-89525741D01*
X149949130Y-89529024D01*
G37*
%TD.AperFunction*%
%TA.AperFunction,Conductor*%
G36*
X119413670Y-68385431D02*
G01*
X119414122Y-68385631D01*
X119521831Y-68436160D01*
X119558392Y-68453312D01*
X119559077Y-68453661D01*
X119668746Y-68514200D01*
X119668900Y-68514273D01*
X119668907Y-68514277D01*
X119703522Y-68530774D01*
X119765605Y-68560364D01*
X119881847Y-68589715D01*
X120039014Y-68599328D01*
X120047063Y-68603253D01*
X120050000Y-68611006D01*
X120050000Y-68888993D01*
X120046573Y-68897266D01*
X120039014Y-68900671D01*
X119881847Y-68910284D01*
X119765606Y-68939634D01*
X119668907Y-68985721D01*
X119668875Y-68985737D01*
X119668746Y-68985799D01*
X119668597Y-68985881D01*
X119668582Y-68985889D01*
X119559077Y-69046337D01*
X119558392Y-69046686D01*
X119414137Y-69114361D01*
X119405192Y-69114773D01*
X119398576Y-69108738D01*
X119398381Y-69108299D01*
X119250875Y-68754499D01*
X119250855Y-68745550D01*
X119398370Y-68391726D01*
X119404716Y-68385410D01*
X119413670Y-68385431D01*
G37*
%TD.AperFunction*%
%TA.AperFunction,Conductor*%
G36*
X127495517Y-97247148D02*
G01*
X127501863Y-97253464D01*
X127501878Y-97253500D01*
X127648207Y-97607771D01*
X127648198Y-97616726D01*
X127641860Y-97623052D01*
X127640920Y-97623394D01*
X127512075Y-97664133D01*
X127511103Y-97664395D01*
X127390032Y-97691486D01*
X127390017Y-97691490D01*
X127389670Y-97691568D01*
X127389328Y-97691691D01*
X127389317Y-97691695D01*
X127293712Y-97726312D01*
X127293710Y-97726314D01*
X127230128Y-97793437D01*
X127230127Y-97793440D01*
X127207249Y-97908248D01*
X127202272Y-97915691D01*
X127195539Y-97917659D01*
X126967193Y-97913043D01*
X126958990Y-97909449D01*
X126955731Y-97901110D01*
X126961493Y-97705082D01*
X126961530Y-97704462D01*
X126974601Y-97557162D01*
X126974827Y-97555694D01*
X127002128Y-97431187D01*
X127002511Y-97429838D01*
X127051646Y-97290013D01*
X127051848Y-97289483D01*
X127066536Y-97253500D01*
X127126015Y-97107786D01*
X127132312Y-97101425D01*
X127141267Y-97101379D01*
X127495517Y-97247148D01*
G37*
%TD.AperFunction*%
%TA.AperFunction,Conductor*%
G36*
X152007856Y-95162967D02*
G01*
X152791634Y-95946527D01*
X152795062Y-95954799D01*
X152791636Y-95963073D01*
X152790740Y-95963881D01*
X152009967Y-96598307D01*
X152001386Y-96600865D01*
X151993509Y-96596605D01*
X151992868Y-96595737D01*
X151835388Y-96360137D01*
X151670776Y-96149833D01*
X151506164Y-95975495D01*
X151505902Y-95975275D01*
X151505896Y-95975269D01*
X151341551Y-95837121D01*
X151187615Y-95741356D01*
X151182400Y-95734077D01*
X151183861Y-95725242D01*
X151184317Y-95724563D01*
X151321260Y-95536087D01*
X151328267Y-95531526D01*
X151459113Y-95503451D01*
X151594335Y-95451209D01*
X151729556Y-95375739D01*
X151864778Y-95277040D01*
X151991750Y-95162551D01*
X152000188Y-95159557D01*
X152007856Y-95162967D01*
G37*
%TD.AperFunction*%
%TA.AperFunction,Conductor*%
G36*
X161117723Y-77396138D02*
G01*
X161121172Y-77403193D01*
X161155236Y-77704839D01*
X161241930Y-77911878D01*
X161364910Y-78079958D01*
X161508476Y-78274494D01*
X161509442Y-78276043D01*
X161653222Y-78552542D01*
X161653999Y-78561463D01*
X161648240Y-78568320D01*
X161647332Y-78568744D01*
X160924500Y-78869133D01*
X160915547Y-78869143D01*
X160192720Y-78568766D01*
X160186396Y-78562428D01*
X160186407Y-78553473D01*
X160186855Y-78552518D01*
X160331660Y-78277092D01*
X160332673Y-78275498D01*
X160479032Y-78081821D01*
X160604273Y-77914530D01*
X160690407Y-77708366D01*
X160719017Y-77407781D01*
X160723212Y-77399872D01*
X160730528Y-77397193D01*
X161109412Y-77392807D01*
X161117723Y-77396138D01*
G37*
%TD.AperFunction*%
%TA.AperFunction,Conductor*%
G36*
X123851430Y-54391244D02*
G01*
X123851435Y-54391255D01*
X123851436Y-54391258D01*
X123999073Y-54745190D01*
X123999096Y-54754144D01*
X123999076Y-54754192D01*
X123851851Y-55107726D01*
X123845507Y-55114046D01*
X123836552Y-55114029D01*
X123835594Y-55113578D01*
X123705994Y-55045264D01*
X123704679Y-55044456D01*
X123603421Y-54972601D01*
X123603258Y-54972485D01*
X123603092Y-54972383D01*
X123603085Y-54972379D01*
X123513728Y-54917822D01*
X123461698Y-54907131D01*
X123409670Y-54896440D01*
X123409669Y-54896440D01*
X123274156Y-54921959D01*
X123265392Y-54920122D01*
X123260864Y-54914077D01*
X123255133Y-54896440D01*
X123174931Y-54649606D01*
X123175633Y-54640680D01*
X123182374Y-54634887D01*
X123341587Y-54582080D01*
X123341714Y-54582035D01*
X123461497Y-54539276D01*
X123461693Y-54539201D01*
X123563841Y-54498896D01*
X123563937Y-54498856D01*
X123681393Y-54449700D01*
X123681393Y-54449699D01*
X123836122Y-54384967D01*
X123845077Y-54384937D01*
X123851430Y-54391244D01*
G37*
%TD.AperFunction*%
%TA.AperFunction,Conductor*%
G36*
X135272529Y-100956967D02*
G01*
X135278853Y-100963308D01*
X135279314Y-100964654D01*
X135344041Y-101198888D01*
X135344445Y-101201342D01*
X135355720Y-101400226D01*
X135355721Y-101400227D01*
X135364504Y-101571671D01*
X135425396Y-101733787D01*
X135536522Y-101847876D01*
X135586005Y-101898679D01*
X135589323Y-101906997D01*
X135586906Y-101913965D01*
X135447427Y-102095738D01*
X135439672Y-102100216D01*
X135431829Y-102098465D01*
X135226977Y-101967084D01*
X135056055Y-101906434D01*
X134894039Y-101880667D01*
X134707717Y-101848287D01*
X134706069Y-101847876D01*
X134472466Y-101771139D01*
X134465675Y-101765301D01*
X134465001Y-101756372D01*
X134465293Y-101755581D01*
X134696645Y-101194595D01*
X134702965Y-101188256D01*
X135263576Y-100956954D01*
X135272529Y-100956967D01*
G37*
%TD.AperFunction*%
%TA.AperFunction,Conductor*%
G36*
X177789845Y-74009387D02*
G01*
X177790406Y-74010073D01*
X177966626Y-74243477D01*
X178532477Y-74992950D01*
X178534727Y-75001618D01*
X178532477Y-75007050D01*
X177790411Y-75989920D01*
X177782691Y-75994458D01*
X177774023Y-75992208D01*
X177773331Y-75991642D01*
X177507230Y-75756788D01*
X177506649Y-75756239D01*
X177273942Y-75520685D01*
X177273935Y-75520678D01*
X177273721Y-75520462D01*
X177026848Y-75318641D01*
X177026847Y-75318640D01*
X176709985Y-75177880D01*
X176277114Y-75126230D01*
X176269305Y-75121847D01*
X176266800Y-75114612D01*
X176266800Y-74885387D01*
X176270227Y-74877114D01*
X176277113Y-74873769D01*
X176709983Y-74822119D01*
X177026848Y-74681358D01*
X177273721Y-74479537D01*
X177506670Y-74243739D01*
X177507208Y-74243230D01*
X177773332Y-74008356D01*
X177781801Y-74005452D01*
X177789845Y-74009387D01*
G37*
%TD.AperFunction*%
%TA.AperFunction,Conductor*%
G36*
X127201971Y-99946134D02*
G01*
X127205340Y-99953248D01*
X127223786Y-100138910D01*
X127230940Y-100210912D01*
X127302293Y-100389664D01*
X127302295Y-100389669D01*
X127405477Y-100535247D01*
X127480729Y-100639172D01*
X127527089Y-100703198D01*
X127528006Y-100704688D01*
X127649956Y-100940620D01*
X127650710Y-100949543D01*
X127644934Y-100956386D01*
X127644055Y-100956795D01*
X127083786Y-101189838D01*
X127074832Y-101189851D01*
X127074800Y-101189838D01*
X126514529Y-100956795D01*
X126508206Y-100950453D01*
X126508219Y-100941499D01*
X126508617Y-100940641D01*
X126630584Y-100704673D01*
X126631494Y-100703198D01*
X126753108Y-100535247D01*
X126856289Y-100389669D01*
X126927645Y-100210910D01*
X126953245Y-99953248D01*
X126957473Y-99945356D01*
X126964888Y-99942707D01*
X127193698Y-99942707D01*
X127201971Y-99946134D01*
G37*
%TD.AperFunction*%
%TA.AperFunction,Conductor*%
G36*
X107358272Y-59398370D02*
G01*
X107364589Y-59404716D01*
X107364568Y-59413670D01*
X107364361Y-59414137D01*
X107296686Y-59558392D01*
X107296337Y-59559077D01*
X107235889Y-59668582D01*
X107235881Y-59668597D01*
X107235799Y-59668746D01*
X107235737Y-59668875D01*
X107235721Y-59668907D01*
X107189634Y-59765606D01*
X107160284Y-59881847D01*
X107150672Y-60039014D01*
X107146747Y-60047063D01*
X107138994Y-60050000D01*
X106861006Y-60050000D01*
X106852733Y-60046573D01*
X106849328Y-60039014D01*
X106839715Y-59881847D01*
X106810364Y-59765605D01*
X106764200Y-59668746D01*
X106703661Y-59559077D01*
X106703312Y-59558392D01*
X106635638Y-59414137D01*
X106635226Y-59405192D01*
X106641261Y-59398576D01*
X106641683Y-59398388D01*
X106995500Y-59250875D01*
X107004449Y-59250855D01*
X107358272Y-59398370D01*
G37*
%TD.AperFunction*%
%TA.AperFunction,Conductor*%
G36*
X139215009Y-100956953D02*
G01*
X139775588Y-101188243D01*
X139781928Y-101194566D01*
X139781941Y-101194597D01*
X140013284Y-101755562D01*
X140013270Y-101764517D01*
X140006929Y-101770839D01*
X140006119Y-101771139D01*
X139772514Y-101847876D01*
X139770866Y-101848287D01*
X139584545Y-101880668D01*
X139422528Y-101906434D01*
X139251606Y-101967084D01*
X139046754Y-102098465D01*
X139037940Y-102100046D01*
X139031156Y-102095738D01*
X138891678Y-101913964D01*
X138889360Y-101905315D01*
X138892577Y-101898681D01*
X139053189Y-101733787D01*
X139114081Y-101571672D01*
X139122864Y-101400228D01*
X139134139Y-101201339D01*
X139134543Y-101198888D01*
X139135738Y-101194566D01*
X139199271Y-100964653D01*
X139204777Y-100957592D01*
X139213664Y-100956493D01*
X139215009Y-100956953D01*
G37*
%TD.AperFunction*%
%TA.AperFunction,Conductor*%
G36*
X137891095Y-82925333D02*
G01*
X138008508Y-83041668D01*
X138098650Y-83129060D01*
X138176952Y-83204079D01*
X138267095Y-83291471D01*
X138384411Y-83407711D01*
X138387876Y-83415968D01*
X138384487Y-83424257D01*
X138222932Y-83585812D01*
X138214659Y-83589239D01*
X138207940Y-83587117D01*
X138097856Y-83509879D01*
X138097855Y-83509878D01*
X138097854Y-83509878D01*
X138003220Y-83502004D01*
X137993776Y-83501219D01*
X137993775Y-83501219D01*
X137887161Y-83534725D01*
X137887006Y-83534777D01*
X137762541Y-83577952D01*
X137760263Y-83578494D01*
X137613232Y-83598224D01*
X137604577Y-83595928D01*
X137600080Y-83588184D01*
X137599976Y-83586649D01*
X137599962Y-83578494D01*
X137599301Y-83204166D01*
X137602711Y-83195891D01*
X137874609Y-82925349D01*
X137882889Y-82921944D01*
X137891095Y-82925333D01*
G37*
%TD.AperFunction*%
%TA.AperFunction,Conductor*%
G36*
X139902675Y-99946275D02*
G01*
X139906045Y-99953394D01*
X139931581Y-100210975D01*
X140002776Y-100389726D01*
X140105737Y-100535287D01*
X140105760Y-100535320D01*
X140227192Y-100703264D01*
X140228106Y-100704749D01*
X140349960Y-100940621D01*
X140350712Y-100949544D01*
X140344935Y-100956386D01*
X140344058Y-100956794D01*
X139783786Y-101189838D01*
X139774832Y-101189851D01*
X139774800Y-101189838D01*
X139214532Y-100956796D01*
X139208209Y-100950454D01*
X139208222Y-100941500D01*
X139208632Y-100940621D01*
X139330666Y-100704676D01*
X139331575Y-100703200D01*
X139453370Y-100535287D01*
X139556756Y-100389773D01*
X139556775Y-100389727D01*
X139628281Y-100211059D01*
X139653950Y-99953388D01*
X139658180Y-99945496D01*
X139665592Y-99942848D01*
X139894402Y-99942848D01*
X139902675Y-99946275D01*
G37*
%TD.AperFunction*%
%TA.AperFunction,Conductor*%
G36*
X107147267Y-61953427D02*
G01*
X107150672Y-61960986D01*
X107160284Y-62118151D01*
X107189634Y-62234392D01*
X107235721Y-62331090D01*
X107235731Y-62331109D01*
X107235799Y-62331252D01*
X107235889Y-62331415D01*
X107296337Y-62440920D01*
X107296686Y-62441605D01*
X107364361Y-62585862D01*
X107364773Y-62594807D01*
X107358738Y-62601423D01*
X107358271Y-62601630D01*
X107004502Y-62749123D01*
X106995548Y-62749144D01*
X106995498Y-62749123D01*
X106641728Y-62601630D01*
X106635410Y-62595283D01*
X106635431Y-62586329D01*
X106635624Y-62585892D01*
X106703316Y-62441596D01*
X106703661Y-62440920D01*
X106764200Y-62331252D01*
X106810364Y-62234394D01*
X106839715Y-62118152D01*
X106849328Y-61960985D01*
X106853253Y-61952937D01*
X106861006Y-61950000D01*
X107138994Y-61950000D01*
X107147267Y-61953427D01*
G37*
%TD.AperFunction*%
%TA.AperFunction,Conductor*%
G36*
X117897267Y-62953427D02*
G01*
X117900672Y-62960986D01*
X117910284Y-63118151D01*
X117939634Y-63234392D01*
X117985721Y-63331090D01*
X117985731Y-63331109D01*
X117985799Y-63331252D01*
X117985889Y-63331415D01*
X118046337Y-63440920D01*
X118046686Y-63441605D01*
X118114361Y-63585862D01*
X118114773Y-63594807D01*
X118108738Y-63601423D01*
X118108271Y-63601630D01*
X117754502Y-63749123D01*
X117745548Y-63749144D01*
X117745498Y-63749123D01*
X117391728Y-63601630D01*
X117385410Y-63595283D01*
X117385431Y-63586329D01*
X117385624Y-63585892D01*
X117453316Y-63441596D01*
X117453661Y-63440920D01*
X117514200Y-63331252D01*
X117560364Y-63234394D01*
X117589715Y-63118152D01*
X117599328Y-62960985D01*
X117603253Y-62952937D01*
X117611006Y-62950000D01*
X117888994Y-62950000D01*
X117897267Y-62953427D01*
G37*
%TD.AperFunction*%
%TA.AperFunction,Conductor*%
G36*
X174734023Y-74009200D02*
G01*
X174926799Y-74254726D01*
X175126799Y-74469589D01*
X175127022Y-74469784D01*
X175127026Y-74469788D01*
X175326517Y-74644342D01*
X175326522Y-74644346D01*
X175326800Y-74644589D01*
X175327111Y-74644799D01*
X175526794Y-74779722D01*
X175526799Y-74779724D01*
X175526800Y-74779725D01*
X175720132Y-74871823D01*
X175726127Y-74878475D01*
X175726800Y-74882386D01*
X175726800Y-75117613D01*
X175723373Y-75125886D01*
X175720132Y-75128176D01*
X175526794Y-75220276D01*
X175327111Y-75355199D01*
X175327101Y-75355206D01*
X175326800Y-75355410D01*
X175326532Y-75355644D01*
X175326517Y-75355656D01*
X175127026Y-75530210D01*
X175127011Y-75530224D01*
X175126799Y-75530410D01*
X175126606Y-75530616D01*
X175126597Y-75530626D01*
X174926973Y-75745085D01*
X174926961Y-75745097D01*
X174926799Y-75745273D01*
X174926645Y-75745468D01*
X174926634Y-75745482D01*
X174734032Y-75990788D01*
X174726228Y-75995179D01*
X174717605Y-75992765D01*
X174717595Y-75992758D01*
X173467485Y-75009193D01*
X173463103Y-75001386D01*
X173465526Y-74992765D01*
X173467482Y-74990808D01*
X174717597Y-74007240D01*
X174726216Y-74004818D01*
X174734023Y-74009200D01*
G37*
%TD.AperFunction*%
%TA.AperFunction,Conductor*%
G36*
X122617865Y-93109271D02*
G01*
X122623079Y-93116551D01*
X122623384Y-93119131D01*
X122625118Y-93394601D01*
X122626945Y-93654773D01*
X122628772Y-93885005D01*
X122630599Y-94085297D01*
X122632373Y-94250729D01*
X122629035Y-94259039D01*
X122628947Y-94259128D01*
X122463992Y-94424083D01*
X122455719Y-94427510D01*
X122447446Y-94424083D01*
X122447377Y-94424013D01*
X122287278Y-94261205D01*
X122287273Y-94261201D01*
X122287078Y-94261002D01*
X122280701Y-94255650D01*
X122118762Y-94119733D01*
X122118506Y-94119518D01*
X121949934Y-94007974D01*
X121949584Y-94007804D01*
X121949576Y-94007800D01*
X121781358Y-93926368D01*
X121627280Y-93879147D01*
X121620374Y-93873447D01*
X121619522Y-93864533D01*
X121620750Y-93861818D01*
X121996028Y-93254140D01*
X122003289Y-93248904D01*
X122609032Y-93107810D01*
X122617865Y-93109271D01*
G37*
%TD.AperFunction*%
%TA.AperFunction,Conductor*%
G36*
X145601423Y-62141261D02*
G01*
X145601630Y-62141728D01*
X145749123Y-62495498D01*
X145749144Y-62504452D01*
X145749123Y-62504502D01*
X145601630Y-62858271D01*
X145595283Y-62864589D01*
X145586329Y-62864568D01*
X145585862Y-62864361D01*
X145441605Y-62796686D01*
X145440920Y-62796337D01*
X145331415Y-62735889D01*
X145331252Y-62735799D01*
X145331109Y-62735731D01*
X145331090Y-62735721D01*
X145234392Y-62689634D01*
X145157416Y-62670198D01*
X145118152Y-62660284D01*
X145108069Y-62659667D01*
X144960986Y-62650671D01*
X144952937Y-62646746D01*
X144950000Y-62638993D01*
X144950000Y-62361006D01*
X144953427Y-62352733D01*
X144960985Y-62349328D01*
X145118152Y-62339715D01*
X145234394Y-62310364D01*
X145331252Y-62264200D01*
X145440928Y-62203656D01*
X145441596Y-62203316D01*
X145585863Y-62135637D01*
X145594807Y-62135226D01*
X145601423Y-62141261D01*
G37*
%TD.AperFunction*%
%TA.AperFunction,Conductor*%
G36*
X131566521Y-81516420D02*
G01*
X131567487Y-81516874D01*
X131874321Y-81678626D01*
X131875958Y-81679671D01*
X132090319Y-81843067D01*
X132275162Y-81983496D01*
X132275163Y-81983496D01*
X132275164Y-81983497D01*
X132503332Y-82081015D01*
X132837982Y-82115196D01*
X132845864Y-82119445D01*
X132848493Y-82126771D01*
X132849744Y-82355771D01*
X132846362Y-82364063D01*
X132839383Y-82367458D01*
X132503266Y-82406166D01*
X132275325Y-82508072D01*
X132091285Y-82652310D01*
X131877256Y-82818586D01*
X131875560Y-82819683D01*
X131567500Y-82983081D01*
X131558586Y-82983930D01*
X131551682Y-82978227D01*
X131551219Y-82977246D01*
X131250865Y-82254492D01*
X131250855Y-82245543D01*
X131551227Y-81522733D01*
X131557566Y-81516409D01*
X131566521Y-81516420D01*
G37*
%TD.AperFunction*%
%TA.AperFunction,Conductor*%
G36*
X152922774Y-92358540D02*
G01*
X152926132Y-92365549D01*
X152962559Y-92701142D01*
X153062241Y-92929365D01*
X153204554Y-93113958D01*
X153204554Y-93113959D01*
X153369402Y-93328314D01*
X153370471Y-93329979D01*
X153533105Y-93637619D01*
X153533942Y-93646534D01*
X153528229Y-93653431D01*
X153527251Y-93653891D01*
X152804490Y-93954247D01*
X152795536Y-93954257D01*
X152795510Y-93954247D01*
X152072748Y-93653891D01*
X152066423Y-93647552D01*
X152066434Y-93638597D01*
X152066889Y-93637629D01*
X152229534Y-93329967D01*
X152230588Y-93328325D01*
X152395445Y-93113959D01*
X152537758Y-92929365D01*
X152637440Y-92701142D01*
X152673867Y-92365549D01*
X152678167Y-92357695D01*
X152685499Y-92355113D01*
X152914501Y-92355113D01*
X152922774Y-92358540D01*
G37*
%TD.AperFunction*%
%TA.AperFunction,Conductor*%
G36*
X125340865Y-92287341D02*
G01*
X125502657Y-92449133D01*
X125506084Y-92457406D01*
X125503435Y-92464821D01*
X125339344Y-92665116D01*
X125263398Y-92841974D01*
X125233419Y-93017873D01*
X125200653Y-93222625D01*
X125200248Y-93224327D01*
X125119651Y-93477388D01*
X125113875Y-93484231D01*
X125104952Y-93484985D01*
X125104042Y-93484653D01*
X124543085Y-93253269D01*
X124536743Y-93246946D01*
X124536730Y-93246914D01*
X124305346Y-92685957D01*
X124305359Y-92677003D01*
X124311701Y-92670680D01*
X124312603Y-92670350D01*
X124565678Y-92589747D01*
X124567365Y-92589345D01*
X124772125Y-92556579D01*
X124948024Y-92526600D01*
X125124882Y-92450654D01*
X125325178Y-92286562D01*
X125333749Y-92283971D01*
X125340865Y-92287341D01*
G37*
%TD.AperFunction*%
%TA.AperFunction,Conductor*%
G36*
X124913670Y-63135431D02*
G01*
X124914122Y-63135631D01*
X125021831Y-63186160D01*
X125058392Y-63203312D01*
X125059077Y-63203661D01*
X125168746Y-63264200D01*
X125168900Y-63264273D01*
X125168907Y-63264277D01*
X125203522Y-63280774D01*
X125265605Y-63310364D01*
X125381847Y-63339715D01*
X125539014Y-63349328D01*
X125547063Y-63353253D01*
X125550000Y-63361006D01*
X125550000Y-63638993D01*
X125546573Y-63647266D01*
X125539014Y-63650671D01*
X125381847Y-63660284D01*
X125265606Y-63689634D01*
X125168907Y-63735721D01*
X125168875Y-63735737D01*
X125168746Y-63735799D01*
X125168597Y-63735881D01*
X125168582Y-63735889D01*
X125059077Y-63796337D01*
X125058392Y-63796686D01*
X124914137Y-63864361D01*
X124905192Y-63864773D01*
X124898576Y-63858738D01*
X124898381Y-63858299D01*
X124750875Y-63504499D01*
X124750855Y-63495550D01*
X124898370Y-63141726D01*
X124904716Y-63135410D01*
X124913670Y-63135431D01*
G37*
%TD.AperFunction*%
%TA.AperFunction,Conductor*%
G36*
X159357704Y-60908840D02*
G01*
X159358230Y-60909402D01*
X159519999Y-61094202D01*
X159520192Y-61094386D01*
X159689774Y-61256089D01*
X159689779Y-61256093D01*
X159689999Y-61256303D01*
X159860000Y-61386303D01*
X159860325Y-61386490D01*
X160030001Y-61484203D01*
X160192522Y-61547106D01*
X160199001Y-61553288D01*
X160199999Y-61558017D01*
X160199999Y-61941982D01*
X160196572Y-61950255D01*
X160192522Y-61952893D01*
X160030001Y-62015795D01*
X159860325Y-62113508D01*
X159860315Y-62113514D01*
X159860000Y-62113696D01*
X159859710Y-62113917D01*
X159859699Y-62113925D01*
X159690247Y-62243505D01*
X159690231Y-62243517D01*
X159689999Y-62243696D01*
X159689789Y-62243895D01*
X159689774Y-62243909D01*
X159520192Y-62405612D01*
X159520181Y-62405622D01*
X159519999Y-62405797D01*
X159519824Y-62405996D01*
X159519822Y-62405999D01*
X159358230Y-62590597D01*
X159350202Y-62594565D01*
X159341720Y-62591695D01*
X159341167Y-62591178D01*
X158507287Y-61758277D01*
X158503855Y-61750006D01*
X158507275Y-61741733D01*
X159341160Y-60908828D01*
X159349433Y-60905408D01*
X159357704Y-60908840D01*
G37*
%TD.AperFunction*%
%TA.AperFunction,Conductor*%
G36*
X105391713Y-65851562D02*
G01*
X105746195Y-65997436D01*
X105752542Y-66003754D01*
X105752563Y-66003804D01*
X105898421Y-66358249D01*
X105898400Y-66367203D01*
X105892053Y-66373521D01*
X105891577Y-66373705D01*
X105741713Y-66427858D01*
X105740982Y-66428095D01*
X105620808Y-66462783D01*
X105620796Y-66462786D01*
X105620636Y-66462833D01*
X105620485Y-66462886D01*
X105620471Y-66462891D01*
X105519503Y-66498679D01*
X105416555Y-66560120D01*
X105298624Y-66664458D01*
X105290157Y-66667373D01*
X105282598Y-66663968D01*
X105086031Y-66467401D01*
X105082604Y-66459128D01*
X105085539Y-66451378D01*
X105189878Y-66333444D01*
X105251319Y-66230495D01*
X105287165Y-66129363D01*
X105321905Y-66009005D01*
X105322139Y-66008284D01*
X105376294Y-65858421D01*
X105382329Y-65851805D01*
X105391274Y-65851393D01*
X105391713Y-65851562D01*
G37*
%TD.AperFunction*%
%TA.AperFunction,Conductor*%
G36*
X121908282Y-72158346D02*
G01*
X121909100Y-72159089D01*
X122106479Y-72356236D01*
X122742712Y-72991722D01*
X122746144Y-72999993D01*
X122742722Y-73008268D01*
X122742712Y-73008278D01*
X121909104Y-73840906D01*
X121900829Y-73844328D01*
X121892558Y-73840896D01*
X121891811Y-73840074D01*
X121730151Y-73644115D01*
X121730150Y-73644114D01*
X121730000Y-73643932D01*
X121560000Y-73470898D01*
X121389999Y-73330898D01*
X121219999Y-73223932D01*
X121219996Y-73223930D01*
X121113800Y-73177746D01*
X121057032Y-73153058D01*
X121050813Y-73146617D01*
X121050000Y-73142335D01*
X121050000Y-72857666D01*
X121053426Y-72849396D01*
X121057027Y-72846943D01*
X121219999Y-72776067D01*
X121389999Y-72669101D01*
X121560000Y-72529101D01*
X121730000Y-72356067D01*
X121891813Y-72159923D01*
X121899719Y-72155724D01*
X121908282Y-72158346D01*
G37*
%TD.AperFunction*%
%TA.AperFunction,Conductor*%
G36*
X150158272Y-83748370D02*
G01*
X150164589Y-83754716D01*
X150164568Y-83763670D01*
X150164361Y-83764137D01*
X150096686Y-83908392D01*
X150096337Y-83909077D01*
X150035889Y-84018582D01*
X150035881Y-84018597D01*
X150035799Y-84018746D01*
X150035737Y-84018875D01*
X150035721Y-84018907D01*
X149989634Y-84115606D01*
X149960284Y-84231847D01*
X149950672Y-84389014D01*
X149946747Y-84397063D01*
X149938994Y-84400000D01*
X149661006Y-84400000D01*
X149652733Y-84396573D01*
X149649328Y-84389014D01*
X149639715Y-84231847D01*
X149610364Y-84115605D01*
X149564200Y-84018746D01*
X149503661Y-83909077D01*
X149503312Y-83908392D01*
X149435638Y-83764137D01*
X149435226Y-83755192D01*
X149441261Y-83748576D01*
X149441683Y-83748388D01*
X149795500Y-83600875D01*
X149804449Y-83600855D01*
X150158272Y-83748370D01*
G37*
%TD.AperFunction*%
%TA.AperFunction,Conductor*%
G36*
X148251357Y-77041441D02*
G01*
X148252147Y-77043001D01*
X148398960Y-77396056D01*
X148398973Y-77405010D01*
X148398955Y-77405052D01*
X148251214Y-77759273D01*
X148244867Y-77765589D01*
X148236449Y-77765776D01*
X148074127Y-77707278D01*
X148074122Y-77707276D01*
X148073885Y-77707191D01*
X148073656Y-77707130D01*
X148073641Y-77707126D01*
X147945800Y-77673472D01*
X147836154Y-77644387D01*
X147834725Y-77643907D01*
X147716329Y-77595488D01*
X147714786Y-77594720D01*
X147569473Y-77508470D01*
X147564108Y-77501301D01*
X147565384Y-77492437D01*
X147565701Y-77491932D01*
X147720267Y-77260611D01*
X147727711Y-77255637D01*
X147734330Y-77256245D01*
X147845106Y-77300486D01*
X147935451Y-77273740D01*
X148018149Y-77200888D01*
X148018293Y-77200756D01*
X148095213Y-77128664D01*
X148113888Y-77111161D01*
X148115830Y-77109691D01*
X148235294Y-77037479D01*
X148244144Y-77036133D01*
X148251357Y-77041441D01*
G37*
%TD.AperFunction*%
%TA.AperFunction,Conductor*%
G36*
X161516577Y-56429622D02*
G01*
X162286215Y-56747438D01*
X162292552Y-56753761D01*
X162292562Y-56753785D01*
X162610372Y-57523410D01*
X162610363Y-57532365D01*
X162604024Y-57538690D01*
X162602984Y-57539063D01*
X162247835Y-57647829D01*
X162245855Y-57648252D01*
X161959709Y-57683891D01*
X161712864Y-57713756D01*
X161465377Y-57808894D01*
X161184485Y-58033917D01*
X161175886Y-58036415D01*
X161168897Y-58033059D01*
X161006939Y-57871102D01*
X161003512Y-57862829D01*
X161006080Y-57855516D01*
X161231104Y-57574619D01*
X161326241Y-57327135D01*
X161356107Y-57080289D01*
X161391745Y-56794139D01*
X161392168Y-56792163D01*
X161405298Y-56749293D01*
X161500936Y-56437014D01*
X161506635Y-56430108D01*
X161515549Y-56429254D01*
X161516577Y-56429622D01*
G37*
%TD.AperFunction*%
%TA.AperFunction,Conductor*%
G36*
X139530929Y-84553002D02*
G01*
X139651486Y-84656707D01*
X139758214Y-84713598D01*
X139758216Y-84713599D01*
X139819195Y-84730931D01*
X139863588Y-84743549D01*
X139987767Y-84773385D01*
X139988833Y-84773696D01*
X140141358Y-84826400D01*
X140148057Y-84832339D01*
X140148594Y-84841278D01*
X140148356Y-84841909D01*
X140002563Y-85196195D01*
X139996245Y-85202542D01*
X139996195Y-85202563D01*
X139641909Y-85348356D01*
X139632955Y-85348335D01*
X139626637Y-85341988D01*
X139626406Y-85341378D01*
X139573696Y-85188833D01*
X139573385Y-85187767D01*
X139543549Y-85063588D01*
X139513598Y-84958214D01*
X139456707Y-84851486D01*
X139353002Y-84730929D01*
X139350206Y-84722424D01*
X139353599Y-84715029D01*
X139515029Y-84553599D01*
X139523301Y-84550173D01*
X139530929Y-84553002D01*
G37*
%TD.AperFunction*%
%TA.AperFunction,Conductor*%
G36*
X161408279Y-60908304D02*
G01*
X161408831Y-60908820D01*
X161886645Y-61386073D01*
X162242712Y-61741722D01*
X162246144Y-61749993D01*
X162242722Y-61758268D01*
X162242712Y-61758278D01*
X161408841Y-62591169D01*
X161400566Y-62594591D01*
X161392295Y-62591159D01*
X161391769Y-62590597D01*
X161369883Y-62565595D01*
X161230000Y-62405797D01*
X161229806Y-62405612D01*
X161060224Y-62243909D01*
X161060218Y-62243903D01*
X161060000Y-62243696D01*
X161059757Y-62243510D01*
X161059751Y-62243505D01*
X160890299Y-62113925D01*
X160890294Y-62113922D01*
X160889999Y-62113696D01*
X160889673Y-62113508D01*
X160719997Y-62015795D01*
X160557477Y-61952893D01*
X160550998Y-61946711D01*
X160550000Y-61941982D01*
X160550000Y-61558017D01*
X160553427Y-61549744D01*
X160557477Y-61547106D01*
X160719997Y-61484203D01*
X160719999Y-61484202D01*
X160889999Y-61386303D01*
X161060000Y-61256303D01*
X161230000Y-61094202D01*
X161391770Y-60909401D01*
X161399797Y-60905434D01*
X161408279Y-60908304D01*
G37*
%TD.AperFunction*%
%TA.AperFunction,Conductor*%
G36*
X116316547Y-72266356D02*
G01*
X116317457Y-72266781D01*
X116623837Y-72426196D01*
X116625379Y-72427157D01*
X116840567Y-72585773D01*
X117026622Y-72720978D01*
X117202046Y-72792915D01*
X117255526Y-72814847D01*
X117589488Y-72848927D01*
X117597370Y-72853176D01*
X117600000Y-72860567D01*
X117600000Y-73139432D01*
X117596573Y-73147705D01*
X117589488Y-73151072D01*
X117255524Y-73185152D01*
X117026622Y-73279020D01*
X116840567Y-73414225D01*
X116625379Y-73572840D01*
X116623837Y-73573801D01*
X116317457Y-73733218D01*
X116308537Y-73733997D01*
X116301678Y-73728239D01*
X116301259Y-73727342D01*
X116000864Y-73004487D01*
X116000854Y-72995538D01*
X116301254Y-72272668D01*
X116307592Y-72266345D01*
X116316547Y-72266356D01*
G37*
%TD.AperFunction*%
%TA.AperFunction,Conductor*%
G36*
X131594543Y-93016760D02*
G01*
X132155500Y-93248144D01*
X132161842Y-93254467D01*
X132161855Y-93254499D01*
X132393239Y-93815456D01*
X132393226Y-93824410D01*
X132386884Y-93830733D01*
X132385974Y-93831065D01*
X132132913Y-93911662D01*
X132131211Y-93912067D01*
X131926459Y-93944833D01*
X131750559Y-93974812D01*
X131573702Y-94050758D01*
X131373407Y-94214849D01*
X131364835Y-94217441D01*
X131357719Y-94214071D01*
X131195928Y-94052280D01*
X131192501Y-94044007D01*
X131195149Y-94036593D01*
X131359241Y-93836297D01*
X131435186Y-93659439D01*
X131465165Y-93483539D01*
X131497932Y-93278779D01*
X131498334Y-93277092D01*
X131578934Y-93024024D01*
X131584710Y-93017182D01*
X131593633Y-93016428D01*
X131594543Y-93016760D01*
G37*
%TD.AperFunction*%
%TA.AperFunction,Conductor*%
G36*
X119367203Y-78601599D02*
G01*
X119373521Y-78607946D01*
X119373705Y-78608422D01*
X119427858Y-78758284D01*
X119428095Y-78759015D01*
X119462783Y-78879190D01*
X119462833Y-78879363D01*
X119498679Y-78980495D01*
X119560121Y-79083444D01*
X119664458Y-79201376D01*
X119667373Y-79209842D01*
X119663968Y-79217401D01*
X119467401Y-79413968D01*
X119459128Y-79417395D01*
X119451376Y-79414458D01*
X119333444Y-79310121D01*
X119230495Y-79248679D01*
X119129363Y-79212833D01*
X119118228Y-79209619D01*
X119009015Y-79178095D01*
X119008284Y-79177858D01*
X118858422Y-79123705D01*
X118851806Y-79117670D01*
X118851394Y-79108725D01*
X118851578Y-79108249D01*
X118861786Y-79083444D01*
X118997437Y-78753802D01*
X119003753Y-78747457D01*
X119358249Y-78601578D01*
X119367203Y-78601599D01*
G37*
%TD.AperFunction*%
%TA.AperFunction,Conductor*%
G36*
X158909200Y-56086432D02*
G01*
X158909964Y-56086985D01*
X159242168Y-56348685D01*
X159740372Y-56741155D01*
X159744750Y-56748967D01*
X159742323Y-56757586D01*
X159741405Y-56758619D01*
X158907607Y-57592392D01*
X158899334Y-57595819D01*
X158891782Y-57593055D01*
X158762865Y-57484114D01*
X158762855Y-57484106D01*
X158762625Y-57483912D01*
X158762381Y-57483747D01*
X158762376Y-57483743D01*
X158625549Y-57391144D01*
X158625545Y-57391141D01*
X158625250Y-57390942D01*
X158624922Y-57390775D01*
X158487879Y-57321089D01*
X158480027Y-57318417D01*
X158350501Y-57274352D01*
X158328491Y-57270567D01*
X158216901Y-57251381D01*
X158210466Y-57247976D01*
X158014773Y-57045259D01*
X158011493Y-57036927D01*
X158015065Y-57028715D01*
X158016958Y-57027231D01*
X158183815Y-56922316D01*
X158362861Y-56770450D01*
X158541907Y-56579299D01*
X158720953Y-56348860D01*
X158892981Y-56089708D01*
X158900412Y-56084712D01*
X158909200Y-56086432D01*
G37*
%TD.AperFunction*%
%TA.AperFunction,Conductor*%
G36*
X128522419Y-89403427D02*
G01*
X128525813Y-89410823D01*
X128537728Y-89569398D01*
X128572969Y-89685091D01*
X128572970Y-89685094D01*
X128601226Y-89735793D01*
X128626243Y-89780681D01*
X128626254Y-89780700D01*
X128626301Y-89780784D01*
X128626360Y-89780880D01*
X128693008Y-89889682D01*
X128693552Y-89890676D01*
X128764130Y-90035779D01*
X128764667Y-90044718D01*
X128758727Y-90051418D01*
X128758111Y-90051696D01*
X128404502Y-90199123D01*
X128395548Y-90199144D01*
X128395498Y-90199123D01*
X128041888Y-90051696D01*
X128035570Y-90045349D01*
X128035591Y-90036395D01*
X128035859Y-90035801D01*
X128106448Y-89890671D01*
X128106982Y-89889694D01*
X128173697Y-89780784D01*
X128227029Y-89685094D01*
X128262270Y-89569398D01*
X128274186Y-89410823D01*
X128278224Y-89402830D01*
X128285854Y-89400000D01*
X128514146Y-89400000D01*
X128522419Y-89403427D01*
G37*
%TD.AperFunction*%
%TA.AperFunction,Conductor*%
G36*
X137813000Y-93016771D02*
G01*
X137819323Y-93023113D01*
X137819654Y-93024020D01*
X137900284Y-93276918D01*
X137900688Y-93278612D01*
X137933629Y-93483183D01*
X137963821Y-93658899D01*
X138039920Y-93835591D01*
X138129224Y-93944530D01*
X138203997Y-94035744D01*
X138206592Y-94044313D01*
X138203222Y-94051433D01*
X138041428Y-94213227D01*
X138033155Y-94216654D01*
X138025745Y-94214007D01*
X137827154Y-94051433D01*
X137825371Y-94049973D01*
X137811272Y-94043940D01*
X137648387Y-93974240D01*
X137648385Y-93974239D01*
X137472347Y-93944530D01*
X137267474Y-93911988D01*
X137265763Y-93911583D01*
X137012618Y-93831062D01*
X137005772Y-93825288D01*
X137005014Y-93816366D01*
X137005343Y-93815462D01*
X137236730Y-93254498D01*
X137243052Y-93248157D01*
X137804047Y-93016758D01*
X137813000Y-93016771D01*
G37*
%TD.AperFunction*%
%TA.AperFunction,Conductor*%
G36*
X140012776Y-73993291D02*
G01*
X140013465Y-73993855D01*
X140279574Y-74228716D01*
X140280148Y-74229259D01*
X140512856Y-74464813D01*
X140512862Y-74464819D01*
X140513078Y-74465037D01*
X140513324Y-74465238D01*
X140759951Y-74666858D01*
X141076813Y-74807618D01*
X141076814Y-74807618D01*
X141076816Y-74807619D01*
X141509686Y-74859269D01*
X141517495Y-74863652D01*
X141520000Y-74870887D01*
X141520000Y-75100112D01*
X141516573Y-75108385D01*
X141509686Y-75111730D01*
X141076813Y-75163380D01*
X140759951Y-75304140D01*
X140513324Y-75505760D01*
X140513314Y-75505768D01*
X140513078Y-75505962D01*
X140512872Y-75506170D01*
X140512856Y-75506185D01*
X140280148Y-75741739D01*
X140279567Y-75742288D01*
X140013468Y-75977142D01*
X140004998Y-75980047D01*
X139996954Y-75976112D01*
X139996395Y-75975429D01*
X139254321Y-74992548D01*
X139252072Y-74983882D01*
X139254321Y-74978452D01*
X139996390Y-73995577D01*
X140004108Y-73991041D01*
X140012776Y-73993291D01*
G37*
%TD.AperFunction*%
%TA.AperFunction,Conductor*%
G36*
X140251418Y-81841274D02*
G01*
X140251703Y-81841905D01*
X140399122Y-82195493D01*
X140399143Y-82204447D01*
X140399122Y-82204497D01*
X140251690Y-82558125D01*
X140245344Y-82564443D01*
X140236389Y-82564422D01*
X140235787Y-82564151D01*
X140091103Y-82494002D01*
X140090142Y-82493479D01*
X139981433Y-82427577D01*
X139981321Y-82427509D01*
X139981236Y-82427462D01*
X139981218Y-82427452D01*
X139885603Y-82375126D01*
X139770024Y-82340966D01*
X139770021Y-82340965D01*
X139655260Y-82333083D01*
X139611962Y-82330110D01*
X139603943Y-82326124D01*
X139601064Y-82318502D01*
X139599816Y-82090211D01*
X139603198Y-82081920D01*
X139610561Y-82078487D01*
X139769442Y-82065492D01*
X139885082Y-82029141D01*
X139980597Y-81974838D01*
X139980779Y-81974727D01*
X140043106Y-81936101D01*
X140089421Y-81907400D01*
X140090412Y-81906852D01*
X140235773Y-81835892D01*
X140244709Y-81835343D01*
X140251418Y-81841274D01*
G37*
%TD.AperFunction*%
%TA.AperFunction,Conductor*%
G36*
X147116516Y-58601882D02*
G01*
X147122835Y-58608228D01*
X147123234Y-58609359D01*
X147158378Y-58728003D01*
X147158783Y-58729988D01*
X147170805Y-58834454D01*
X147170824Y-58834603D01*
X147183110Y-58923852D01*
X147222721Y-59007666D01*
X147309300Y-59089341D01*
X147312966Y-59097511D01*
X147310737Y-59104729D01*
X147146953Y-59330164D01*
X147139317Y-59334843D01*
X147131157Y-59333127D01*
X147018866Y-59260887D01*
X146924679Y-59219702D01*
X146836937Y-59195674D01*
X146735168Y-59169046D01*
X146734183Y-59168741D01*
X146608461Y-59123685D01*
X146601829Y-59117668D01*
X146601394Y-59108724D01*
X146601578Y-59108244D01*
X146747335Y-58753923D01*
X146753651Y-58747577D01*
X146753701Y-58747556D01*
X147107563Y-58601863D01*
X147116516Y-58601882D01*
G37*
%TD.AperFunction*%
%TA.AperFunction,Conductor*%
G36*
X163107704Y-60908840D02*
G01*
X163108230Y-60909402D01*
X163269999Y-61094202D01*
X163270192Y-61094386D01*
X163439774Y-61256089D01*
X163439779Y-61256093D01*
X163439999Y-61256303D01*
X163610000Y-61386303D01*
X163610325Y-61386490D01*
X163780001Y-61484203D01*
X163942522Y-61547106D01*
X163949001Y-61553288D01*
X163949999Y-61558017D01*
X163949999Y-61941982D01*
X163946572Y-61950255D01*
X163942522Y-61952893D01*
X163780001Y-62015795D01*
X163610325Y-62113508D01*
X163610315Y-62113514D01*
X163610000Y-62113696D01*
X163609710Y-62113917D01*
X163609699Y-62113925D01*
X163440247Y-62243505D01*
X163440231Y-62243517D01*
X163439999Y-62243696D01*
X163439789Y-62243895D01*
X163439774Y-62243909D01*
X163270192Y-62405612D01*
X163270181Y-62405622D01*
X163269999Y-62405797D01*
X163269824Y-62405996D01*
X163269822Y-62405999D01*
X163108230Y-62590597D01*
X163100202Y-62594565D01*
X163091720Y-62591695D01*
X163091167Y-62591178D01*
X162257286Y-61758276D01*
X162253855Y-61750007D01*
X162257276Y-61741733D01*
X163091160Y-60908828D01*
X163099433Y-60905408D01*
X163107704Y-60908840D01*
G37*
%TD.AperFunction*%
%TA.AperFunction,Conductor*%
G36*
X136674543Y-93016760D02*
G01*
X137235500Y-93248144D01*
X137241842Y-93254467D01*
X137241855Y-93254499D01*
X137473239Y-93815456D01*
X137473226Y-93824410D01*
X137466884Y-93830733D01*
X137465974Y-93831065D01*
X137212913Y-93911662D01*
X137211211Y-93912067D01*
X137006459Y-93944833D01*
X136830560Y-93974812D01*
X136653702Y-94050758D01*
X136453407Y-94214849D01*
X136444835Y-94217441D01*
X136437719Y-94214071D01*
X136275927Y-94052280D01*
X136272500Y-94044007D01*
X136275148Y-94036593D01*
X136439240Y-93836297D01*
X136515186Y-93659439D01*
X136545165Y-93483539D01*
X136577932Y-93278779D01*
X136578334Y-93277092D01*
X136658934Y-93024024D01*
X136664710Y-93017182D01*
X136673633Y-93016428D01*
X136674543Y-93016760D01*
G37*
%TD.AperFunction*%
%TA.AperFunction,Conductor*%
G36*
X100177141Y-72821629D02*
G01*
X100184586Y-72826604D01*
X100186551Y-72833497D01*
X100173770Y-73213472D01*
X100288421Y-73496889D01*
X100404299Y-73626229D01*
X100488228Y-73719909D01*
X100488514Y-73720155D01*
X100730265Y-73928361D01*
X100730873Y-73928923D01*
X100963785Y-74160136D01*
X100967242Y-74168396D01*
X100963845Y-74176682D01*
X100963067Y-74177398D01*
X100007331Y-74980157D01*
X99998792Y-74982854D01*
X99992279Y-74980156D01*
X99036427Y-74176977D01*
X99032298Y-74169031D01*
X99034996Y-74160492D01*
X99035242Y-74160211D01*
X99256185Y-73916667D01*
X99459257Y-73700736D01*
X99634350Y-73470641D01*
X99634349Y-73470641D01*
X99634351Y-73470640D01*
X99779477Y-73175652D01*
X99889759Y-72775534D01*
X99895261Y-72768469D01*
X99903319Y-72767168D01*
X100177141Y-72821629D01*
G37*
%TD.AperFunction*%
%TA.AperFunction,Conductor*%
G36*
X142041765Y-93051584D02*
G01*
X142396195Y-93197436D01*
X142402542Y-93203754D01*
X142402563Y-93203804D01*
X142404378Y-93208214D01*
X142538205Y-93533423D01*
X142548296Y-93557943D01*
X142548275Y-93566897D01*
X142541928Y-93573215D01*
X142541157Y-93573501D01*
X142387193Y-93624537D01*
X142385787Y-93624908D01*
X142258979Y-93650044D01*
X142258868Y-93650069D01*
X142150504Y-93674367D01*
X142041075Y-93726720D01*
X141918899Y-93829200D01*
X141910358Y-93831891D01*
X141903107Y-93828509D01*
X141741669Y-93667072D01*
X141738242Y-93658799D01*
X141741154Y-93651075D01*
X141844626Y-93533423D01*
X141904718Y-93430351D01*
X141939105Y-93328985D01*
X141972603Y-93208588D01*
X141972841Y-93207840D01*
X142026317Y-93058465D01*
X142032330Y-93051833D01*
X142041275Y-93051396D01*
X142041765Y-93051584D01*
G37*
%TD.AperFunction*%
%TA.AperFunction,Conductor*%
G36*
X125763381Y-77807278D02*
G01*
X125763391Y-77807288D01*
X126545396Y-78590271D01*
X126548818Y-78598546D01*
X126545386Y-78606817D01*
X126543954Y-78608034D01*
X126420434Y-78696964D01*
X126420425Y-78696970D01*
X126420113Y-78697196D01*
X126419839Y-78697456D01*
X126419828Y-78697466D01*
X126285333Y-78825583D01*
X126285319Y-78825597D01*
X126285112Y-78825795D01*
X126284921Y-78826021D01*
X126284911Y-78826032D01*
X126150277Y-78985599D01*
X126150262Y-78985617D01*
X126150113Y-78985795D01*
X126149972Y-78985993D01*
X126149968Y-78986000D01*
X126015224Y-79177037D01*
X126015209Y-79177058D01*
X126015113Y-79177196D01*
X126015018Y-79177351D01*
X126015008Y-79177368D01*
X125883529Y-79394363D01*
X125876311Y-79399663D01*
X125873523Y-79400000D01*
X125636703Y-79400000D01*
X125628430Y-79396573D01*
X125626697Y-79394363D01*
X125495217Y-79177368D01*
X125495113Y-79177196D01*
X125360112Y-78985795D01*
X125225113Y-78825795D01*
X125224895Y-78825588D01*
X125224891Y-78825583D01*
X125090397Y-78697466D01*
X125090392Y-78697462D01*
X125090113Y-78697196D01*
X124966270Y-78608032D01*
X124961559Y-78600419D01*
X124963612Y-78591703D01*
X124964824Y-78590276D01*
X125746835Y-77807287D01*
X125755106Y-77803856D01*
X125763381Y-77807278D01*
G37*
%TD.AperFunction*%
%TA.AperFunction,Conductor*%
G36*
X138023384Y-74812172D02*
G01*
X139241884Y-74983552D01*
X139249599Y-74988098D01*
X139251856Y-74993629D01*
X139411877Y-76223671D01*
X139409546Y-76232317D01*
X139401784Y-76236782D01*
X139400885Y-76236864D01*
X139049516Y-76255204D01*
X139048701Y-76255218D01*
X138721217Y-76249473D01*
X138721205Y-76249473D01*
X138720899Y-76249468D01*
X138720602Y-76249494D01*
X138720588Y-76249495D01*
X138407883Y-76277455D01*
X138089088Y-76397708D01*
X137751681Y-76662354D01*
X137743056Y-76664763D01*
X137736187Y-76661421D01*
X137574076Y-76499310D01*
X137570649Y-76491037D01*
X137573141Y-76483819D01*
X137840263Y-76143215D01*
X137962331Y-75821164D01*
X137992053Y-75505337D01*
X137988536Y-75175656D01*
X137988556Y-75174845D01*
X138010098Y-74823044D01*
X138014024Y-74814998D01*
X138022491Y-74812083D01*
X138023384Y-74812172D01*
G37*
%TD.AperFunction*%
%TA.AperFunction,Conductor*%
G36*
X152307771Y-69208773D02*
G01*
X152308238Y-69209268D01*
X152460000Y-69380000D01*
X152620000Y-69530000D01*
X152779999Y-69650000D01*
X152939999Y-69740000D01*
X153092408Y-69797153D01*
X153098951Y-69803266D01*
X153100000Y-69808108D01*
X153100000Y-70191891D01*
X153096573Y-70200164D01*
X153092408Y-70202846D01*
X152939997Y-70260000D01*
X152780331Y-70349813D01*
X152779999Y-70350000D01*
X152779708Y-70350217D01*
X152779696Y-70350226D01*
X152620262Y-70469803D01*
X152620256Y-70469807D01*
X152620000Y-70470000D01*
X152619773Y-70470212D01*
X152619762Y-70470222D01*
X152460192Y-70619819D01*
X152460180Y-70619830D01*
X152460000Y-70620000D01*
X152459834Y-70620186D01*
X152459824Y-70620197D01*
X152308238Y-70790731D01*
X152300180Y-70794638D01*
X152291720Y-70791703D01*
X152291225Y-70791236D01*
X151969810Y-70470222D01*
X151507287Y-70008277D01*
X151503856Y-70000007D01*
X151507278Y-69991732D01*
X151507288Y-69991722D01*
X152291226Y-69208762D01*
X152299500Y-69205341D01*
X152307771Y-69208773D01*
G37*
%TD.AperFunction*%
%TA.AperFunction,Conductor*%
G36*
X132733000Y-93016771D02*
G01*
X132739323Y-93023113D01*
X132739654Y-93024020D01*
X132820284Y-93276918D01*
X132820688Y-93278612D01*
X132853629Y-93483183D01*
X132883821Y-93658899D01*
X132959920Y-93835591D01*
X133049224Y-93944530D01*
X133123997Y-94035744D01*
X133126592Y-94044313D01*
X133123222Y-94051433D01*
X132961428Y-94213227D01*
X132953155Y-94216654D01*
X132945745Y-94214007D01*
X132747154Y-94051433D01*
X132745371Y-94049973D01*
X132731272Y-94043940D01*
X132568387Y-93974240D01*
X132568385Y-93974239D01*
X132392347Y-93944530D01*
X132187474Y-93911988D01*
X132185763Y-93911583D01*
X131932618Y-93831062D01*
X131925772Y-93825288D01*
X131925014Y-93816366D01*
X131925343Y-93815462D01*
X132156730Y-93254498D01*
X132163052Y-93248157D01*
X132724047Y-93016758D01*
X132733000Y-93016771D01*
G37*
%TD.AperFunction*%
M02*
