M48
; DRILL file {KiCad 7.0.2} date Sun Jul 16 22:25:03 2023
; FORMAT={-:-/ absolute / metric / decimal}
; #@! TF.CreationDate,2023-07-16T22:25:03-04:00
; #@! TF.GenerationSoftware,Kicad,Pcbnew,7.0.2
; #@! TF.FileFunction,Plated,1,4,PTH
FMAT,2
METRIC
; #@! TA.AperFunction,Plated,PTH,ViaDrill
T1C0.400
; #@! TA.AperFunction,Plated,PTH,ComponentDrill
T2C0.740
; #@! TA.AperFunction,Plated,PTH,ComponentDrill
T3C0.800
; #@! TA.AperFunction,Plated,PTH,ComponentDrill
T4C1.000
; #@! TA.AperFunction,Plated,PTH,ComponentDrill
T5C1.400
%
G90
G05
T1
X105.75Y-66.0
X107.0Y-59.25
X107.0Y-62.75
X109.25Y-55.25
X111.5Y-65.5
X117.0Y-77.0
X117.75Y-63.75
X118.75Y-56.75
X119.0Y-78.75
X119.25Y-68.75
X124.0Y-54.75
X124.75Y-63.5
X127.5Y-97.25
X128.4Y-90.2
X132.4Y-89.8
X137.6Y-83.2
X140.0Y-85.2
X140.4Y-82.2
X141.6Y-57.0
X142.4Y-93.2
X144.6Y-90.2
X145.2Y-79.4
X145.75Y-62.5
X146.75Y-58.75
X147.2Y-90.4
X148.4Y-77.4
X149.8Y-83.6
X150.2Y-90.2
X151.2Y-85.4
X152.2Y-99.2
T2
X121.999Y-93.251
X121.999Y-101.191
X124.539Y-93.251
X124.539Y-101.191
X127.079Y-93.251
X127.079Y-101.191
X129.619Y-93.251
X129.619Y-101.191
X132.159Y-93.251
X132.159Y-101.191
X134.699Y-93.251
X134.699Y-101.191
X137.239Y-93.251
X137.239Y-101.191
X139.779Y-93.251
X139.779Y-101.191
T3
X116.0Y-71.0
X116.0Y-73.0
X123.755Y-77.8
X125.755Y-77.8
X127.5Y-56.25
X127.5Y-58.25
X129.25Y-82.25
X131.25Y-82.25
X145.318Y-105.0
X147.818Y-105.0
X149.5Y-70.0
X151.5Y-70.0
X152.8Y-93.955
X152.8Y-95.955
X153.3Y-105.4
X154.5Y-73.75
X154.5Y-75.75
X155.8Y-105.4
X160.92Y-71.25
X160.92Y-78.87
X163.46Y-71.25
X163.46Y-78.87
X166.0Y-71.25
X166.0Y-78.87
X168.54Y-71.25
X168.54Y-78.87
T4
X122.75Y-73.0
X131.25Y-108.75
X135.5Y-105.0
X135.5Y-108.75
X156.75Y-67.0
X158.5Y-61.75
X159.75Y-56.75
X160.5Y-67.0
X162.25Y-61.75
X162.29Y-56.75
X164.25Y-67.0
X166.0Y-61.75
X168.0Y-67.0
T5
X94.92Y-74.986
X100.0Y-74.986
X105.08Y-74.986
X134.17Y-74.986
X139.25Y-74.986
X144.33Y-74.986
X173.457Y-75.0
X178.537Y-75.0
X183.617Y-75.0
T0
M30
