%TF.GenerationSoftware,KiCad,Pcbnew,7.0.2*%
%TF.CreationDate,2023-07-16T22:24:44-04:00*%
%TF.ProjectId,hellerune,68656c6c-6572-4756-9e65-2e6b69636164,rev?*%
%TF.SameCoordinates,Original*%
%TF.FileFunction,Soldermask,Top*%
%TF.FilePolarity,Negative*%
%FSLAX46Y46*%
G04 Gerber Fmt 4.6, Leading zero omitted, Abs format (unit mm)*
G04 Created by KiCad (PCBNEW 7.0.2) date 2023-07-16 22:24:44*
%MOMM*%
%LPD*%
G01*
G04 APERTURE LIST*
G04 Aperture macros list*
%AMRoundRect*
0 Rectangle with rounded corners*
0 $1 Rounding radius*
0 $2 $3 $4 $5 $6 $7 $8 $9 X,Y pos of 4 corners*
0 Add a 4 corners polygon primitive as box body*
4,1,4,$2,$3,$4,$5,$6,$7,$8,$9,$2,$3,0*
0 Add four circle primitives for the rounded corners*
1,1,$1+$1,$2,$3*
1,1,$1+$1,$4,$5*
1,1,$1+$1,$6,$7*
1,1,$1+$1,$8,$9*
0 Add four rect primitives between the rounded corners*
20,1,$1+$1,$2,$3,$4,$5,0*
20,1,$1+$1,$4,$5,$6,$7,0*
20,1,$1+$1,$6,$7,$8,$9,0*
20,1,$1+$1,$8,$9,$2,$3,0*%
G04 Aperture macros list end*
%ADD10RoundRect,0.250000X-0.625000X0.312500X-0.625000X-0.312500X0.625000X-0.312500X0.625000X0.312500X0*%
%ADD11RoundRect,0.250000X-0.325000X-0.650000X0.325000X-0.650000X0.325000X0.650000X-0.325000X0.650000X0*%
%ADD12RoundRect,0.150000X0.825000X0.150000X-0.825000X0.150000X-0.825000X-0.150000X0.825000X-0.150000X0*%
%ADD13R,1.700000X1.700000*%
%ADD14O,1.700000X1.700000*%
%ADD15RoundRect,0.250000X-0.450000X0.262500X-0.450000X-0.262500X0.450000X-0.262500X0.450000X0.262500X0*%
%ADD16RoundRect,0.101600X1.270000X1.270000X-1.270000X1.270000X-1.270000X-1.270000X1.270000X-1.270000X0*%
%ADD17C,2.743200*%
%ADD18RoundRect,0.250000X0.312500X0.625000X-0.312500X0.625000X-0.312500X-0.625000X0.312500X-0.625000X0*%
%ADD19RoundRect,0.250000X-0.250000X-0.475000X0.250000X-0.475000X0.250000X0.475000X-0.250000X0.475000X0*%
%ADD20RoundRect,0.112500X-0.187500X-0.112500X0.187500X-0.112500X0.187500X0.112500X-0.187500X0.112500X0*%
%ADD21RoundRect,0.250000X-0.312500X-1.075000X0.312500X-1.075000X0.312500X1.075000X-0.312500X1.075000X0*%
%ADD22RoundRect,0.140000X-0.140000X-0.170000X0.140000X-0.170000X0.140000X0.170000X-0.140000X0.170000X0*%
%ADD23RoundRect,0.250000X-0.312500X-0.625000X0.312500X-0.625000X0.312500X0.625000X-0.312500X0.625000X0*%
%ADD24RoundRect,0.225000X0.225000X0.250000X-0.225000X0.250000X-0.225000X-0.250000X0.225000X-0.250000X0*%
%ADD25RoundRect,0.250000X-0.262500X-0.450000X0.262500X-0.450000X0.262500X0.450000X-0.262500X0.450000X0*%
%ADD26RoundRect,0.250000X0.625000X-0.312500X0.625000X0.312500X-0.625000X0.312500X-0.625000X-0.312500X0*%
%ADD27RoundRect,0.250000X0.312500X1.075000X-0.312500X1.075000X-0.312500X-1.075000X0.312500X-1.075000X0*%
%ADD28RoundRect,0.250000X0.362500X1.075000X-0.362500X1.075000X-0.362500X-1.075000X0.362500X-1.075000X0*%
%ADD29RoundRect,0.140000X0.170000X-0.140000X0.170000X0.140000X-0.170000X0.140000X-0.170000X-0.140000X0*%
%ADD30RoundRect,0.250000X0.325000X0.650000X-0.325000X0.650000X-0.325000X-0.650000X0.325000X-0.650000X0*%
%ADD31RoundRect,0.250000X0.250000X0.475000X-0.250000X0.475000X-0.250000X-0.475000X0.250000X-0.475000X0*%
%ADD32RoundRect,0.200000X-0.200000X-0.275000X0.200000X-0.275000X0.200000X0.275000X-0.200000X0.275000X0*%
%ADD33RoundRect,0.250000X-0.475000X0.250000X-0.475000X-0.250000X0.475000X-0.250000X0.475000X0.250000X0*%
%ADD34RoundRect,0.150000X-0.825000X-0.150000X0.825000X-0.150000X0.825000X0.150000X-0.825000X0.150000X0*%
%ADD35RoundRect,0.250000X0.262500X0.450000X-0.262500X0.450000X-0.262500X-0.450000X0.262500X-0.450000X0*%
%ADD36R,1.500000X1.800000*%
%ADD37R,1.600000X1.600000*%
%ADD38O,1.600000X1.600000*%
%ADD39C,1.600000*%
%ADD40R,1.248000X1.248000*%
%ADD41C,1.248000*%
G04 APERTURE END LIST*
D10*
X121500000Y-54750000D03*
X121500000Y-57675000D03*
D11*
X136050000Y-57000000D03*
X139000000Y-57000000D03*
D10*
X135000000Y-80937500D03*
X135000000Y-83862500D03*
D12*
X116450000Y-60060000D03*
X116450000Y-58790000D03*
X116450000Y-57520000D03*
X116450000Y-56250000D03*
X111500000Y-56250000D03*
X111500000Y-57520000D03*
X111500000Y-58790000D03*
X111500000Y-60060000D03*
D13*
X159750000Y-56750000D03*
D14*
X162290000Y-56750000D03*
D13*
X168000000Y-67000000D03*
D15*
X109500000Y-67587500D03*
X109500000Y-69412500D03*
D13*
X135500000Y-105000000D03*
D16*
X94920000Y-74985500D03*
D17*
X100000000Y-74985500D03*
X105080000Y-74985500D03*
D18*
X142062500Y-79200000D03*
X139137500Y-79200000D03*
D16*
X173456800Y-75000000D03*
D17*
X178536800Y-75000000D03*
X183616800Y-75000000D03*
D13*
X156750000Y-67000000D03*
D18*
X114750000Y-78250000D03*
X111825000Y-78250000D03*
D19*
X109300000Y-74000000D03*
X111200000Y-74000000D03*
D18*
X104712500Y-56250000D03*
X101787500Y-56250000D03*
D13*
X166000000Y-61750000D03*
D20*
X172200000Y-56000000D03*
X174300000Y-56000000D03*
X150300000Y-80400000D03*
X152400000Y-80400000D03*
D21*
X129825000Y-64750000D03*
X132750000Y-64750000D03*
D22*
X121540000Y-108000000D03*
X122500000Y-108000000D03*
D23*
X123825000Y-87750000D03*
X126750000Y-87750000D03*
D24*
X128750000Y-71000000D03*
X127200000Y-71000000D03*
D20*
X167200000Y-56000000D03*
X169300000Y-56000000D03*
D25*
X102587500Y-62500000D03*
X104412500Y-62500000D03*
D23*
X130037500Y-87750000D03*
X132962500Y-87750000D03*
D26*
X121750000Y-64425000D03*
X121750000Y-61500000D03*
D27*
X153462500Y-60600000D03*
X150537500Y-60600000D03*
D13*
X164250000Y-67000000D03*
D18*
X149200000Y-98600000D03*
X146275000Y-98600000D03*
D28*
X134812500Y-97000000D03*
X130187500Y-97000000D03*
D13*
X158500000Y-61750000D03*
D29*
X108000000Y-56730000D03*
X108000000Y-55770000D03*
X118750000Y-61480000D03*
X118750000Y-60520000D03*
D30*
X125225000Y-97250000D03*
X122275000Y-97250000D03*
D31*
X147150000Y-82000000D03*
X145250000Y-82000000D03*
D32*
X121250000Y-104000000D03*
X122900000Y-104000000D03*
D33*
X111500000Y-61800000D03*
X111500000Y-63700000D03*
D11*
X92300000Y-60000000D03*
X95250000Y-60000000D03*
D26*
X144500000Y-60212500D03*
X144500000Y-57287500D03*
D23*
X152337500Y-101600000D03*
X155262500Y-101600000D03*
D19*
X141250000Y-64250000D03*
X143150000Y-64250000D03*
D18*
X99500000Y-56250000D03*
X96575000Y-56250000D03*
D13*
X122750000Y-73000000D03*
D34*
X142250000Y-84600000D03*
X142250000Y-85870000D03*
X142250000Y-87140000D03*
X142250000Y-88410000D03*
X147200000Y-88410000D03*
X147200000Y-87140000D03*
X147200000Y-85870000D03*
X147200000Y-84600000D03*
D10*
X126500000Y-103250000D03*
X126500000Y-106175000D03*
D13*
X160500000Y-67000000D03*
X131250000Y-108750000D03*
D23*
X135325000Y-87750000D03*
X138250000Y-87750000D03*
D13*
X135500000Y-108750000D03*
D23*
X114537500Y-66250000D03*
X117462500Y-66250000D03*
X137287500Y-97000000D03*
X140212500Y-97000000D03*
D13*
X162250000Y-61750000D03*
D35*
X94250000Y-56250000D03*
X92425000Y-56250000D03*
D36*
X150800000Y-56750000D03*
X153800000Y-56750000D03*
D22*
X130540000Y-102750000D03*
X131500000Y-102750000D03*
D21*
X150537500Y-67000000D03*
X153462500Y-67000000D03*
D33*
X146400000Y-92900000D03*
X146400000Y-94800000D03*
D16*
X134170000Y-74985500D03*
D17*
X139250000Y-74985500D03*
X144330000Y-74985500D03*
D37*
X160920000Y-71250000D03*
D38*
X163460000Y-71250000D03*
X166000000Y-71250000D03*
X168540000Y-71250000D03*
X168540000Y-78870000D03*
X166000000Y-78870000D03*
X163460000Y-78870000D03*
X160920000Y-78870000D03*
D37*
X127500000Y-56250000D03*
D39*
X127500000Y-58250000D03*
D37*
X145317621Y-105000000D03*
D39*
X147817621Y-105000000D03*
D37*
X125755113Y-77800000D03*
D39*
X123755113Y-77800000D03*
D37*
X151500000Y-70000000D03*
D39*
X149500000Y-70000000D03*
D37*
X116000000Y-71000000D03*
D39*
X116000000Y-73000000D03*
D37*
X152800000Y-95955113D03*
D39*
X152800000Y-93955113D03*
D37*
X153300000Y-105400000D03*
D39*
X155800000Y-105400000D03*
D37*
X154500000Y-73750000D03*
D39*
X154500000Y-75750000D03*
D37*
X129250000Y-82250000D03*
D39*
X131250000Y-82250000D03*
D40*
X121999293Y-93250707D03*
D41*
X124539293Y-93250707D03*
X127079293Y-93250707D03*
X129619293Y-93250707D03*
X132159293Y-93250707D03*
X134699293Y-93250707D03*
X137239293Y-93250707D03*
X139779293Y-93250707D03*
X139779293Y-101190707D03*
X137239293Y-101190707D03*
X134699293Y-101190707D03*
X132159293Y-101190707D03*
X129619293Y-101190707D03*
X127079293Y-101190707D03*
X124539293Y-101190707D03*
X121999293Y-101190707D03*
M02*
