%TF.GenerationSoftware,KiCad,Pcbnew,7.0.2*%
%TF.CreationDate,2023-07-16T22:25:04-04:00*%
%TF.ProjectId,hellerune,68656c6c-6572-4756-9e65-2e6b69636164,rev?*%
%TF.SameCoordinates,Original*%
%TF.FileFunction,Drillmap*%
%TF.FilePolarity,Positive*%
%FSLAX45Y45*%
G04 Gerber Fmt 4.5, Leading zero omitted, Abs format (unit mm)*
G04 Created by KiCad (PCBNEW 7.0.2) date 2023-07-16 22:25:04*
%MOMM*%
%LPD*%
G01*
G04 APERTURE LIST*
%ADD10C,0.100000*%
%ADD11C,0.200000*%
G04 APERTURE END LIST*
D10*
X18853680Y-5350000D02*
X18853680Y-8050000D01*
X12000000Y-8050000D02*
X12000000Y-11050000D01*
X9000000Y-5350000D02*
X9000000Y-8050000D01*
X9000000Y-8050000D02*
X12000000Y-8050000D01*
X15853680Y-8050000D02*
X15853680Y-11050000D01*
X12000000Y-11050000D02*
X15853680Y-11050000D01*
X9000000Y-5350000D02*
X18853680Y-5350000D01*
X15853680Y-8050000D02*
X18853680Y-8050000D01*
D11*
X9242619Y-11367524D02*
X9242619Y-11167524D01*
X9242619Y-11167524D02*
X9290238Y-11167524D01*
X9290238Y-11167524D02*
X9318810Y-11177048D01*
X9318810Y-11177048D02*
X9337857Y-11196095D01*
X9337857Y-11196095D02*
X9347381Y-11215143D01*
X9347381Y-11215143D02*
X9356905Y-11253238D01*
X9356905Y-11253238D02*
X9356905Y-11281809D01*
X9356905Y-11281809D02*
X9347381Y-11319905D01*
X9347381Y-11319905D02*
X9337857Y-11338952D01*
X9337857Y-11338952D02*
X9318810Y-11358000D01*
X9318810Y-11358000D02*
X9290238Y-11367524D01*
X9290238Y-11367524D02*
X9242619Y-11367524D01*
X9442619Y-11367524D02*
X9442619Y-11234190D01*
X9442619Y-11272286D02*
X9452143Y-11253238D01*
X9452143Y-11253238D02*
X9461667Y-11243714D01*
X9461667Y-11243714D02*
X9480714Y-11234190D01*
X9480714Y-11234190D02*
X9499762Y-11234190D01*
X9566429Y-11367524D02*
X9566429Y-11234190D01*
X9566429Y-11167524D02*
X9556905Y-11177048D01*
X9556905Y-11177048D02*
X9566429Y-11186571D01*
X9566429Y-11186571D02*
X9575952Y-11177048D01*
X9575952Y-11177048D02*
X9566429Y-11167524D01*
X9566429Y-11167524D02*
X9566429Y-11186571D01*
X9690238Y-11367524D02*
X9671190Y-11358000D01*
X9671190Y-11358000D02*
X9661667Y-11338952D01*
X9661667Y-11338952D02*
X9661667Y-11167524D01*
X9795000Y-11367524D02*
X9775952Y-11358000D01*
X9775952Y-11358000D02*
X9766429Y-11338952D01*
X9766429Y-11338952D02*
X9766429Y-11167524D01*
X10023571Y-11367524D02*
X10023571Y-11167524D01*
X10023571Y-11167524D02*
X10090238Y-11310381D01*
X10090238Y-11310381D02*
X10156905Y-11167524D01*
X10156905Y-11167524D02*
X10156905Y-11367524D01*
X10337857Y-11367524D02*
X10337857Y-11262762D01*
X10337857Y-11262762D02*
X10328333Y-11243714D01*
X10328333Y-11243714D02*
X10309286Y-11234190D01*
X10309286Y-11234190D02*
X10271190Y-11234190D01*
X10271190Y-11234190D02*
X10252143Y-11243714D01*
X10337857Y-11358000D02*
X10318810Y-11367524D01*
X10318810Y-11367524D02*
X10271190Y-11367524D01*
X10271190Y-11367524D02*
X10252143Y-11358000D01*
X10252143Y-11358000D02*
X10242619Y-11338952D01*
X10242619Y-11338952D02*
X10242619Y-11319905D01*
X10242619Y-11319905D02*
X10252143Y-11300857D01*
X10252143Y-11300857D02*
X10271190Y-11291333D01*
X10271190Y-11291333D02*
X10318810Y-11291333D01*
X10318810Y-11291333D02*
X10337857Y-11281809D01*
X10433095Y-11234190D02*
X10433095Y-11434190D01*
X10433095Y-11243714D02*
X10452143Y-11234190D01*
X10452143Y-11234190D02*
X10490238Y-11234190D01*
X10490238Y-11234190D02*
X10509286Y-11243714D01*
X10509286Y-11243714D02*
X10518810Y-11253238D01*
X10518810Y-11253238D02*
X10528333Y-11272286D01*
X10528333Y-11272286D02*
X10528333Y-11329428D01*
X10528333Y-11329428D02*
X10518810Y-11348476D01*
X10518810Y-11348476D02*
X10509286Y-11358000D01*
X10509286Y-11358000D02*
X10490238Y-11367524D01*
X10490238Y-11367524D02*
X10452143Y-11367524D01*
X10452143Y-11367524D02*
X10433095Y-11358000D01*
X10614048Y-11348476D02*
X10623571Y-11358000D01*
X10623571Y-11358000D02*
X10614048Y-11367524D01*
X10614048Y-11367524D02*
X10604524Y-11358000D01*
X10604524Y-11358000D02*
X10614048Y-11348476D01*
X10614048Y-11348476D02*
X10614048Y-11367524D01*
X10614048Y-11243714D02*
X10623571Y-11253238D01*
X10623571Y-11253238D02*
X10614048Y-11262762D01*
X10614048Y-11262762D02*
X10604524Y-11253238D01*
X10604524Y-11253238D02*
X10614048Y-11243714D01*
X10614048Y-11243714D02*
X10614048Y-11262762D01*
M02*
