%TF.GenerationSoftware,KiCad,Pcbnew,7.0.2*%
%TF.CreationDate,2023-07-27T03:21:22-04:00*%
%TF.ProjectId,hellerune-switchy,68656c6c-6572-4756-9e65-2d7377697463,1.0*%
%TF.SameCoordinates,Original*%
%TF.FileFunction,Copper,L1,Top*%
%TF.FilePolarity,Positive*%
%FSLAX46Y46*%
G04 Gerber Fmt 4.6, Leading zero omitted, Abs format (unit mm)*
G04 Created by KiCad (PCBNEW 7.0.2) date 2023-07-27 03:21:22*
%MOMM*%
%LPD*%
G01*
G04 APERTURE LIST*
%TA.AperFunction,ComponentPad*%
%ADD10C,1.700000*%
%TD*%
%TA.AperFunction,ComponentPad*%
%ADD11R,1.700000X1.700000*%
%TD*%
%TA.AperFunction,ComponentPad*%
%ADD12O,1.700000X1.700000*%
%TD*%
%TA.AperFunction,ComponentPad*%
%ADD13C,2.000000*%
%TD*%
%TA.AperFunction,ComponentPad*%
%ADD14R,3.500000X2.250000*%
%TD*%
%TA.AperFunction,Conductor*%
%ADD15C,0.350000*%
%TD*%
G04 APERTURE END LIST*
D10*
X140000000Y-102750000D03*
D11*
X140000000Y-105290000D03*
X143500000Y-92000000D03*
D12*
X146040000Y-92000000D03*
X148580000Y-92000000D03*
X151120000Y-92000000D03*
X153660000Y-92000000D03*
X156200000Y-92000000D03*
D13*
X140000000Y-99560000D03*
X140000000Y-91940000D03*
D14*
X145200000Y-95300000D03*
X145200000Y-100000000D03*
X145200000Y-104700000D03*
X150000000Y-95300000D03*
X150000000Y-100000000D03*
X150000000Y-104700000D03*
X154800000Y-95300000D03*
X154800000Y-100000000D03*
X154800000Y-104700000D03*
D15*
X140000000Y-99560000D02*
X140000000Y-102750000D01*
X140355000Y-105290000D02*
X140000000Y-105290000D01*
X142250000Y-102661055D02*
X142250000Y-100335965D01*
X143725000Y-96775000D02*
X145200000Y-95300000D01*
X141479999Y-104519999D02*
X140961022Y-105038977D01*
X143725010Y-96775010D02*
G75*
G03*
X142250000Y-100335965I3560990J-3560990D01*
G01*
X140355000Y-105290012D02*
G75*
G03*
X140961021Y-105038976I0J857012D01*
G01*
X141480013Y-104520013D02*
G75*
G03*
X142250000Y-102661055I-1858913J1858913D01*
G01*
X150560000Y-94740000D02*
X150000000Y-95300000D01*
X151120000Y-93388040D02*
X151120000Y-92000000D01*
X150559988Y-94739988D02*
G75*
G03*
X151120000Y-93388040I-1351988J1351988D01*
G01*
X152400000Y-101115075D02*
X152400000Y-94150954D01*
X150150000Y-104700000D02*
X150000000Y-104700000D01*
X151349999Y-103649999D02*
X150406066Y-104593933D01*
X153030000Y-92630000D02*
X153660000Y-92000000D01*
X151350007Y-103650007D02*
G75*
G03*
X152400000Y-101115075I-2534907J2534907D01*
G01*
X153029984Y-92629984D02*
G75*
G03*
X152400000Y-94150954I1520916J-1520916D01*
G01*
X150150000Y-104700008D02*
G75*
G03*
X150406066Y-104593933I0J362108D01*
G01*
X147600000Y-93672964D02*
X147600000Y-95902943D01*
X148090000Y-92490000D02*
X148580000Y-92000000D01*
X148800000Y-98800000D02*
X150000000Y-100000000D01*
X148090010Y-92490010D02*
G75*
G03*
X147600000Y-93672964I1182990J-1182990D01*
G01*
X147599953Y-95902943D02*
G75*
G03*
X148800000Y-98800000I4097047J43D01*
G01*
X145200000Y-100000000D02*
X145200000Y-104700000D01*
X140030000Y-91970000D02*
X140000000Y-91940000D01*
X140102426Y-92000000D02*
X143500000Y-92000000D01*
X140029992Y-91970008D02*
G75*
G03*
X140102426Y-92000000I72408J72408D01*
G01*
%TA.AperFunction,Conductor*%
G36*
X151893649Y-92320440D02*
G01*
X151899973Y-92326779D01*
X151899963Y-92335734D01*
X151899595Y-92336533D01*
X151295386Y-93528685D01*
X151288589Y-93534516D01*
X151283423Y-93534996D01*
X150950657Y-93491182D01*
X150942902Y-93486704D01*
X150941820Y-93485012D01*
X150340630Y-92336606D01*
X150339830Y-92327688D01*
X150345571Y-92320815D01*
X150346503Y-92320378D01*
X151115642Y-92000872D01*
X151124594Y-92000864D01*
X151893649Y-92320440D01*
G37*
%TD.AperFunction*%
%TA.AperFunction,Conductor*%
G36*
X145207769Y-100007871D02*
G01*
X145208748Y-100008850D01*
X146193349Y-101117511D01*
X146196281Y-101125972D01*
X146193626Y-101132726D01*
X145378510Y-102120746D01*
X145370602Y-102124947D01*
X145369485Y-102125000D01*
X145030515Y-102125000D01*
X145022242Y-102121573D01*
X145021490Y-102120746D01*
X144206372Y-101132724D01*
X144203751Y-101124163D01*
X144206649Y-101117513D01*
X145191252Y-100008849D01*
X145199308Y-100004939D01*
X145207769Y-100007871D01*
G37*
%TD.AperFunction*%
%TA.AperFunction,Conductor*%
G36*
X140175666Y-101053427D02*
G01*
X140178087Y-101056953D01*
X140780435Y-102413765D01*
X140780659Y-102422717D01*
X140774488Y-102429206D01*
X140774230Y-102429317D01*
X140004488Y-102749134D01*
X139995533Y-102749143D01*
X139995510Y-102749134D01*
X139225769Y-102429317D01*
X139219444Y-102422978D01*
X139219453Y-102414023D01*
X139219533Y-102413835D01*
X139821913Y-101056952D01*
X139828402Y-101050782D01*
X139832607Y-101050000D01*
X140167393Y-101050000D01*
X140175666Y-101053427D01*
G37*
%TD.AperFunction*%
%TA.AperFunction,Conductor*%
G36*
X141356681Y-104402505D02*
G01*
X141356900Y-104402719D01*
X141594143Y-104639962D01*
X141597570Y-104648235D01*
X141595692Y-104654593D01*
X140856173Y-105797056D01*
X140848801Y-105802139D01*
X140840284Y-105800702D01*
X140003451Y-105293228D01*
X139998154Y-105286008D01*
X139998147Y-105285981D01*
X139843510Y-104648235D01*
X139796431Y-104454072D01*
X139797812Y-104445226D01*
X139805045Y-104439946D01*
X139807494Y-104439621D01*
X141348322Y-104399296D01*
X141356681Y-104402505D01*
G37*
%TD.AperFunction*%
%TA.AperFunction,Conductor*%
G36*
X145377758Y-102578427D02*
G01*
X145378505Y-102579248D01*
X146193626Y-103567274D01*
X146196248Y-103575836D01*
X146193349Y-103582488D01*
X145208748Y-104691149D01*
X145200692Y-104695060D01*
X145192231Y-104692128D01*
X145191252Y-104691149D01*
X144206650Y-103582488D01*
X144203718Y-103574027D01*
X144206371Y-103567277D01*
X145021490Y-102579253D01*
X145029398Y-102575053D01*
X145030515Y-102575000D01*
X145369485Y-102575000D01*
X145377758Y-102578427D01*
G37*
%TD.AperFunction*%
%TA.AperFunction,Conductor*%
G36*
X151295954Y-93243266D02*
G01*
X151298202Y-93246421D01*
X151745404Y-94165662D01*
X151745942Y-94174600D01*
X151741214Y-94180619D01*
X150011261Y-95293753D01*
X150002449Y-95295348D01*
X149995091Y-95290245D01*
X149994330Y-95288868D01*
X149478104Y-94184312D01*
X149477706Y-94175366D01*
X149482425Y-94169486D01*
X150942127Y-93241664D01*
X150948403Y-93239839D01*
X151287681Y-93239839D01*
X151295954Y-93243266D01*
G37*
%TD.AperFunction*%
%TA.AperFunction,Conductor*%
G36*
X152886740Y-91679689D02*
G01*
X153655890Y-91997222D01*
X153662229Y-92003547D01*
X153662238Y-92003569D01*
X153980916Y-92774736D01*
X153980909Y-92783690D01*
X153974824Y-92789909D01*
X152759956Y-93325678D01*
X152751004Y-93325881D01*
X152750758Y-93325782D01*
X152441712Y-93197776D01*
X152435380Y-93191445D01*
X152434956Y-93183694D01*
X152551057Y-92785298D01*
X152871054Y-91687233D01*
X152876659Y-91680251D01*
X152885560Y-91679275D01*
X152886740Y-91679689D01*
G37*
%TD.AperFunction*%
%TA.AperFunction,Conductor*%
G36*
X145198603Y-95303118D02*
G01*
X145203383Y-95309900D01*
X145487279Y-96414567D01*
X145486019Y-96423433D01*
X145479784Y-96428532D01*
X143711561Y-97042349D01*
X143702621Y-97041825D01*
X143700203Y-97040259D01*
X143441413Y-96823109D01*
X143437279Y-96815166D01*
X143437235Y-96814019D01*
X143449896Y-95647383D01*
X143453412Y-95639148D01*
X143459372Y-95636023D01*
X145189830Y-95301325D01*
X145198603Y-95303118D01*
G37*
%TD.AperFunction*%
%TA.AperFunction,Conductor*%
G36*
X148452592Y-98096449D02*
G01*
X148455145Y-98097516D01*
X150305604Y-98871013D01*
X150311915Y-98877365D01*
X150312359Y-98884956D01*
X150003561Y-99990070D01*
X149998034Y-99997115D01*
X149989666Y-99998322D01*
X148258422Y-99599410D01*
X148251129Y-99594213D01*
X148249379Y-99588851D01*
X148156279Y-98295268D01*
X148159103Y-98286771D01*
X148161443Y-98284706D01*
X148441581Y-98097515D01*
X148450362Y-98095769D01*
X148452592Y-98096449D01*
G37*
%TD.AperFunction*%
%TA.AperFunction,Conductor*%
G36*
X142657377Y-91157369D02*
G01*
X143054126Y-91553651D01*
X143492712Y-91991722D01*
X143496144Y-91999992D01*
X143492722Y-92008267D01*
X143492712Y-92008277D01*
X142657377Y-92842630D01*
X142649102Y-92846052D01*
X142641833Y-92843514D01*
X141804424Y-92178513D01*
X141800076Y-92170685D01*
X141800000Y-92169351D01*
X141800000Y-91830648D01*
X141803427Y-91822375D01*
X141804415Y-91821493D01*
X142641834Y-91156484D01*
X142650443Y-91154023D01*
X142657377Y-91157369D01*
G37*
%TD.AperFunction*%
%TA.AperFunction,Conductor*%
G36*
X140912633Y-99938012D02*
G01*
X140918960Y-99944350D01*
X140918951Y-99953304D01*
X140918763Y-99953733D01*
X140178141Y-101553216D01*
X140171555Y-101559284D01*
X140167524Y-101560000D01*
X139832476Y-101560000D01*
X139824203Y-101556573D01*
X139821859Y-101553216D01*
X139595587Y-101064549D01*
X139081235Y-99953731D01*
X139080869Y-99944786D01*
X139086937Y-99938200D01*
X139087340Y-99938023D01*
X139995514Y-99560862D01*
X140004464Y-99560854D01*
X140912633Y-99938012D01*
G37*
%TD.AperFunction*%
%TA.AperFunction,Conductor*%
G36*
X147807817Y-91680134D02*
G01*
X148575665Y-91997159D01*
X148582004Y-92003484D01*
X148582012Y-92003503D01*
X148901313Y-92775702D01*
X148901308Y-92784657D01*
X148896225Y-92790377D01*
X147804706Y-93402601D01*
X147797152Y-93403953D01*
X147467534Y-93351742D01*
X147459898Y-93347063D01*
X147457808Y-93338356D01*
X147457891Y-93337893D01*
X147791885Y-91688625D01*
X147796886Y-91681198D01*
X147805674Y-91679482D01*
X147807817Y-91680134D01*
G37*
%TD.AperFunction*%
%TA.AperFunction,Conductor*%
G36*
X140393146Y-91021428D02*
G01*
X140393924Y-91021784D01*
X141981631Y-91821758D01*
X141987476Y-91828540D01*
X141988065Y-91832206D01*
X141988065Y-92167288D01*
X141984638Y-92175561D01*
X141980979Y-92178040D01*
X140393561Y-92859211D01*
X140384607Y-92859324D01*
X140378195Y-92853073D01*
X140378142Y-92852946D01*
X140000863Y-91944486D01*
X140000854Y-91935535D01*
X140377855Y-91027744D01*
X140384192Y-91021419D01*
X140393146Y-91021428D01*
G37*
%TD.AperFunction*%
M02*
