%TF.GenerationSoftware,KiCad,Pcbnew,7.0.2*%
%TF.CreationDate,2023-07-27T03:21:22-04:00*%
%TF.ProjectId,hellerune-switchy,68656c6c-6572-4756-9e65-2d7377697463,1.0*%
%TF.SameCoordinates,Original*%
%TF.FileFunction,Legend,Top*%
%TF.FilePolarity,Positive*%
%FSLAX46Y46*%
G04 Gerber Fmt 4.6, Leading zero omitted, Abs format (unit mm)*
G04 Created by KiCad (PCBNEW 7.0.2) date 2023-07-27 03:21:22*
%MOMM*%
%LPD*%
G01*
G04 APERTURE LIST*
G04 Aperture macros list*
%AMRoundRect*
0 Rectangle with rounded corners*
0 $1 Rounding radius*
0 $2 $3 $4 $5 $6 $7 $8 $9 X,Y pos of 4 corners*
0 Add a 4 corners polygon primitive as box body*
4,1,4,$2,$3,$4,$5,$6,$7,$8,$9,$2,$3,0*
0 Add four circle primitives for the rounded corners*
1,1,$1+$1,$2,$3*
1,1,$1+$1,$4,$5*
1,1,$1+$1,$6,$7*
1,1,$1+$1,$8,$9*
0 Add four rect primitives between the rounded corners*
20,1,$1+$1,$2,$3,$4,$5,0*
20,1,$1+$1,$4,$5,$6,$7,0*
20,1,$1+$1,$6,$7,$8,$9,0*
20,1,$1+$1,$8,$9,$2,$3,0*%
G04 Aperture macros list end*
%ADD10C,0.150000*%
%ADD11C,0.101600*%
%ADD12C,0.120000*%
%ADD13C,0.152400*%
%ADD14C,0.203200*%
%ADD15C,1.700000*%
%ADD16R,1.700000X1.700000*%
%ADD17O,1.700000X1.700000*%
%ADD18C,2.203200*%
%ADD19RoundRect,0.101600X-1.750000X-1.125000X1.750000X-1.125000X1.750000X1.125000X-1.750000X1.125000X0*%
G04 APERTURE END LIST*
D10*
X152066667Y-93862619D02*
X152066667Y-92862619D01*
X152066667Y-92862619D02*
X152400000Y-93576904D01*
X152400000Y-93576904D02*
X152733333Y-92862619D01*
X152733333Y-92862619D02*
X152733333Y-93862619D01*
X157510238Y-93361904D02*
X157462619Y-93457142D01*
X157462619Y-93457142D02*
X157462619Y-93599999D01*
X157462619Y-93599999D02*
X157510238Y-93742856D01*
X157510238Y-93742856D02*
X157605476Y-93838094D01*
X157605476Y-93838094D02*
X157700714Y-93885713D01*
X157700714Y-93885713D02*
X157891190Y-93933332D01*
X157891190Y-93933332D02*
X158034047Y-93933332D01*
X158034047Y-93933332D02*
X158224523Y-93885713D01*
X158224523Y-93885713D02*
X158319761Y-93838094D01*
X158319761Y-93838094D02*
X158415000Y-93742856D01*
X158415000Y-93742856D02*
X158462619Y-93599999D01*
X158462619Y-93599999D02*
X158462619Y-93504761D01*
X158462619Y-93504761D02*
X158415000Y-93361904D01*
X158415000Y-93361904D02*
X158367380Y-93314285D01*
X158367380Y-93314285D02*
X158034047Y-93314285D01*
X158034047Y-93314285D02*
X158034047Y-93504761D01*
X158462619Y-92885713D02*
X157462619Y-92885713D01*
X157462619Y-92885713D02*
X158462619Y-92314285D01*
X158462619Y-92314285D02*
X157462619Y-92314285D01*
X158462619Y-91838094D02*
X157462619Y-91838094D01*
X157462619Y-91838094D02*
X157462619Y-91599999D01*
X157462619Y-91599999D02*
X157510238Y-91457142D01*
X157510238Y-91457142D02*
X157605476Y-91361904D01*
X157605476Y-91361904D02*
X157700714Y-91314285D01*
X157700714Y-91314285D02*
X157891190Y-91266666D01*
X157891190Y-91266666D02*
X158034047Y-91266666D01*
X158034047Y-91266666D02*
X158224523Y-91314285D01*
X158224523Y-91314285D02*
X158319761Y-91361904D01*
X158319761Y-91361904D02*
X158415000Y-91457142D01*
X158415000Y-91457142D02*
X158462619Y-91599999D01*
X158462619Y-91599999D02*
X158462619Y-91838094D01*
X155409523Y-93662619D02*
X154933333Y-93662619D01*
X154933333Y-93662619D02*
X154933333Y-92662619D01*
X147561904Y-92510238D02*
X147466666Y-92462619D01*
X147466666Y-92462619D02*
X147323809Y-92462619D01*
X147323809Y-92462619D02*
X147180952Y-92510238D01*
X147180952Y-92510238D02*
X147085714Y-92605476D01*
X147085714Y-92605476D02*
X147038095Y-92700714D01*
X147038095Y-92700714D02*
X146990476Y-92891190D01*
X146990476Y-92891190D02*
X146990476Y-93034047D01*
X146990476Y-93034047D02*
X147038095Y-93224523D01*
X147038095Y-93224523D02*
X147085714Y-93319761D01*
X147085714Y-93319761D02*
X147180952Y-93415000D01*
X147180952Y-93415000D02*
X147323809Y-93462619D01*
X147323809Y-93462619D02*
X147419047Y-93462619D01*
X147419047Y-93462619D02*
X147561904Y-93415000D01*
X147561904Y-93415000D02*
X147609523Y-93367380D01*
X147609523Y-93367380D02*
X147609523Y-93034047D01*
X147609523Y-93034047D02*
X147419047Y-93034047D01*
X149800000Y-93662619D02*
X149800000Y-92662619D01*
X141780952Y-94762619D02*
X141971428Y-94762619D01*
X141971428Y-94762619D02*
X142066666Y-94715000D01*
X142066666Y-94715000D02*
X142114285Y-94667380D01*
X142114285Y-94667380D02*
X142209523Y-94524523D01*
X142209523Y-94524523D02*
X142257142Y-94334047D01*
X142257142Y-94334047D02*
X142257142Y-93953095D01*
X142257142Y-93953095D02*
X142209523Y-93857857D01*
X142209523Y-93857857D02*
X142161904Y-93810238D01*
X142161904Y-93810238D02*
X142066666Y-93762619D01*
X142066666Y-93762619D02*
X141876190Y-93762619D01*
X141876190Y-93762619D02*
X141780952Y-93810238D01*
X141780952Y-93810238D02*
X141733333Y-93857857D01*
X141733333Y-93857857D02*
X141685714Y-93953095D01*
X141685714Y-93953095D02*
X141685714Y-94191190D01*
X141685714Y-94191190D02*
X141733333Y-94286428D01*
X141733333Y-94286428D02*
X141780952Y-94334047D01*
X141780952Y-94334047D02*
X141876190Y-94381666D01*
X141876190Y-94381666D02*
X142066666Y-94381666D01*
X142066666Y-94381666D02*
X142161904Y-94334047D01*
X142161904Y-94334047D02*
X142209523Y-94286428D01*
X142209523Y-94286428D02*
X142257142Y-94191190D01*
X142542857Y-93762619D02*
X142876190Y-94762619D01*
X142876190Y-94762619D02*
X143209523Y-93762619D01*
D11*
X140558150Y-95951083D02*
X139983626Y-96353250D01*
X140558150Y-96640512D02*
X139351650Y-96640512D01*
X139351650Y-96640512D02*
X139351650Y-96180893D01*
X139351650Y-96180893D02*
X139409102Y-96065988D01*
X139409102Y-96065988D02*
X139466555Y-96008535D01*
X139466555Y-96008535D02*
X139581459Y-95951083D01*
X139581459Y-95951083D02*
X139753817Y-95951083D01*
X139753817Y-95951083D02*
X139868721Y-96008535D01*
X139868721Y-96008535D02*
X139926174Y-96065988D01*
X139926174Y-96065988D02*
X139983626Y-96180893D01*
X139983626Y-96180893D02*
X139983626Y-96640512D01*
X140558150Y-94802035D02*
X140558150Y-95491464D01*
X140558150Y-95146750D02*
X139351650Y-95146750D01*
X139351650Y-95146750D02*
X139524007Y-95261654D01*
X139524007Y-95261654D02*
X139638912Y-95376559D01*
X139638912Y-95376559D02*
X139696364Y-95491464D01*
D12*
X138670000Y-101420000D02*
X140000000Y-101420000D01*
X138670000Y-102750000D02*
X138670000Y-101420000D01*
X138670000Y-104020000D02*
X138670000Y-106620000D01*
X138670000Y-104020000D02*
X141330000Y-104020000D01*
X138670000Y-106620000D02*
X141330000Y-106620000D01*
X141330000Y-104020000D02*
X141330000Y-106620000D01*
X142170000Y-93330000D02*
X142170000Y-92000000D01*
X143500000Y-93330000D02*
X142170000Y-93330000D01*
X144770000Y-93330000D02*
X157530000Y-93330000D01*
X144770000Y-93330000D02*
X144770000Y-90670000D01*
X157530000Y-93330000D02*
X157530000Y-90670000D01*
X144770000Y-90670000D02*
X157530000Y-90670000D01*
D13*
X140762000Y-98560000D02*
X139238000Y-98560000D01*
X138984000Y-98306000D02*
X138984000Y-97290000D01*
X141016000Y-98306000D02*
X141016000Y-97290000D01*
X139111000Y-97163000D02*
X138984000Y-97290000D01*
X140889000Y-97163000D02*
X141016000Y-97290000D01*
X139111000Y-94337000D02*
X139111000Y-97163000D01*
X139111000Y-94337000D02*
X138984000Y-94210000D01*
X140889000Y-94337000D02*
X140889000Y-97163000D01*
X140889000Y-94337000D02*
X141016000Y-94210000D01*
X138984000Y-93194000D02*
X138984000Y-94210000D01*
X141016000Y-93194000D02*
X141016000Y-94210000D01*
X140762000Y-92940000D02*
X139238000Y-92940000D01*
X138984000Y-98306000D02*
G75*
G03*
X139238000Y-98560000I254000J0D01*
G01*
X140762000Y-98560000D02*
G75*
G03*
X141016000Y-98306000I0J254000D01*
G01*
X139238000Y-92940000D02*
G75*
G03*
X138984000Y-93194000I0J-254000D01*
G01*
X141016000Y-93194000D02*
G75*
G03*
X140762000Y-92940000I-254000J0D01*
G01*
D14*
X141500000Y-93400000D02*
X141500000Y-100000000D01*
X141500000Y-93400000D02*
X150000000Y-93400000D01*
X141500000Y-100000000D02*
X141500000Y-106600000D01*
X141500000Y-106600000D02*
X150000000Y-106600000D01*
X150000000Y-93400000D02*
X158500000Y-93400000D01*
X150000000Y-106600000D02*
X158500000Y-106600000D01*
X158500000Y-100000000D02*
X158500000Y-93400000D01*
X158500000Y-106600000D02*
X158500000Y-100000000D01*
%LPC*%
D15*
X140000000Y-102750000D03*
D16*
X140000000Y-105290000D03*
X143500000Y-92000000D03*
D17*
X146040000Y-92000000D03*
X148580000Y-92000000D03*
X151120000Y-92000000D03*
X153660000Y-92000000D03*
X156200000Y-92000000D03*
D18*
X140000000Y-99560000D03*
X140000000Y-91940000D03*
D19*
X145200000Y-95300000D03*
X145200000Y-100000000D03*
X145200000Y-104700000D03*
X150000000Y-95300000D03*
X150000000Y-100000000D03*
X150000000Y-104700000D03*
X154800000Y-95300000D03*
X154800000Y-100000000D03*
X154800000Y-104700000D03*
%LPD*%
M02*
