%TF.GenerationSoftware,KiCad,Pcbnew,7.0.2*%
%TF.CreationDate,2023-07-27T03:21:22-04:00*%
%TF.ProjectId,hellerune-switchy,68656c6c-6572-4756-9e65-2d7377697463,1.0*%
%TF.SameCoordinates,Original*%
%TF.FileFunction,Copper,L2,Bot*%
%TF.FilePolarity,Positive*%
%FSLAX46Y46*%
G04 Gerber Fmt 4.6, Leading zero omitted, Abs format (unit mm)*
G04 Created by KiCad (PCBNEW 7.0.2) date 2023-07-27 03:21:22*
%MOMM*%
%LPD*%
G01*
G04 APERTURE LIST*
%TA.AperFunction,ComponentPad*%
%ADD10C,1.700000*%
%TD*%
%TA.AperFunction,ComponentPad*%
%ADD11R,1.700000X1.700000*%
%TD*%
%TA.AperFunction,ComponentPad*%
%ADD12O,1.700000X1.700000*%
%TD*%
%TA.AperFunction,ComponentPad*%
%ADD13C,2.000000*%
%TD*%
%TA.AperFunction,ComponentPad*%
%ADD14R,3.500000X2.250000*%
%TD*%
%TA.AperFunction,Conductor*%
%ADD15C,0.350000*%
%TD*%
G04 APERTURE END LIST*
D10*
X140000000Y-102750000D03*
D11*
X140000000Y-105290000D03*
X143500000Y-92000000D03*
D12*
X146040000Y-92000000D03*
X148580000Y-92000000D03*
X151120000Y-92000000D03*
X153660000Y-92000000D03*
X156200000Y-92000000D03*
D13*
X140000000Y-99560000D03*
X140000000Y-91940000D03*
D14*
X145200000Y-95300000D03*
X145200000Y-100000000D03*
X145200000Y-104700000D03*
X150000000Y-95300000D03*
X150000000Y-100000000D03*
X150000000Y-104700000D03*
X154800000Y-95300000D03*
X154800000Y-100000000D03*
X154800000Y-104700000D03*
D15*
X145129289Y-99729289D02*
X143389949Y-97989949D01*
X143594974Y-93500000D02*
X143820000Y-93500000D01*
X153639339Y-93500000D02*
X148600660Y-93500000D01*
X145200000Y-99900000D02*
X145200000Y-100000000D01*
X142400000Y-94694974D02*
X142400000Y-95600000D01*
X155450000Y-92750000D02*
X156200000Y-92000000D01*
X145289999Y-92749999D02*
X145049116Y-92990883D01*
X146790012Y-92749988D02*
G75*
G03*
X148600660Y-93500000I1810688J1810688D01*
G01*
X153639339Y-93500016D02*
G75*
G03*
X155450000Y-92750000I-39J2560716D01*
G01*
X142400001Y-95600000D02*
G75*
G03*
X143389949Y-97989949I3379899J0D01*
G01*
X145200006Y-99900000D02*
G75*
G03*
X145129289Y-99729289I-241406J0D01*
G01*
X146790001Y-92749999D02*
G75*
G03*
X145289999Y-92749999I-750001J-750001D01*
G01*
X143594974Y-93499990D02*
G75*
G03*
X142750000Y-93850000I26J-1195010D01*
G01*
X142750007Y-93850007D02*
G75*
G03*
X142400000Y-94694974I844993J-844993D01*
G01*
X143820000Y-93500009D02*
G75*
G03*
X145049116Y-92990883I0J1738209D01*
G01*
%TA.AperFunction,Conductor*%
G36*
X155426103Y-91679429D02*
G01*
X156196372Y-91997643D01*
X156202710Y-92003970D01*
X156202720Y-92003992D01*
X156520426Y-92773540D01*
X156520415Y-92782495D01*
X156514076Y-92788820D01*
X156513158Y-92789154D01*
X155160068Y-93219590D01*
X155151145Y-93218833D01*
X155146389Y-93214291D01*
X154978785Y-92923999D01*
X154977617Y-92915123D01*
X154977874Y-92914288D01*
X155410602Y-91686352D01*
X155416583Y-91679690D01*
X155425525Y-91679208D01*
X155426103Y-91679429D01*
G37*
%TD.AperFunction*%
%TA.AperFunction,Conductor*%
G36*
X143698999Y-98047464D02*
G01*
X144241354Y-98291637D01*
X145527777Y-98870795D01*
X145533914Y-98877316D01*
X145534184Y-98884814D01*
X145203949Y-99989855D01*
X145198297Y-99996801D01*
X145189755Y-99997818D01*
X143458672Y-99541168D01*
X143451547Y-99535745D01*
X143449957Y-99529914D01*
X143444172Y-98296512D01*
X143447559Y-98288227D01*
X143685926Y-98049860D01*
X143694198Y-98046434D01*
X143698999Y-98047464D01*
G37*
%TD.AperFunction*%
M02*
